M48
; DRILL file {KiCad (5.1.5)-3} date 16.05.2020 12:59:53
; FORMAT={-:-/ absolute / inch / decimal}
; #@! TF.CreationDate,2020-05-16T12:59:53+02:00
; #@! TF.GenerationSoftware,Kicad,Pcbnew,(5.1.5)-3
; #@! TF.FileFunction,Plated,1,2,PTH
FMAT,2
INCH
T1C0.0157
T2C0.0315
%
G90
G05
T1
X6.85Y-2.55
T2
X6.452Y-2.872
X6.452Y-2.972
X6.452Y-3.072
X6.452Y-3.172
X6.452Y-3.272
X6.452Y-3.372
X6.552Y-2.772
X6.552Y-2.872
X6.552Y-2.972
X6.552Y-3.072
X6.552Y-3.172
X6.552Y-3.272
X6.552Y-3.372
X6.552Y-3.472
X6.652Y-2.772
X6.652Y-2.872
X6.652Y-3.372
X6.652Y-3.472
X6.752Y-2.772
X6.752Y-2.872
X6.752Y-3.372
X6.752Y-3.472
X6.852Y-2.772
X6.852Y-2.872
X6.852Y-3.372
X6.852Y-3.472
X6.952Y-2.772
X6.952Y-2.872
X6.952Y-3.372
X6.952Y-3.472
X7.052Y-2.772
X7.052Y-2.872
X7.052Y-2.972
X7.052Y-3.072
X7.052Y-3.172
X7.052Y-3.272
X7.052Y-3.372
X7.052Y-3.472
X7.152Y-2.872
X7.152Y-2.972
X7.152Y-3.072
X7.152Y-3.172
X7.152Y-3.272
X7.152Y-3.372
X6.5023Y-2.122
X6.5023Y-2.222
X6.5023Y-2.322
X6.5023Y-2.422
X6.5023Y-2.522
X6.5023Y-2.622
X6.5023Y-2.722
X6.5023Y-2.822
X6.5023Y-2.922
X6.5023Y-3.022
X6.5023Y-3.122
X6.5023Y-3.222
X6.5023Y-3.322
X6.5023Y-3.422
X6.5023Y-3.522
X6.5023Y-3.622
X6.5023Y-3.722
X6.5023Y-3.822
X6.5023Y-3.922
X6.5023Y-4.022
X7.1023Y-2.122
X7.1023Y-2.222
X7.1023Y-2.322
X7.1023Y-2.422
X7.1023Y-2.522
X7.1023Y-2.622
X7.1023Y-2.722
X7.1023Y-2.822
X7.1023Y-2.922
X7.1023Y-3.022
X7.1023Y-3.122
X7.1023Y-3.222
X7.1023Y-3.322
X7.1023Y-3.422
X7.1023Y-3.522
X7.1023Y-3.622
X7.1023Y-3.722
X7.1023Y-3.822
X7.1023Y-3.922
X7.1023Y-4.022
T0
M30
