G04 #@! TF.GenerationSoftware,KiCad,Pcbnew,(5.1.5)-3*
G04 #@! TF.CreationDate,2020-04-26T18:15:54+02:00*
G04 #@! TF.ProjectId,plcc44_adapter,706c6363-3434-45f6-9164-61707465722e,rev?*
G04 #@! TF.SameCoordinates,Original*
G04 #@! TF.FileFunction,Legend,Bot*
G04 #@! TF.FilePolarity,Positive*
%FSLAX46Y46*%
G04 Gerber Fmt 4.6, Leading zero omitted, Abs format (unit mm)*
G04 Created by KiCad (PCBNEW (5.1.5)-3) date 2020-04-26 18:15:54*
%MOMM*%
%LPD*%
G04 APERTURE LIST*
%ADD10C,0.150000*%
G04 APERTURE END LIST*
D10*
X178505714Y-98306380D02*
X178505714Y-97306380D01*
X177934285Y-98306380D01*
X177934285Y-97306380D01*
X177458095Y-98306380D02*
X177458095Y-97639714D01*
X177458095Y-97306380D02*
X177505714Y-97354000D01*
X177458095Y-97401619D01*
X177410476Y-97354000D01*
X177458095Y-97306380D01*
X177458095Y-97401619D01*
X176553333Y-98258761D02*
X176648571Y-98306380D01*
X176839047Y-98306380D01*
X176934285Y-98258761D01*
X176981904Y-98211142D01*
X177029523Y-98115904D01*
X177029523Y-97830190D01*
X176981904Y-97734952D01*
X176934285Y-97687333D01*
X176839047Y-97639714D01*
X176648571Y-97639714D01*
X176553333Y-97687333D01*
X175981904Y-98306380D02*
X176077142Y-98258761D01*
X176124761Y-98211142D01*
X176172380Y-98115904D01*
X176172380Y-97830190D01*
X176124761Y-97734952D01*
X176077142Y-97687333D01*
X175981904Y-97639714D01*
X175839047Y-97639714D01*
X175743809Y-97687333D01*
X175696190Y-97734952D01*
X175648571Y-97830190D01*
X175648571Y-98115904D01*
X175696190Y-98211142D01*
X175743809Y-98258761D01*
X175839047Y-98306380D01*
X175981904Y-98306380D01*
X175077142Y-98306380D02*
X175172380Y-98258761D01*
X175220000Y-98163523D01*
X175220000Y-97306380D01*
X174267619Y-98306380D02*
X174267619Y-97782571D01*
X174315238Y-97687333D01*
X174410476Y-97639714D01*
X174600952Y-97639714D01*
X174696190Y-97687333D01*
X174267619Y-98258761D02*
X174362857Y-98306380D01*
X174600952Y-98306380D01*
X174696190Y-98258761D01*
X174743809Y-98163523D01*
X174743809Y-98068285D01*
X174696190Y-97973047D01*
X174600952Y-97925428D01*
X174362857Y-97925428D01*
X174267619Y-97877809D01*
X173839047Y-98258761D02*
X173743809Y-98306380D01*
X173553333Y-98306380D01*
X173458095Y-98258761D01*
X173410476Y-98163523D01*
X173410476Y-98115904D01*
X173458095Y-98020666D01*
X173553333Y-97973047D01*
X173696190Y-97973047D01*
X173791428Y-97925428D01*
X173839047Y-97830190D01*
X173839047Y-97782571D01*
X173791428Y-97687333D01*
X173696190Y-97639714D01*
X173553333Y-97639714D01*
X173458095Y-97687333D01*
X172267619Y-98258761D02*
X172124761Y-98306380D01*
X171886666Y-98306380D01*
X171791428Y-98258761D01*
X171743809Y-98211142D01*
X171696190Y-98115904D01*
X171696190Y-98020666D01*
X171743809Y-97925428D01*
X171791428Y-97877809D01*
X171886666Y-97830190D01*
X172077142Y-97782571D01*
X172172380Y-97734952D01*
X172220000Y-97687333D01*
X172267619Y-97592095D01*
X172267619Y-97496857D01*
X172220000Y-97401619D01*
X172172380Y-97354000D01*
X172077142Y-97306380D01*
X171839047Y-97306380D01*
X171696190Y-97354000D01*
X171410476Y-97639714D02*
X171029523Y-97639714D01*
X171267619Y-97306380D02*
X171267619Y-98163523D01*
X171220000Y-98258761D01*
X171124761Y-98306380D01*
X171029523Y-98306380D01*
X170696190Y-98306380D02*
X170696190Y-97639714D01*
X170696190Y-97830190D02*
X170648571Y-97734952D01*
X170600952Y-97687333D01*
X170505714Y-97639714D01*
X170410476Y-97639714D01*
X170077142Y-98306380D02*
X170077142Y-97639714D01*
X170077142Y-97306380D02*
X170124761Y-97354000D01*
X170077142Y-97401619D01*
X170029523Y-97354000D01*
X170077142Y-97306380D01*
X170077142Y-97401619D01*
X169220000Y-98258761D02*
X169315238Y-98306380D01*
X169505714Y-98306380D01*
X169600952Y-98258761D01*
X169648571Y-98163523D01*
X169648571Y-97782571D01*
X169600952Y-97687333D01*
X169505714Y-97639714D01*
X169315238Y-97639714D01*
X169220000Y-97687333D01*
X169172380Y-97782571D01*
X169172380Y-97877809D01*
X169648571Y-97973047D01*
X168743809Y-98306380D02*
X168743809Y-97306380D01*
X168743809Y-97687333D02*
X168648571Y-97639714D01*
X168458095Y-97639714D01*
X168362857Y-97687333D01*
X168315238Y-97734952D01*
X168267619Y-97830190D01*
X168267619Y-98115904D01*
X168315238Y-98211142D01*
X168362857Y-98258761D01*
X168458095Y-98306380D01*
X168648571Y-98306380D01*
X168743809Y-98258761D01*
X167839047Y-98306380D02*
X167839047Y-97639714D01*
X167839047Y-97306380D02*
X167886666Y-97354000D01*
X167839047Y-97401619D01*
X167791428Y-97354000D01*
X167839047Y-97306380D01*
X167839047Y-97401619D01*
X166934285Y-97639714D02*
X166934285Y-98449238D01*
X166981904Y-98544476D01*
X167029523Y-98592095D01*
X167124761Y-98639714D01*
X167267619Y-98639714D01*
X167362857Y-98592095D01*
X166934285Y-98258761D02*
X167029523Y-98306380D01*
X167220000Y-98306380D01*
X167315238Y-98258761D01*
X167362857Y-98211142D01*
X167410476Y-98115904D01*
X167410476Y-97830190D01*
X167362857Y-97734952D01*
X167315238Y-97687333D01*
X167220000Y-97639714D01*
X167029523Y-97639714D01*
X166934285Y-97687333D01*
X174434285Y-99051619D02*
X174386666Y-99004000D01*
X174291428Y-98956380D01*
X174053333Y-98956380D01*
X173958095Y-99004000D01*
X173910476Y-99051619D01*
X173862857Y-99146857D01*
X173862857Y-99242095D01*
X173910476Y-99384952D01*
X174481904Y-99956380D01*
X173862857Y-99956380D01*
X173243809Y-98956380D02*
X173148571Y-98956380D01*
X173053333Y-99004000D01*
X173005714Y-99051619D01*
X172958095Y-99146857D01*
X172910476Y-99337333D01*
X172910476Y-99575428D01*
X172958095Y-99765904D01*
X173005714Y-99861142D01*
X173053333Y-99908761D01*
X173148571Y-99956380D01*
X173243809Y-99956380D01*
X173339047Y-99908761D01*
X173386666Y-99861142D01*
X173434285Y-99765904D01*
X173481904Y-99575428D01*
X173481904Y-99337333D01*
X173434285Y-99146857D01*
X173386666Y-99051619D01*
X173339047Y-99004000D01*
X173243809Y-98956380D01*
X172529523Y-99051619D02*
X172481904Y-99004000D01*
X172386666Y-98956380D01*
X172148571Y-98956380D01*
X172053333Y-99004000D01*
X172005714Y-99051619D01*
X171958095Y-99146857D01*
X171958095Y-99242095D01*
X172005714Y-99384952D01*
X172577142Y-99956380D01*
X171958095Y-99956380D01*
X171339047Y-98956380D02*
X171243809Y-98956380D01*
X171148571Y-99004000D01*
X171100952Y-99051619D01*
X171053333Y-99146857D01*
X171005714Y-99337333D01*
X171005714Y-99575428D01*
X171053333Y-99765904D01*
X171100952Y-99861142D01*
X171148571Y-99908761D01*
X171243809Y-99956380D01*
X171339047Y-99956380D01*
X171434285Y-99908761D01*
X171481904Y-99861142D01*
X171529523Y-99765904D01*
X171577142Y-99575428D01*
X171577142Y-99337333D01*
X171529523Y-99146857D01*
X171481904Y-99051619D01*
X171434285Y-99004000D01*
X171339047Y-98956380D01*
M02*
