G04 #@! TF.GenerationSoftware,KiCad,Pcbnew,(5.1.5)-3*
G04 #@! TF.CreationDate,2020-04-26T18:15:54+02:00*
G04 #@! TF.ProjectId,plcc44_adapter,706c6363-3434-45f6-9164-61707465722e,rev?*
G04 #@! TF.SameCoordinates,Original*
G04 #@! TF.FileFunction,Legend,Top*
G04 #@! TF.FilePolarity,Positive*
%FSLAX46Y46*%
G04 Gerber Fmt 4.6, Leading zero omitted, Abs format (unit mm)*
G04 Created by KiCad (PCBNEW (5.1.5)-3) date 2020-04-26 18:15:54*
%MOMM*%
%LPD*%
G04 APERTURE LIST*
%ADD10C,0.150000*%
%ADD11C,0.120000*%
G04 APERTURE END LIST*
D10*
X167418428Y-59762380D02*
X167418428Y-58762380D01*
X167799380Y-58762380D01*
X167894619Y-58810000D01*
X167942238Y-58857619D01*
X167989857Y-58952857D01*
X167989857Y-59095714D01*
X167942238Y-59190952D01*
X167894619Y-59238571D01*
X167799380Y-59286190D01*
X167418428Y-59286190D01*
X168894619Y-59762380D02*
X168418428Y-59762380D01*
X168418428Y-58762380D01*
X169799380Y-59667142D02*
X169751761Y-59714761D01*
X169608904Y-59762380D01*
X169513666Y-59762380D01*
X169370809Y-59714761D01*
X169275571Y-59619523D01*
X169227952Y-59524285D01*
X169180333Y-59333809D01*
X169180333Y-59190952D01*
X169227952Y-59000476D01*
X169275571Y-58905238D01*
X169370809Y-58810000D01*
X169513666Y-58762380D01*
X169608904Y-58762380D01*
X169751761Y-58810000D01*
X169799380Y-58857619D01*
X170799380Y-59667142D02*
X170751761Y-59714761D01*
X170608904Y-59762380D01*
X170513666Y-59762380D01*
X170370809Y-59714761D01*
X170275571Y-59619523D01*
X170227952Y-59524285D01*
X170180333Y-59333809D01*
X170180333Y-59190952D01*
X170227952Y-59000476D01*
X170275571Y-58905238D01*
X170370809Y-58810000D01*
X170513666Y-58762380D01*
X170608904Y-58762380D01*
X170751761Y-58810000D01*
X170799380Y-58857619D01*
X171656523Y-59095714D02*
X171656523Y-59762380D01*
X171418428Y-58714761D02*
X171180333Y-59429047D01*
X171799380Y-59429047D01*
X172608904Y-59095714D02*
X172608904Y-59762380D01*
X172370809Y-58714761D02*
X172132714Y-59429047D01*
X172751761Y-59429047D01*
X173132714Y-59381428D02*
X173894619Y-59381428D01*
X174370809Y-59762380D02*
X174370809Y-58762380D01*
X174608904Y-58762380D01*
X174751761Y-58810000D01*
X174847000Y-58905238D01*
X174894619Y-59000476D01*
X174942238Y-59190952D01*
X174942238Y-59333809D01*
X174894619Y-59524285D01*
X174847000Y-59619523D01*
X174751761Y-59714761D01*
X174608904Y-59762380D01*
X174370809Y-59762380D01*
X175370809Y-59762380D02*
X175370809Y-58762380D01*
X175847000Y-59762380D02*
X175847000Y-58762380D01*
X176227952Y-58762380D01*
X176323190Y-58810000D01*
X176370809Y-58857619D01*
X176418428Y-58952857D01*
X176418428Y-59095714D01*
X176370809Y-59190952D01*
X176323190Y-59238571D01*
X176227952Y-59286190D01*
X175847000Y-59286190D01*
X177275571Y-59095714D02*
X177275571Y-59762380D01*
X177037476Y-58714761D02*
X176799380Y-59429047D01*
X177418428Y-59429047D01*
X177989857Y-58762380D02*
X178085095Y-58762380D01*
X178180333Y-58810000D01*
X178227952Y-58857619D01*
X178275571Y-58952857D01*
X178323190Y-59143333D01*
X178323190Y-59381428D01*
X178275571Y-59571904D01*
X178227952Y-59667142D01*
X178180333Y-59714761D01*
X178085095Y-59762380D01*
X177989857Y-59762380D01*
X177894619Y-59714761D01*
X177847000Y-59667142D01*
X177799380Y-59571904D01*
X177751761Y-59381428D01*
X177751761Y-59143333D01*
X177799380Y-58952857D01*
X177847000Y-58857619D01*
X177894619Y-58810000D01*
X177989857Y-58762380D01*
X170227952Y-61126666D02*
X170704142Y-61126666D01*
X170132714Y-61412380D02*
X170466047Y-60412380D01*
X170799380Y-61412380D01*
X171561285Y-61412380D02*
X171561285Y-60412380D01*
X171561285Y-61364761D02*
X171466047Y-61412380D01*
X171275571Y-61412380D01*
X171180333Y-61364761D01*
X171132714Y-61317142D01*
X171085095Y-61221904D01*
X171085095Y-60936190D01*
X171132714Y-60840952D01*
X171180333Y-60793333D01*
X171275571Y-60745714D01*
X171466047Y-60745714D01*
X171561285Y-60793333D01*
X172466047Y-61412380D02*
X172466047Y-60888571D01*
X172418428Y-60793333D01*
X172323190Y-60745714D01*
X172132714Y-60745714D01*
X172037476Y-60793333D01*
X172466047Y-61364761D02*
X172370809Y-61412380D01*
X172132714Y-61412380D01*
X172037476Y-61364761D01*
X171989857Y-61269523D01*
X171989857Y-61174285D01*
X172037476Y-61079047D01*
X172132714Y-61031428D01*
X172370809Y-61031428D01*
X172466047Y-60983809D01*
X172942238Y-60745714D02*
X172942238Y-61745714D01*
X172942238Y-60793333D02*
X173037476Y-60745714D01*
X173227952Y-60745714D01*
X173323190Y-60793333D01*
X173370809Y-60840952D01*
X173418428Y-60936190D01*
X173418428Y-61221904D01*
X173370809Y-61317142D01*
X173323190Y-61364761D01*
X173227952Y-61412380D01*
X173037476Y-61412380D01*
X172942238Y-61364761D01*
X173704142Y-60745714D02*
X174085095Y-60745714D01*
X173847000Y-60412380D02*
X173847000Y-61269523D01*
X173894619Y-61364761D01*
X173989857Y-61412380D01*
X174085095Y-61412380D01*
X174799380Y-61364761D02*
X174704142Y-61412380D01*
X174513666Y-61412380D01*
X174418428Y-61364761D01*
X174370809Y-61269523D01*
X174370809Y-60888571D01*
X174418428Y-60793333D01*
X174513666Y-60745714D01*
X174704142Y-60745714D01*
X174799380Y-60793333D01*
X174847000Y-60888571D01*
X174847000Y-60983809D01*
X174370809Y-61079047D01*
X175275571Y-61412380D02*
X175275571Y-60745714D01*
X175275571Y-60936190D02*
X175323190Y-60840952D01*
X175370809Y-60793333D01*
X175466047Y-60745714D01*
X175561285Y-60745714D01*
X169704142Y-63062380D02*
X169132714Y-63062380D01*
X169418428Y-63062380D02*
X169418428Y-62062380D01*
X169323190Y-62205238D01*
X169227952Y-62300476D01*
X169132714Y-62348095D01*
X170561285Y-62062380D02*
X170370809Y-62062380D01*
X170275571Y-62110000D01*
X170227952Y-62157619D01*
X170132714Y-62300476D01*
X170085095Y-62490952D01*
X170085095Y-62871904D01*
X170132714Y-62967142D01*
X170180333Y-63014761D01*
X170275571Y-63062380D01*
X170466047Y-63062380D01*
X170561285Y-63014761D01*
X170608904Y-62967142D01*
X170656523Y-62871904D01*
X170656523Y-62633809D01*
X170608904Y-62538571D01*
X170561285Y-62490952D01*
X170466047Y-62443333D01*
X170275571Y-62443333D01*
X170180333Y-62490952D01*
X170132714Y-62538571D01*
X170085095Y-62633809D01*
X171085095Y-63062380D02*
X171085095Y-62062380D01*
X171085095Y-62443333D02*
X171180333Y-62395714D01*
X171370809Y-62395714D01*
X171466047Y-62443333D01*
X171513666Y-62490952D01*
X171561285Y-62586190D01*
X171561285Y-62871904D01*
X171513666Y-62967142D01*
X171466047Y-63014761D01*
X171370809Y-63062380D01*
X171180333Y-63062380D01*
X171085095Y-63014761D01*
X171989857Y-63062380D02*
X171989857Y-62395714D01*
X171989857Y-62062380D02*
X171942238Y-62110000D01*
X171989857Y-62157619D01*
X172037476Y-62110000D01*
X171989857Y-62062380D01*
X171989857Y-62157619D01*
X172323190Y-62395714D02*
X172704142Y-62395714D01*
X172466047Y-62062380D02*
X172466047Y-62919523D01*
X172513666Y-63014761D01*
X172608904Y-63062380D01*
X172704142Y-63062380D01*
X174370809Y-63062380D02*
X174037476Y-62586190D01*
X173799380Y-63062380D02*
X173799380Y-62062380D01*
X174180333Y-62062380D01*
X174275571Y-62110000D01*
X174323190Y-62157619D01*
X174370809Y-62252857D01*
X174370809Y-62395714D01*
X174323190Y-62490952D01*
X174275571Y-62538571D01*
X174180333Y-62586190D01*
X173799380Y-62586190D01*
X174989857Y-62062380D02*
X175180333Y-62062380D01*
X175275571Y-62110000D01*
X175370809Y-62205238D01*
X175418428Y-62395714D01*
X175418428Y-62729047D01*
X175370809Y-62919523D01*
X175275571Y-63014761D01*
X175180333Y-63062380D01*
X174989857Y-63062380D01*
X174894619Y-63014761D01*
X174799380Y-62919523D01*
X174751761Y-62729047D01*
X174751761Y-62395714D01*
X174799380Y-62205238D01*
X174894619Y-62110000D01*
X174989857Y-62062380D01*
X175847000Y-63062380D02*
X175847000Y-62062380D01*
X176180333Y-62776666D01*
X176513666Y-62062380D01*
X176513666Y-63062380D01*
D11*
X173779001Y-52569001D02*
G75*
G02X171779001Y-52569001I-1000000J0D01*
G01*
X171779001Y-52569001D02*
X166319001Y-52569001D01*
X166319001Y-52569001D02*
X166319001Y-103489001D01*
X166319001Y-103489001D02*
X179239001Y-103489001D01*
X179239001Y-103489001D02*
X179239001Y-52569001D01*
X179239001Y-52569001D02*
X173779001Y-52569001D01*
X173517779Y-66550000D02*
X173192221Y-66550000D01*
X173517779Y-65530000D02*
X173192221Y-65530000D01*
X171770800Y-67448800D02*
X161920800Y-67448800D01*
X161920800Y-67448800D02*
X160920800Y-68448800D01*
X160920800Y-68448800D02*
X160920800Y-91148800D01*
X160920800Y-91148800D02*
X184620800Y-91148800D01*
X184620800Y-91148800D02*
X184620800Y-67448800D01*
X184620800Y-67448800D02*
X173770800Y-67448800D01*
M02*
