G04 #@! TF.GenerationSoftware,KiCad,Pcbnew,(5.1.5)-3*
G04 #@! TF.CreationDate,2020-05-16T12:59:48+02:00*
G04 #@! TF.ProjectId,plcc44_adapter,706c6363-3434-45f6-9164-61707465722e,1.0*
G04 #@! TF.SameCoordinates,Original*
G04 #@! TF.FileFunction,Copper,L1,Top*
G04 #@! TF.FilePolarity,Positive*
%FSLAX46Y46*%
G04 Gerber Fmt 4.6, Leading zero omitted, Abs format (unit mm)*
G04 Created by KiCad (PCBNEW (5.1.5)-3) date 2020-05-16 12:59:48*
%MOMM*%
%LPD*%
G04 APERTURE LIST*
%ADD10R,1.600000X1.600000*%
%ADD11O,1.600000X1.600000*%
%ADD12O,1.400000X1.400000*%
%ADD13C,0.100000*%
%ADD14R,1.422400X1.422400*%
%ADD15C,1.422400*%
%ADD16O,1.700000X1.422400*%
%ADD17C,0.800000*%
%ADD18C,0.250000*%
%ADD19C,0.400000*%
%ADD20C,0.254000*%
G04 APERTURE END LIST*
D10*
X165159001Y-53899001D03*
D11*
X180399001Y-102159001D03*
X165159001Y-56439001D03*
X180399001Y-99619001D03*
X165159001Y-58979001D03*
X180399001Y-97079001D03*
X165159001Y-61519001D03*
X180399001Y-94539001D03*
X165159001Y-64059001D03*
X180399001Y-91999001D03*
X165159001Y-66599001D03*
D12*
X180399001Y-89459001D03*
X165159001Y-69139001D03*
X180399001Y-86919001D03*
X165159001Y-71679001D03*
X180399001Y-84379001D03*
X165159001Y-74219001D03*
X180399001Y-81839001D03*
X165159001Y-76759001D03*
X180399001Y-79299001D03*
X165159001Y-79299001D03*
X180399001Y-76759001D03*
X165159001Y-81839001D03*
X180399001Y-74219001D03*
X165159001Y-84379001D03*
X180399001Y-71679001D03*
X165159001Y-86919001D03*
X180399001Y-69139001D03*
X165159001Y-89459001D03*
D11*
X180399001Y-66599001D03*
X165159001Y-91999001D03*
X180399001Y-64059001D03*
X165159001Y-94539001D03*
X180399001Y-61519001D03*
X165159001Y-97079001D03*
X180399001Y-58979001D03*
X165159001Y-99619001D03*
X180399001Y-56439001D03*
X165159001Y-102159001D03*
X180399001Y-53899001D03*
G04 #@! TA.AperFunction,SMDPad,CuDef*
D13*
G36*
X174382691Y-65566053D02*
G01*
X174403926Y-65569203D01*
X174424750Y-65574419D01*
X174444962Y-65581651D01*
X174464368Y-65590830D01*
X174482781Y-65601866D01*
X174500024Y-65614654D01*
X174515930Y-65629070D01*
X174530346Y-65644976D01*
X174543134Y-65662219D01*
X174554170Y-65680632D01*
X174563349Y-65700038D01*
X174570581Y-65720250D01*
X174575797Y-65741074D01*
X174578947Y-65762309D01*
X174580000Y-65783750D01*
X174580000Y-66296250D01*
X174578947Y-66317691D01*
X174575797Y-66338926D01*
X174570581Y-66359750D01*
X174563349Y-66379962D01*
X174554170Y-66399368D01*
X174543134Y-66417781D01*
X174530346Y-66435024D01*
X174515930Y-66450930D01*
X174500024Y-66465346D01*
X174482781Y-66478134D01*
X174464368Y-66489170D01*
X174444962Y-66498349D01*
X174424750Y-66505581D01*
X174403926Y-66510797D01*
X174382691Y-66513947D01*
X174361250Y-66515000D01*
X173923750Y-66515000D01*
X173902309Y-66513947D01*
X173881074Y-66510797D01*
X173860250Y-66505581D01*
X173840038Y-66498349D01*
X173820632Y-66489170D01*
X173802219Y-66478134D01*
X173784976Y-66465346D01*
X173769070Y-66450930D01*
X173754654Y-66435024D01*
X173741866Y-66417781D01*
X173730830Y-66399368D01*
X173721651Y-66379962D01*
X173714419Y-66359750D01*
X173709203Y-66338926D01*
X173706053Y-66317691D01*
X173705000Y-66296250D01*
X173705000Y-65783750D01*
X173706053Y-65762309D01*
X173709203Y-65741074D01*
X173714419Y-65720250D01*
X173721651Y-65700038D01*
X173730830Y-65680632D01*
X173741866Y-65662219D01*
X173754654Y-65644976D01*
X173769070Y-65629070D01*
X173784976Y-65614654D01*
X173802219Y-65601866D01*
X173820632Y-65590830D01*
X173840038Y-65581651D01*
X173860250Y-65574419D01*
X173881074Y-65569203D01*
X173902309Y-65566053D01*
X173923750Y-65565000D01*
X174361250Y-65565000D01*
X174382691Y-65566053D01*
G37*
G04 #@! TD.AperFunction*
G04 #@! TA.AperFunction,SMDPad,CuDef*
G36*
X172807691Y-65566053D02*
G01*
X172828926Y-65569203D01*
X172849750Y-65574419D01*
X172869962Y-65581651D01*
X172889368Y-65590830D01*
X172907781Y-65601866D01*
X172925024Y-65614654D01*
X172940930Y-65629070D01*
X172955346Y-65644976D01*
X172968134Y-65662219D01*
X172979170Y-65680632D01*
X172988349Y-65700038D01*
X172995581Y-65720250D01*
X173000797Y-65741074D01*
X173003947Y-65762309D01*
X173005000Y-65783750D01*
X173005000Y-66296250D01*
X173003947Y-66317691D01*
X173000797Y-66338926D01*
X172995581Y-66359750D01*
X172988349Y-66379962D01*
X172979170Y-66399368D01*
X172968134Y-66417781D01*
X172955346Y-66435024D01*
X172940930Y-66450930D01*
X172925024Y-66465346D01*
X172907781Y-66478134D01*
X172889368Y-66489170D01*
X172869962Y-66498349D01*
X172849750Y-66505581D01*
X172828926Y-66510797D01*
X172807691Y-66513947D01*
X172786250Y-66515000D01*
X172348750Y-66515000D01*
X172327309Y-66513947D01*
X172306074Y-66510797D01*
X172285250Y-66505581D01*
X172265038Y-66498349D01*
X172245632Y-66489170D01*
X172227219Y-66478134D01*
X172209976Y-66465346D01*
X172194070Y-66450930D01*
X172179654Y-66435024D01*
X172166866Y-66417781D01*
X172155830Y-66399368D01*
X172146651Y-66379962D01*
X172139419Y-66359750D01*
X172134203Y-66338926D01*
X172131053Y-66317691D01*
X172130000Y-66296250D01*
X172130000Y-65783750D01*
X172131053Y-65762309D01*
X172134203Y-65741074D01*
X172139419Y-65720250D01*
X172146651Y-65700038D01*
X172155830Y-65680632D01*
X172166866Y-65662219D01*
X172179654Y-65644976D01*
X172194070Y-65629070D01*
X172209976Y-65614654D01*
X172227219Y-65601866D01*
X172245632Y-65590830D01*
X172265038Y-65581651D01*
X172285250Y-65574419D01*
X172306074Y-65569203D01*
X172327309Y-65566053D01*
X172348750Y-65565000D01*
X172786250Y-65565000D01*
X172807691Y-65566053D01*
G37*
G04 #@! TD.AperFunction*
D14*
X174040800Y-72948800D03*
D15*
X171500800Y-72948800D03*
X168960800Y-72948800D03*
X176580800Y-72948800D03*
D16*
X178970800Y-72948800D03*
D15*
X171500800Y-70408800D03*
X168960800Y-70408800D03*
D16*
X166570800Y-70408800D03*
D15*
X174040800Y-70408800D03*
X176580800Y-70408800D03*
D16*
X166570800Y-72948800D03*
X166570800Y-75488800D03*
X166570800Y-78028800D03*
X166570800Y-80568800D03*
X166570800Y-83108800D03*
X163730800Y-72948800D03*
X163730800Y-75488800D03*
X163730800Y-78028800D03*
X163730800Y-80568800D03*
X163730800Y-83108800D03*
X163730800Y-85648800D03*
X166570800Y-85648800D03*
D15*
X168960800Y-85648800D03*
X171500800Y-85648800D03*
X174040800Y-85648800D03*
X176580800Y-85648800D03*
D16*
X181810800Y-85648800D03*
X166570800Y-88188800D03*
D15*
X168960800Y-88188800D03*
X171500800Y-88188800D03*
X174040800Y-88188800D03*
X176580800Y-88188800D03*
D16*
X178970800Y-88188800D03*
X178970800Y-85648800D03*
X178970800Y-83108800D03*
X178970800Y-80568800D03*
X178970800Y-78028800D03*
X178970800Y-75488800D03*
X178970800Y-70408800D03*
X181810800Y-83108800D03*
X181810800Y-80568800D03*
X181810800Y-78028800D03*
X181810800Y-75488800D03*
X181810800Y-72948800D03*
D17*
X173990000Y-64770000D03*
D18*
X167131999Y-72237601D02*
X166420800Y-72948800D01*
X167745810Y-71623790D02*
X166420800Y-72948800D01*
X166905223Y-69139001D02*
X167745810Y-69979588D01*
X167745810Y-69979588D02*
X167745810Y-71623790D01*
X165159001Y-69139001D02*
X166905223Y-69139001D01*
X167131999Y-83819999D02*
X166420800Y-83108800D01*
X165159001Y-86919001D02*
X166684177Y-86919001D01*
X166148950Y-86919001D02*
X165159001Y-86919001D01*
X167745810Y-86078012D02*
X166904821Y-86919001D01*
X167745810Y-84433810D02*
X167745810Y-86078012D01*
X166904821Y-86919001D02*
X166148950Y-86919001D01*
X166420800Y-83108800D02*
X167745810Y-84433810D01*
X162555790Y-74163790D02*
X163880800Y-75488800D01*
X162555790Y-72519588D02*
X162555790Y-74163790D01*
X163396377Y-71679001D02*
X162555790Y-72519588D01*
X165159001Y-71679001D02*
X163396377Y-71679001D01*
X178409601Y-74777601D02*
X179120800Y-75488800D01*
X180399001Y-69139001D02*
X178857021Y-69139001D01*
X177795790Y-74163790D02*
X179120800Y-75488800D01*
X177795790Y-69979588D02*
X177795790Y-74163790D01*
X178636377Y-69139001D02*
X177795790Y-69979588D01*
X180399001Y-69139001D02*
X178636377Y-69139001D01*
X182985810Y-72519588D02*
X182985810Y-74163790D01*
X182985810Y-74163790D02*
X181660800Y-75488800D01*
X182145223Y-71679001D02*
X182985810Y-72519588D01*
X180399001Y-71679001D02*
X182145223Y-71679001D01*
D19*
X179129202Y-80568800D02*
X180399001Y-79299001D01*
X179120800Y-80568800D02*
X179129202Y-80568800D01*
X165159001Y-79290599D02*
X166420800Y-78028800D01*
X165159001Y-79299001D02*
X165159001Y-79290599D01*
D18*
X174142500Y-70307100D02*
X174040800Y-70408800D01*
X174040800Y-66141700D02*
X174142500Y-66040000D01*
X174040800Y-70408800D02*
X174040800Y-66141700D01*
X173990000Y-65887500D02*
X174142500Y-66040000D01*
X173990000Y-64770000D02*
X173990000Y-65887500D01*
D20*
G36*
X185014000Y-103734000D02*
G01*
X160426000Y-103734000D01*
X160426000Y-102042683D01*
X163978001Y-102042683D01*
X163978001Y-102275319D01*
X164023387Y-102503486D01*
X164112413Y-102718414D01*
X164241659Y-102911844D01*
X164406158Y-103076343D01*
X164599588Y-103205589D01*
X164814516Y-103294615D01*
X165042683Y-103340001D01*
X165275319Y-103340001D01*
X165503486Y-103294615D01*
X165718414Y-103205589D01*
X165911844Y-103076343D01*
X166076343Y-102911844D01*
X166205589Y-102718414D01*
X166294615Y-102503486D01*
X166340001Y-102275319D01*
X166340001Y-102042683D01*
X179218001Y-102042683D01*
X179218001Y-102275319D01*
X179263387Y-102503486D01*
X179352413Y-102718414D01*
X179481659Y-102911844D01*
X179646158Y-103076343D01*
X179839588Y-103205589D01*
X180054516Y-103294615D01*
X180282683Y-103340001D01*
X180515319Y-103340001D01*
X180743486Y-103294615D01*
X180958414Y-103205589D01*
X181151844Y-103076343D01*
X181316343Y-102911844D01*
X181445589Y-102718414D01*
X181534615Y-102503486D01*
X181580001Y-102275319D01*
X181580001Y-102042683D01*
X181534615Y-101814516D01*
X181445589Y-101599588D01*
X181316343Y-101406158D01*
X181151844Y-101241659D01*
X180958414Y-101112413D01*
X180743486Y-101023387D01*
X180515319Y-100978001D01*
X180282683Y-100978001D01*
X180054516Y-101023387D01*
X179839588Y-101112413D01*
X179646158Y-101241659D01*
X179481659Y-101406158D01*
X179352413Y-101599588D01*
X179263387Y-101814516D01*
X179218001Y-102042683D01*
X166340001Y-102042683D01*
X166294615Y-101814516D01*
X166205589Y-101599588D01*
X166076343Y-101406158D01*
X165911844Y-101241659D01*
X165718414Y-101112413D01*
X165503486Y-101023387D01*
X165275319Y-100978001D01*
X165042683Y-100978001D01*
X164814516Y-101023387D01*
X164599588Y-101112413D01*
X164406158Y-101241659D01*
X164241659Y-101406158D01*
X164112413Y-101599588D01*
X164023387Y-101814516D01*
X163978001Y-102042683D01*
X160426000Y-102042683D01*
X160426000Y-99502683D01*
X163978001Y-99502683D01*
X163978001Y-99735319D01*
X164023387Y-99963486D01*
X164112413Y-100178414D01*
X164241659Y-100371844D01*
X164406158Y-100536343D01*
X164599588Y-100665589D01*
X164814516Y-100754615D01*
X165042683Y-100800001D01*
X165275319Y-100800001D01*
X165503486Y-100754615D01*
X165718414Y-100665589D01*
X165911844Y-100536343D01*
X166076343Y-100371844D01*
X166205589Y-100178414D01*
X166294615Y-99963486D01*
X166340001Y-99735319D01*
X166340001Y-99502683D01*
X179218001Y-99502683D01*
X179218001Y-99735319D01*
X179263387Y-99963486D01*
X179352413Y-100178414D01*
X179481659Y-100371844D01*
X179646158Y-100536343D01*
X179839588Y-100665589D01*
X180054516Y-100754615D01*
X180282683Y-100800001D01*
X180515319Y-100800001D01*
X180743486Y-100754615D01*
X180958414Y-100665589D01*
X181151844Y-100536343D01*
X181316343Y-100371844D01*
X181445589Y-100178414D01*
X181534615Y-99963486D01*
X181580001Y-99735319D01*
X181580001Y-99502683D01*
X181534615Y-99274516D01*
X181445589Y-99059588D01*
X181316343Y-98866158D01*
X181151844Y-98701659D01*
X180958414Y-98572413D01*
X180743486Y-98483387D01*
X180515319Y-98438001D01*
X180282683Y-98438001D01*
X180054516Y-98483387D01*
X179839588Y-98572413D01*
X179646158Y-98701659D01*
X179481659Y-98866158D01*
X179352413Y-99059588D01*
X179263387Y-99274516D01*
X179218001Y-99502683D01*
X166340001Y-99502683D01*
X166294615Y-99274516D01*
X166205589Y-99059588D01*
X166076343Y-98866158D01*
X165911844Y-98701659D01*
X165718414Y-98572413D01*
X165503486Y-98483387D01*
X165275319Y-98438001D01*
X165042683Y-98438001D01*
X164814516Y-98483387D01*
X164599588Y-98572413D01*
X164406158Y-98701659D01*
X164241659Y-98866158D01*
X164112413Y-99059588D01*
X164023387Y-99274516D01*
X163978001Y-99502683D01*
X160426000Y-99502683D01*
X160426000Y-96962683D01*
X163978001Y-96962683D01*
X163978001Y-97195319D01*
X164023387Y-97423486D01*
X164112413Y-97638414D01*
X164241659Y-97831844D01*
X164406158Y-97996343D01*
X164599588Y-98125589D01*
X164814516Y-98214615D01*
X165042683Y-98260001D01*
X165275319Y-98260001D01*
X165503486Y-98214615D01*
X165718414Y-98125589D01*
X165911844Y-97996343D01*
X166076343Y-97831844D01*
X166205589Y-97638414D01*
X166294615Y-97423486D01*
X166340001Y-97195319D01*
X166340001Y-96962683D01*
X179218001Y-96962683D01*
X179218001Y-97195319D01*
X179263387Y-97423486D01*
X179352413Y-97638414D01*
X179481659Y-97831844D01*
X179646158Y-97996343D01*
X179839588Y-98125589D01*
X180054516Y-98214615D01*
X180282683Y-98260001D01*
X180515319Y-98260001D01*
X180743486Y-98214615D01*
X180958414Y-98125589D01*
X181151844Y-97996343D01*
X181316343Y-97831844D01*
X181445589Y-97638414D01*
X181534615Y-97423486D01*
X181580001Y-97195319D01*
X181580001Y-96962683D01*
X181534615Y-96734516D01*
X181445589Y-96519588D01*
X181316343Y-96326158D01*
X181151844Y-96161659D01*
X180958414Y-96032413D01*
X180743486Y-95943387D01*
X180515319Y-95898001D01*
X180282683Y-95898001D01*
X180054516Y-95943387D01*
X179839588Y-96032413D01*
X179646158Y-96161659D01*
X179481659Y-96326158D01*
X179352413Y-96519588D01*
X179263387Y-96734516D01*
X179218001Y-96962683D01*
X166340001Y-96962683D01*
X166294615Y-96734516D01*
X166205589Y-96519588D01*
X166076343Y-96326158D01*
X165911844Y-96161659D01*
X165718414Y-96032413D01*
X165503486Y-95943387D01*
X165275319Y-95898001D01*
X165042683Y-95898001D01*
X164814516Y-95943387D01*
X164599588Y-96032413D01*
X164406158Y-96161659D01*
X164241659Y-96326158D01*
X164112413Y-96519588D01*
X164023387Y-96734516D01*
X163978001Y-96962683D01*
X160426000Y-96962683D01*
X160426000Y-94422683D01*
X163978001Y-94422683D01*
X163978001Y-94655319D01*
X164023387Y-94883486D01*
X164112413Y-95098414D01*
X164241659Y-95291844D01*
X164406158Y-95456343D01*
X164599588Y-95585589D01*
X164814516Y-95674615D01*
X165042683Y-95720001D01*
X165275319Y-95720001D01*
X165503486Y-95674615D01*
X165718414Y-95585589D01*
X165911844Y-95456343D01*
X166076343Y-95291844D01*
X166205589Y-95098414D01*
X166294615Y-94883486D01*
X166340001Y-94655319D01*
X166340001Y-94422683D01*
X179218001Y-94422683D01*
X179218001Y-94655319D01*
X179263387Y-94883486D01*
X179352413Y-95098414D01*
X179481659Y-95291844D01*
X179646158Y-95456343D01*
X179839588Y-95585589D01*
X180054516Y-95674615D01*
X180282683Y-95720001D01*
X180515319Y-95720001D01*
X180743486Y-95674615D01*
X180958414Y-95585589D01*
X181151844Y-95456343D01*
X181316343Y-95291844D01*
X181445589Y-95098414D01*
X181534615Y-94883486D01*
X181580001Y-94655319D01*
X181580001Y-94422683D01*
X181534615Y-94194516D01*
X181445589Y-93979588D01*
X181316343Y-93786158D01*
X181151844Y-93621659D01*
X180958414Y-93492413D01*
X180743486Y-93403387D01*
X180515319Y-93358001D01*
X180282683Y-93358001D01*
X180054516Y-93403387D01*
X179839588Y-93492413D01*
X179646158Y-93621659D01*
X179481659Y-93786158D01*
X179352413Y-93979588D01*
X179263387Y-94194516D01*
X179218001Y-94422683D01*
X166340001Y-94422683D01*
X166294615Y-94194516D01*
X166205589Y-93979588D01*
X166076343Y-93786158D01*
X165911844Y-93621659D01*
X165718414Y-93492413D01*
X165503486Y-93403387D01*
X165275319Y-93358001D01*
X165042683Y-93358001D01*
X164814516Y-93403387D01*
X164599588Y-93492413D01*
X164406158Y-93621659D01*
X164241659Y-93786158D01*
X164112413Y-93979588D01*
X164023387Y-94194516D01*
X163978001Y-94422683D01*
X160426000Y-94422683D01*
X160426000Y-91882683D01*
X163978001Y-91882683D01*
X163978001Y-92115319D01*
X164023387Y-92343486D01*
X164112413Y-92558414D01*
X164241659Y-92751844D01*
X164406158Y-92916343D01*
X164599588Y-93045589D01*
X164814516Y-93134615D01*
X165042683Y-93180001D01*
X165275319Y-93180001D01*
X165503486Y-93134615D01*
X165718414Y-93045589D01*
X165911844Y-92916343D01*
X166076343Y-92751844D01*
X166205589Y-92558414D01*
X166294615Y-92343486D01*
X166340001Y-92115319D01*
X166340001Y-91882683D01*
X179218001Y-91882683D01*
X179218001Y-92115319D01*
X179263387Y-92343486D01*
X179352413Y-92558414D01*
X179481659Y-92751844D01*
X179646158Y-92916343D01*
X179839588Y-93045589D01*
X180054516Y-93134615D01*
X180282683Y-93180001D01*
X180515319Y-93180001D01*
X180743486Y-93134615D01*
X180958414Y-93045589D01*
X181151844Y-92916343D01*
X181316343Y-92751844D01*
X181445589Y-92558414D01*
X181534615Y-92343486D01*
X181580001Y-92115319D01*
X181580001Y-91882683D01*
X181534615Y-91654516D01*
X181445589Y-91439588D01*
X181316343Y-91246158D01*
X181151844Y-91081659D01*
X180958414Y-90952413D01*
X180743486Y-90863387D01*
X180515319Y-90818001D01*
X180282683Y-90818001D01*
X180054516Y-90863387D01*
X179839588Y-90952413D01*
X179646158Y-91081659D01*
X179481659Y-91246158D01*
X179352413Y-91439588D01*
X179263387Y-91654516D01*
X179218001Y-91882683D01*
X166340001Y-91882683D01*
X166294615Y-91654516D01*
X166205589Y-91439588D01*
X166076343Y-91246158D01*
X165911844Y-91081659D01*
X165718414Y-90952413D01*
X165503486Y-90863387D01*
X165275319Y-90818001D01*
X165042683Y-90818001D01*
X164814516Y-90863387D01*
X164599588Y-90952413D01*
X164406158Y-91081659D01*
X164241659Y-91246158D01*
X164112413Y-91439588D01*
X164023387Y-91654516D01*
X163978001Y-91882683D01*
X160426000Y-91882683D01*
X160426000Y-80568800D01*
X162494516Y-80568800D01*
X162515604Y-80782909D01*
X162578057Y-80988789D01*
X162679475Y-81178529D01*
X162815962Y-81344838D01*
X162982271Y-81481325D01*
X163172011Y-81582743D01*
X163377891Y-81645196D01*
X163538351Y-81661000D01*
X163923249Y-81661000D01*
X164083709Y-81645196D01*
X164096123Y-81641430D01*
X164078001Y-81732532D01*
X164078001Y-81945470D01*
X164096037Y-82036144D01*
X164083709Y-82032404D01*
X163923249Y-82016600D01*
X163538351Y-82016600D01*
X163377891Y-82032404D01*
X163172011Y-82094857D01*
X162982271Y-82196275D01*
X162815962Y-82332762D01*
X162679475Y-82499071D01*
X162578057Y-82688811D01*
X162515604Y-82894691D01*
X162494516Y-83108800D01*
X162515604Y-83322909D01*
X162578057Y-83528789D01*
X162679475Y-83718529D01*
X162815962Y-83884838D01*
X162982271Y-84021325D01*
X163172011Y-84122743D01*
X163377891Y-84185196D01*
X163538351Y-84201000D01*
X163923249Y-84201000D01*
X164083709Y-84185196D01*
X164096123Y-84181430D01*
X164078001Y-84272532D01*
X164078001Y-84485470D01*
X164096037Y-84576144D01*
X164083709Y-84572404D01*
X163923249Y-84556600D01*
X163538351Y-84556600D01*
X163377891Y-84572404D01*
X163172011Y-84634857D01*
X162982271Y-84736275D01*
X162815962Y-84872762D01*
X162679475Y-85039071D01*
X162578057Y-85228811D01*
X162515604Y-85434691D01*
X162494516Y-85648800D01*
X162515604Y-85862909D01*
X162578057Y-86068789D01*
X162679475Y-86258529D01*
X162815962Y-86424838D01*
X162982271Y-86561325D01*
X163172011Y-86662743D01*
X163377891Y-86725196D01*
X163538351Y-86741000D01*
X163923249Y-86741000D01*
X164083709Y-86725196D01*
X164096123Y-86721430D01*
X164078001Y-86812532D01*
X164078001Y-87025470D01*
X164119544Y-87234317D01*
X164201032Y-87431046D01*
X164319334Y-87608098D01*
X164469904Y-87758668D01*
X164646956Y-87876970D01*
X164843685Y-87958458D01*
X165052532Y-88000001D01*
X165265470Y-88000001D01*
X165354863Y-87982219D01*
X165334516Y-88188800D01*
X165354903Y-88395791D01*
X165265470Y-88378001D01*
X165052532Y-88378001D01*
X164843685Y-88419544D01*
X164646956Y-88501032D01*
X164469904Y-88619334D01*
X164319334Y-88769904D01*
X164201032Y-88946956D01*
X164119544Y-89143685D01*
X164078001Y-89352532D01*
X164078001Y-89565470D01*
X164119544Y-89774317D01*
X164201032Y-89971046D01*
X164319334Y-90148098D01*
X164469904Y-90298668D01*
X164646956Y-90416970D01*
X164843685Y-90498458D01*
X165052532Y-90540001D01*
X165265470Y-90540001D01*
X165474317Y-90498458D01*
X165671046Y-90416970D01*
X165848098Y-90298668D01*
X165998668Y-90148098D01*
X166116970Y-89971046D01*
X166198458Y-89774317D01*
X166240001Y-89565470D01*
X166240001Y-89352532D01*
X166222723Y-89265672D01*
X166378351Y-89281000D01*
X166763249Y-89281000D01*
X166923709Y-89265196D01*
X167129589Y-89202743D01*
X167319329Y-89101325D01*
X167485638Y-88964838D01*
X167622125Y-88798529D01*
X167723543Y-88608789D01*
X167785996Y-88402909D01*
X167807084Y-88188800D01*
X167796490Y-88081228D01*
X167868600Y-88081228D01*
X167868600Y-88296372D01*
X167910572Y-88507383D01*
X167992905Y-88706151D01*
X168112433Y-88885037D01*
X168264563Y-89037167D01*
X168443449Y-89156695D01*
X168642217Y-89239028D01*
X168853228Y-89281000D01*
X169068372Y-89281000D01*
X169279383Y-89239028D01*
X169478151Y-89156695D01*
X169657037Y-89037167D01*
X169809167Y-88885037D01*
X169928695Y-88706151D01*
X170011028Y-88507383D01*
X170053000Y-88296372D01*
X170053000Y-88081228D01*
X170408600Y-88081228D01*
X170408600Y-88296372D01*
X170450572Y-88507383D01*
X170532905Y-88706151D01*
X170652433Y-88885037D01*
X170804563Y-89037167D01*
X170983449Y-89156695D01*
X171182217Y-89239028D01*
X171393228Y-89281000D01*
X171608372Y-89281000D01*
X171819383Y-89239028D01*
X172018151Y-89156695D01*
X172197037Y-89037167D01*
X172349167Y-88885037D01*
X172468695Y-88706151D01*
X172551028Y-88507383D01*
X172593000Y-88296372D01*
X172593000Y-88081228D01*
X172948600Y-88081228D01*
X172948600Y-88296372D01*
X172990572Y-88507383D01*
X173072905Y-88706151D01*
X173192433Y-88885037D01*
X173344563Y-89037167D01*
X173523449Y-89156695D01*
X173722217Y-89239028D01*
X173933228Y-89281000D01*
X174148372Y-89281000D01*
X174359383Y-89239028D01*
X174558151Y-89156695D01*
X174737037Y-89037167D01*
X174889167Y-88885037D01*
X175008695Y-88706151D01*
X175091028Y-88507383D01*
X175133000Y-88296372D01*
X175133000Y-88081228D01*
X175488600Y-88081228D01*
X175488600Y-88296372D01*
X175530572Y-88507383D01*
X175612905Y-88706151D01*
X175732433Y-88885037D01*
X175884563Y-89037167D01*
X176063449Y-89156695D01*
X176262217Y-89239028D01*
X176473228Y-89281000D01*
X176688372Y-89281000D01*
X176899383Y-89239028D01*
X177098151Y-89156695D01*
X177277037Y-89037167D01*
X177429167Y-88885037D01*
X177548695Y-88706151D01*
X177631028Y-88507383D01*
X177673000Y-88296372D01*
X177673000Y-88081228D01*
X177631028Y-87870217D01*
X177548695Y-87671449D01*
X177429167Y-87492563D01*
X177277037Y-87340433D01*
X177098151Y-87220905D01*
X176899383Y-87138572D01*
X176688372Y-87096600D01*
X176473228Y-87096600D01*
X176262217Y-87138572D01*
X176063449Y-87220905D01*
X175884563Y-87340433D01*
X175732433Y-87492563D01*
X175612905Y-87671449D01*
X175530572Y-87870217D01*
X175488600Y-88081228D01*
X175133000Y-88081228D01*
X175091028Y-87870217D01*
X175008695Y-87671449D01*
X174889167Y-87492563D01*
X174737037Y-87340433D01*
X174558151Y-87220905D01*
X174359383Y-87138572D01*
X174148372Y-87096600D01*
X173933228Y-87096600D01*
X173722217Y-87138572D01*
X173523449Y-87220905D01*
X173344563Y-87340433D01*
X173192433Y-87492563D01*
X173072905Y-87671449D01*
X172990572Y-87870217D01*
X172948600Y-88081228D01*
X172593000Y-88081228D01*
X172551028Y-87870217D01*
X172468695Y-87671449D01*
X172349167Y-87492563D01*
X172197037Y-87340433D01*
X172018151Y-87220905D01*
X171819383Y-87138572D01*
X171608372Y-87096600D01*
X171393228Y-87096600D01*
X171182217Y-87138572D01*
X170983449Y-87220905D01*
X170804563Y-87340433D01*
X170652433Y-87492563D01*
X170532905Y-87671449D01*
X170450572Y-87870217D01*
X170408600Y-88081228D01*
X170053000Y-88081228D01*
X170011028Y-87870217D01*
X169928695Y-87671449D01*
X169809167Y-87492563D01*
X169657037Y-87340433D01*
X169478151Y-87220905D01*
X169279383Y-87138572D01*
X169068372Y-87096600D01*
X168853228Y-87096600D01*
X168642217Y-87138572D01*
X168443449Y-87220905D01*
X168264563Y-87340433D01*
X168112433Y-87492563D01*
X167992905Y-87671449D01*
X167910572Y-87870217D01*
X167868600Y-88081228D01*
X167796490Y-88081228D01*
X167785996Y-87974691D01*
X167723543Y-87768811D01*
X167622125Y-87579071D01*
X167485638Y-87412762D01*
X167319329Y-87276275D01*
X167282711Y-87256702D01*
X168086030Y-86453384D01*
X168105337Y-86437539D01*
X168150231Y-86382835D01*
X168264563Y-86497167D01*
X168443449Y-86616695D01*
X168642217Y-86699028D01*
X168853228Y-86741000D01*
X169068372Y-86741000D01*
X169279383Y-86699028D01*
X169478151Y-86616695D01*
X169657037Y-86497167D01*
X169809167Y-86345037D01*
X169928695Y-86166151D01*
X170011028Y-85967383D01*
X170053000Y-85756372D01*
X170053000Y-85541228D01*
X170408600Y-85541228D01*
X170408600Y-85756372D01*
X170450572Y-85967383D01*
X170532905Y-86166151D01*
X170652433Y-86345037D01*
X170804563Y-86497167D01*
X170983449Y-86616695D01*
X171182217Y-86699028D01*
X171393228Y-86741000D01*
X171608372Y-86741000D01*
X171819383Y-86699028D01*
X172018151Y-86616695D01*
X172197037Y-86497167D01*
X172349167Y-86345037D01*
X172468695Y-86166151D01*
X172551028Y-85967383D01*
X172593000Y-85756372D01*
X172593000Y-85541228D01*
X172948600Y-85541228D01*
X172948600Y-85756372D01*
X172990572Y-85967383D01*
X173072905Y-86166151D01*
X173192433Y-86345037D01*
X173344563Y-86497167D01*
X173523449Y-86616695D01*
X173722217Y-86699028D01*
X173933228Y-86741000D01*
X174148372Y-86741000D01*
X174359383Y-86699028D01*
X174558151Y-86616695D01*
X174737037Y-86497167D01*
X174889167Y-86345037D01*
X175008695Y-86166151D01*
X175091028Y-85967383D01*
X175133000Y-85756372D01*
X175133000Y-85541228D01*
X175488600Y-85541228D01*
X175488600Y-85756372D01*
X175530572Y-85967383D01*
X175612905Y-86166151D01*
X175732433Y-86345037D01*
X175884563Y-86497167D01*
X176063449Y-86616695D01*
X176262217Y-86699028D01*
X176473228Y-86741000D01*
X176688372Y-86741000D01*
X176899383Y-86699028D01*
X177098151Y-86616695D01*
X177277037Y-86497167D01*
X177429167Y-86345037D01*
X177548695Y-86166151D01*
X177631028Y-85967383D01*
X177673000Y-85756372D01*
X177673000Y-85541228D01*
X177631028Y-85330217D01*
X177548695Y-85131449D01*
X177429167Y-84952563D01*
X177277037Y-84800433D01*
X177098151Y-84680905D01*
X176899383Y-84598572D01*
X176688372Y-84556600D01*
X176473228Y-84556600D01*
X176262217Y-84598572D01*
X176063449Y-84680905D01*
X175884563Y-84800433D01*
X175732433Y-84952563D01*
X175612905Y-85131449D01*
X175530572Y-85330217D01*
X175488600Y-85541228D01*
X175133000Y-85541228D01*
X175091028Y-85330217D01*
X175008695Y-85131449D01*
X174889167Y-84952563D01*
X174737037Y-84800433D01*
X174558151Y-84680905D01*
X174359383Y-84598572D01*
X174148372Y-84556600D01*
X173933228Y-84556600D01*
X173722217Y-84598572D01*
X173523449Y-84680905D01*
X173344563Y-84800433D01*
X173192433Y-84952563D01*
X173072905Y-85131449D01*
X172990572Y-85330217D01*
X172948600Y-85541228D01*
X172593000Y-85541228D01*
X172551028Y-85330217D01*
X172468695Y-85131449D01*
X172349167Y-84952563D01*
X172197037Y-84800433D01*
X172018151Y-84680905D01*
X171819383Y-84598572D01*
X171608372Y-84556600D01*
X171393228Y-84556600D01*
X171182217Y-84598572D01*
X170983449Y-84680905D01*
X170804563Y-84800433D01*
X170652433Y-84952563D01*
X170532905Y-85131449D01*
X170450572Y-85330217D01*
X170408600Y-85541228D01*
X170053000Y-85541228D01*
X170011028Y-85330217D01*
X169928695Y-85131449D01*
X169809167Y-84952563D01*
X169657037Y-84800433D01*
X169478151Y-84680905D01*
X169279383Y-84598572D01*
X169068372Y-84556600D01*
X168853228Y-84556600D01*
X168642217Y-84598572D01*
X168443449Y-84680905D01*
X168264563Y-84800433D01*
X168251810Y-84813186D01*
X168251810Y-84458655D01*
X168254257Y-84433809D01*
X168251810Y-84408963D01*
X168251810Y-84408956D01*
X168244488Y-84334617D01*
X168215555Y-84239235D01*
X168168569Y-84151331D01*
X168105337Y-84074283D01*
X168086030Y-84058438D01*
X167665316Y-83637724D01*
X167723543Y-83528789D01*
X167785996Y-83322909D01*
X167807084Y-83108800D01*
X177734516Y-83108800D01*
X177755604Y-83322909D01*
X177818057Y-83528789D01*
X177919475Y-83718529D01*
X178055962Y-83884838D01*
X178222271Y-84021325D01*
X178412011Y-84122743D01*
X178617891Y-84185196D01*
X178778351Y-84201000D01*
X179163249Y-84201000D01*
X179323709Y-84185196D01*
X179336123Y-84181430D01*
X179318001Y-84272532D01*
X179318001Y-84485470D01*
X179336037Y-84576144D01*
X179323709Y-84572404D01*
X179163249Y-84556600D01*
X178778351Y-84556600D01*
X178617891Y-84572404D01*
X178412011Y-84634857D01*
X178222271Y-84736275D01*
X178055962Y-84872762D01*
X177919475Y-85039071D01*
X177818057Y-85228811D01*
X177755604Y-85434691D01*
X177734516Y-85648800D01*
X177755604Y-85862909D01*
X177818057Y-86068789D01*
X177919475Y-86258529D01*
X178055962Y-86424838D01*
X178222271Y-86561325D01*
X178412011Y-86662743D01*
X178617891Y-86725196D01*
X178778351Y-86741000D01*
X179163249Y-86741000D01*
X179323709Y-86725196D01*
X179336123Y-86721430D01*
X179318001Y-86812532D01*
X179318001Y-87025470D01*
X179336037Y-87116144D01*
X179323709Y-87112404D01*
X179163249Y-87096600D01*
X178778351Y-87096600D01*
X178617891Y-87112404D01*
X178412011Y-87174857D01*
X178222271Y-87276275D01*
X178055962Y-87412762D01*
X177919475Y-87579071D01*
X177818057Y-87768811D01*
X177755604Y-87974691D01*
X177734516Y-88188800D01*
X177755604Y-88402909D01*
X177818057Y-88608789D01*
X177919475Y-88798529D01*
X178055962Y-88964838D01*
X178222271Y-89101325D01*
X178412011Y-89202743D01*
X178617891Y-89265196D01*
X178778351Y-89281000D01*
X179163249Y-89281000D01*
X179323709Y-89265196D01*
X179336123Y-89261430D01*
X179318001Y-89352532D01*
X179318001Y-89565470D01*
X179359544Y-89774317D01*
X179441032Y-89971046D01*
X179559334Y-90148098D01*
X179709904Y-90298668D01*
X179886956Y-90416970D01*
X180083685Y-90498458D01*
X180292532Y-90540001D01*
X180505470Y-90540001D01*
X180714317Y-90498458D01*
X180911046Y-90416970D01*
X181088098Y-90298668D01*
X181238668Y-90148098D01*
X181356970Y-89971046D01*
X181438458Y-89774317D01*
X181480001Y-89565470D01*
X181480001Y-89352532D01*
X181438458Y-89143685D01*
X181356970Y-88946956D01*
X181238668Y-88769904D01*
X181088098Y-88619334D01*
X180911046Y-88501032D01*
X180714317Y-88419544D01*
X180505470Y-88378001D01*
X180292532Y-88378001D01*
X180186369Y-88399118D01*
X180207084Y-88188800D01*
X180186410Y-87978892D01*
X180292532Y-88000001D01*
X180505470Y-88000001D01*
X180714317Y-87958458D01*
X180911046Y-87876970D01*
X181088098Y-87758668D01*
X181238668Y-87608098D01*
X181356970Y-87431046D01*
X181438458Y-87234317D01*
X181480001Y-87025470D01*
X181480001Y-86812532D01*
X181462723Y-86725672D01*
X181618351Y-86741000D01*
X182003249Y-86741000D01*
X182163709Y-86725196D01*
X182369589Y-86662743D01*
X182559329Y-86561325D01*
X182725638Y-86424838D01*
X182862125Y-86258529D01*
X182963543Y-86068789D01*
X183025996Y-85862909D01*
X183047084Y-85648800D01*
X183025996Y-85434691D01*
X182963543Y-85228811D01*
X182862125Y-85039071D01*
X182725638Y-84872762D01*
X182559329Y-84736275D01*
X182369589Y-84634857D01*
X182163709Y-84572404D01*
X182003249Y-84556600D01*
X181618351Y-84556600D01*
X181462805Y-84571920D01*
X181480001Y-84485470D01*
X181480001Y-84272532D01*
X181462723Y-84185672D01*
X181618351Y-84201000D01*
X182003249Y-84201000D01*
X182163709Y-84185196D01*
X182369589Y-84122743D01*
X182559329Y-84021325D01*
X182725638Y-83884838D01*
X182862125Y-83718529D01*
X182963543Y-83528789D01*
X183025996Y-83322909D01*
X183047084Y-83108800D01*
X183025996Y-82894691D01*
X182963543Y-82688811D01*
X182862125Y-82499071D01*
X182725638Y-82332762D01*
X182559329Y-82196275D01*
X182369589Y-82094857D01*
X182163709Y-82032404D01*
X182003249Y-82016600D01*
X181618351Y-82016600D01*
X181462805Y-82031920D01*
X181480001Y-81945470D01*
X181480001Y-81732532D01*
X181462723Y-81645672D01*
X181618351Y-81661000D01*
X182003249Y-81661000D01*
X182163709Y-81645196D01*
X182369589Y-81582743D01*
X182559329Y-81481325D01*
X182725638Y-81344838D01*
X182862125Y-81178529D01*
X182963543Y-80988789D01*
X183025996Y-80782909D01*
X183047084Y-80568800D01*
X183025996Y-80354691D01*
X182963543Y-80148811D01*
X182862125Y-79959071D01*
X182725638Y-79792762D01*
X182559329Y-79656275D01*
X182369589Y-79554857D01*
X182163709Y-79492404D01*
X182003249Y-79476600D01*
X181618351Y-79476600D01*
X181599720Y-79478435D01*
X181568375Y-79426001D01*
X180526001Y-79426001D01*
X180526001Y-80469202D01*
X180581103Y-80501922D01*
X180574516Y-80568800D01*
X180594903Y-80775791D01*
X180505470Y-80758001D01*
X180327062Y-80758001D01*
X180290239Y-80695800D01*
X179097800Y-80695800D01*
X179097800Y-81756806D01*
X179308624Y-81900821D01*
X179318001Y-81898462D01*
X179318001Y-81945470D01*
X179336037Y-82036144D01*
X179323709Y-82032404D01*
X179163249Y-82016600D01*
X178778351Y-82016600D01*
X178617891Y-82032404D01*
X178412011Y-82094857D01*
X178222271Y-82196275D01*
X178055962Y-82332762D01*
X177919475Y-82499071D01*
X177818057Y-82688811D01*
X177755604Y-82894691D01*
X177734516Y-83108800D01*
X167807084Y-83108800D01*
X167785996Y-82894691D01*
X167723543Y-82688811D01*
X167622125Y-82499071D01*
X167485638Y-82332762D01*
X167319329Y-82196275D01*
X167129589Y-82094857D01*
X166923709Y-82032404D01*
X166763249Y-82016600D01*
X166378351Y-82016600D01*
X166222805Y-82031920D01*
X166240001Y-81945470D01*
X166240001Y-81732532D01*
X166222723Y-81645672D01*
X166378351Y-81661000D01*
X166763249Y-81661000D01*
X166923709Y-81645196D01*
X167129589Y-81582743D01*
X167319329Y-81481325D01*
X167485638Y-81344838D01*
X167622125Y-81178529D01*
X167723543Y-80988789D01*
X167749297Y-80903889D01*
X177528171Y-80903889D01*
X177613893Y-81143350D01*
X177749388Y-81369951D01*
X177926487Y-81565764D01*
X178138384Y-81723264D01*
X178376936Y-81836399D01*
X178632976Y-81900821D01*
X178843800Y-81756806D01*
X178843800Y-80695800D01*
X177651361Y-80695800D01*
X177528171Y-80903889D01*
X167749297Y-80903889D01*
X167785996Y-80782909D01*
X167807084Y-80568800D01*
X167785996Y-80354691D01*
X167749298Y-80233711D01*
X177528171Y-80233711D01*
X177651361Y-80441800D01*
X178843800Y-80441800D01*
X178843800Y-79380794D01*
X179097800Y-79380794D01*
X179097800Y-80441800D01*
X179721238Y-80441800D01*
X179819878Y-80501854D01*
X180065671Y-80591723D01*
X180272001Y-80469202D01*
X180272001Y-80441800D01*
X180290239Y-80441800D01*
X180413429Y-80233711D01*
X180327707Y-79994250D01*
X180272001Y-79901088D01*
X180272001Y-79426001D01*
X179818910Y-79426001D01*
X179803216Y-79414336D01*
X179564664Y-79301201D01*
X179308624Y-79236779D01*
X179097800Y-79380794D01*
X178843800Y-79380794D01*
X178632976Y-79236779D01*
X178376936Y-79301201D01*
X178138384Y-79414336D01*
X177926487Y-79571836D01*
X177749388Y-79767649D01*
X177613893Y-79994250D01*
X177528171Y-80233711D01*
X167749298Y-80233711D01*
X167723543Y-80148811D01*
X167622125Y-79959071D01*
X167485638Y-79792762D01*
X167319329Y-79656275D01*
X167129589Y-79554857D01*
X166923709Y-79492404D01*
X166763249Y-79476600D01*
X166378351Y-79476600D01*
X166359720Y-79478435D01*
X166328375Y-79426001D01*
X165286001Y-79426001D01*
X165286001Y-80469202D01*
X165341103Y-80501922D01*
X165334516Y-80568800D01*
X165354903Y-80775791D01*
X165265470Y-80758001D01*
X165052532Y-80758001D01*
X164946369Y-80779118D01*
X164967084Y-80568800D01*
X164961403Y-80511124D01*
X165032001Y-80469202D01*
X165032001Y-79426001D01*
X163989627Y-79426001D01*
X163957370Y-79479961D01*
X163923249Y-79476600D01*
X163538351Y-79476600D01*
X163377891Y-79492404D01*
X163172011Y-79554857D01*
X162982271Y-79656275D01*
X162815962Y-79792762D01*
X162679475Y-79959071D01*
X162578057Y-80148811D01*
X162515604Y-80354691D01*
X162494516Y-80568800D01*
X160426000Y-80568800D01*
X160426000Y-72519588D01*
X162047343Y-72519588D01*
X162049790Y-72544435D01*
X162049791Y-74138934D01*
X162047343Y-74163790D01*
X162057112Y-74262982D01*
X162086045Y-74358364D01*
X162086046Y-74358365D01*
X162133032Y-74446269D01*
X162196264Y-74523317D01*
X162215570Y-74539161D01*
X162636284Y-74959875D01*
X162578057Y-75068811D01*
X162515604Y-75274691D01*
X162494516Y-75488800D01*
X162515604Y-75702909D01*
X162578057Y-75908789D01*
X162679475Y-76098529D01*
X162815962Y-76264838D01*
X162982271Y-76401325D01*
X163172011Y-76502743D01*
X163377891Y-76565196D01*
X163538351Y-76581000D01*
X163923249Y-76581000D01*
X164083709Y-76565196D01*
X164096123Y-76561430D01*
X164078001Y-76652532D01*
X164078001Y-76865470D01*
X164096037Y-76956144D01*
X164083709Y-76952404D01*
X163923249Y-76936600D01*
X163538351Y-76936600D01*
X163377891Y-76952404D01*
X163172011Y-77014857D01*
X162982271Y-77116275D01*
X162815962Y-77252762D01*
X162679475Y-77419071D01*
X162578057Y-77608811D01*
X162515604Y-77814691D01*
X162494516Y-78028800D01*
X162515604Y-78242909D01*
X162578057Y-78448789D01*
X162679475Y-78638529D01*
X162815962Y-78804838D01*
X162982271Y-78941325D01*
X163172011Y-79042743D01*
X163377891Y-79105196D01*
X163538351Y-79121000D01*
X163923249Y-79121000D01*
X163957143Y-79117662D01*
X163989627Y-79172001D01*
X165032001Y-79172001D01*
X165032001Y-78363889D01*
X165128171Y-78363889D01*
X165213893Y-78603350D01*
X165286001Y-78723943D01*
X165286001Y-79172001D01*
X165723231Y-79172001D01*
X165738384Y-79183264D01*
X165976936Y-79296399D01*
X166232976Y-79360821D01*
X166443800Y-79216806D01*
X166443800Y-78978916D01*
X166451717Y-78965672D01*
X166443800Y-78939568D01*
X166443800Y-78155800D01*
X166697800Y-78155800D01*
X166697800Y-79216806D01*
X166908624Y-79360821D01*
X167164664Y-79296399D01*
X167403216Y-79183264D01*
X167615113Y-79025764D01*
X167792212Y-78829951D01*
X167927707Y-78603350D01*
X168013429Y-78363889D01*
X167890239Y-78155800D01*
X166697800Y-78155800D01*
X166443800Y-78155800D01*
X165836104Y-78155800D01*
X165738124Y-78096148D01*
X165492331Y-78006279D01*
X165286001Y-78128800D01*
X165286001Y-78155800D01*
X165251361Y-78155800D01*
X165128171Y-78363889D01*
X165032001Y-78363889D01*
X165032001Y-78128800D01*
X164961366Y-78086856D01*
X164967084Y-78028800D01*
X164946410Y-77818892D01*
X165052532Y-77840001D01*
X165214776Y-77840001D01*
X165251361Y-77901800D01*
X166443800Y-77901800D01*
X166443800Y-76840794D01*
X166697800Y-76840794D01*
X166697800Y-77901800D01*
X167890239Y-77901800D01*
X168013429Y-77693711D01*
X167927707Y-77454250D01*
X167792212Y-77227649D01*
X167615113Y-77031836D01*
X167403216Y-76874336D01*
X167164664Y-76761201D01*
X166908624Y-76696779D01*
X166697800Y-76840794D01*
X166443800Y-76840794D01*
X166240001Y-76701578D01*
X166240001Y-76652532D01*
X166222723Y-76565672D01*
X166378351Y-76581000D01*
X166763249Y-76581000D01*
X166923709Y-76565196D01*
X167129589Y-76502743D01*
X167319329Y-76401325D01*
X167485638Y-76264838D01*
X167622125Y-76098529D01*
X167723543Y-75908789D01*
X167785996Y-75702909D01*
X167807084Y-75488800D01*
X167785996Y-75274691D01*
X167723543Y-75068811D01*
X167622125Y-74879071D01*
X167485638Y-74712762D01*
X167319329Y-74576275D01*
X167129589Y-74474857D01*
X166923709Y-74412404D01*
X166763249Y-74396600D01*
X166378351Y-74396600D01*
X166222805Y-74411920D01*
X166240001Y-74325470D01*
X166240001Y-74112532D01*
X166222723Y-74025672D01*
X166378351Y-74041000D01*
X166763249Y-74041000D01*
X166923709Y-74025196D01*
X167129589Y-73962743D01*
X167319329Y-73861325D01*
X167485638Y-73724838D01*
X167622125Y-73558529D01*
X167723543Y-73368789D01*
X167785996Y-73162909D01*
X167807084Y-72948800D01*
X167796490Y-72841228D01*
X167868600Y-72841228D01*
X167868600Y-73056372D01*
X167910572Y-73267383D01*
X167992905Y-73466151D01*
X168112433Y-73645037D01*
X168264563Y-73797167D01*
X168443449Y-73916695D01*
X168642217Y-73999028D01*
X168853228Y-74041000D01*
X169068372Y-74041000D01*
X169279383Y-73999028D01*
X169478151Y-73916695D01*
X169657037Y-73797167D01*
X169809167Y-73645037D01*
X169928695Y-73466151D01*
X170011028Y-73267383D01*
X170053000Y-73056372D01*
X170053000Y-72841228D01*
X170408600Y-72841228D01*
X170408600Y-73056372D01*
X170450572Y-73267383D01*
X170532905Y-73466151D01*
X170652433Y-73645037D01*
X170804563Y-73797167D01*
X170983449Y-73916695D01*
X171182217Y-73999028D01*
X171393228Y-74041000D01*
X171608372Y-74041000D01*
X171819383Y-73999028D01*
X172018151Y-73916695D01*
X172197037Y-73797167D01*
X172349167Y-73645037D01*
X172468695Y-73466151D01*
X172551028Y-73267383D01*
X172593000Y-73056372D01*
X172593000Y-72841228D01*
X172551028Y-72630217D01*
X172468695Y-72431449D01*
X172349167Y-72252563D01*
X172334204Y-72237600D01*
X172946757Y-72237600D01*
X172946757Y-73660000D01*
X172954113Y-73734689D01*
X172975899Y-73806508D01*
X173011278Y-73872696D01*
X173058889Y-73930711D01*
X173116904Y-73978322D01*
X173183092Y-74013701D01*
X173254911Y-74035487D01*
X173329600Y-74042843D01*
X174752000Y-74042843D01*
X174826689Y-74035487D01*
X174898508Y-74013701D01*
X174964696Y-73978322D01*
X175022711Y-73930711D01*
X175070322Y-73872696D01*
X175105701Y-73806508D01*
X175127487Y-73734689D01*
X175134843Y-73660000D01*
X175134843Y-72237600D01*
X175127487Y-72162911D01*
X175105701Y-72091092D01*
X175070322Y-72024904D01*
X175022711Y-71966889D01*
X174964696Y-71919278D01*
X174898508Y-71883899D01*
X174826689Y-71862113D01*
X174752000Y-71854757D01*
X173329600Y-71854757D01*
X173254911Y-71862113D01*
X173183092Y-71883899D01*
X173116904Y-71919278D01*
X173058889Y-71966889D01*
X173011278Y-72024904D01*
X172975899Y-72091092D01*
X172954113Y-72162911D01*
X172946757Y-72237600D01*
X172334204Y-72237600D01*
X172197037Y-72100433D01*
X172018151Y-71980905D01*
X171819383Y-71898572D01*
X171608372Y-71856600D01*
X171393228Y-71856600D01*
X171182217Y-71898572D01*
X170983449Y-71980905D01*
X170804563Y-72100433D01*
X170652433Y-72252563D01*
X170532905Y-72431449D01*
X170450572Y-72630217D01*
X170408600Y-72841228D01*
X170053000Y-72841228D01*
X170011028Y-72630217D01*
X169928695Y-72431449D01*
X169809167Y-72252563D01*
X169657037Y-72100433D01*
X169478151Y-71980905D01*
X169279383Y-71898572D01*
X169068372Y-71856600D01*
X168853228Y-71856600D01*
X168642217Y-71898572D01*
X168443449Y-71980905D01*
X168264563Y-72100433D01*
X168112433Y-72252563D01*
X167992905Y-72431449D01*
X167910572Y-72630217D01*
X167868600Y-72841228D01*
X167796490Y-72841228D01*
X167785996Y-72734691D01*
X167723543Y-72528811D01*
X167665316Y-72419876D01*
X168086030Y-71999162D01*
X168105337Y-71983317D01*
X168168569Y-71906269D01*
X168215555Y-71818365D01*
X168225533Y-71785470D01*
X168244488Y-71722984D01*
X168248820Y-71679001D01*
X168251810Y-71648644D01*
X168251810Y-71648637D01*
X168254257Y-71623791D01*
X168251810Y-71598945D01*
X168251810Y-71244414D01*
X168264563Y-71257167D01*
X168443449Y-71376695D01*
X168642217Y-71459028D01*
X168853228Y-71501000D01*
X169068372Y-71501000D01*
X169279383Y-71459028D01*
X169478151Y-71376695D01*
X169657037Y-71257167D01*
X169809167Y-71105037D01*
X169928695Y-70926151D01*
X170011028Y-70727383D01*
X170053000Y-70516372D01*
X170053000Y-70301228D01*
X170408600Y-70301228D01*
X170408600Y-70516372D01*
X170450572Y-70727383D01*
X170532905Y-70926151D01*
X170652433Y-71105037D01*
X170804563Y-71257167D01*
X170983449Y-71376695D01*
X171182217Y-71459028D01*
X171393228Y-71501000D01*
X171608372Y-71501000D01*
X171819383Y-71459028D01*
X172018151Y-71376695D01*
X172197037Y-71257167D01*
X172349167Y-71105037D01*
X172468695Y-70926151D01*
X172551028Y-70727383D01*
X172593000Y-70516372D01*
X172593000Y-70301228D01*
X172551028Y-70090217D01*
X172468695Y-69891449D01*
X172349167Y-69712563D01*
X172197037Y-69560433D01*
X172018151Y-69440905D01*
X171819383Y-69358572D01*
X171608372Y-69316600D01*
X171393228Y-69316600D01*
X171182217Y-69358572D01*
X170983449Y-69440905D01*
X170804563Y-69560433D01*
X170652433Y-69712563D01*
X170532905Y-69891449D01*
X170450572Y-70090217D01*
X170408600Y-70301228D01*
X170053000Y-70301228D01*
X170011028Y-70090217D01*
X169928695Y-69891449D01*
X169809167Y-69712563D01*
X169657037Y-69560433D01*
X169478151Y-69440905D01*
X169279383Y-69358572D01*
X169068372Y-69316600D01*
X168853228Y-69316600D01*
X168642217Y-69358572D01*
X168443449Y-69440905D01*
X168264563Y-69560433D01*
X168150231Y-69674765D01*
X168105337Y-69620061D01*
X168086030Y-69604216D01*
X167280599Y-68798786D01*
X167264750Y-68779474D01*
X167187702Y-68716242D01*
X167099798Y-68669256D01*
X167004416Y-68640323D01*
X166930077Y-68633001D01*
X166930069Y-68633001D01*
X166905223Y-68630554D01*
X166880377Y-68633001D01*
X166119474Y-68633001D01*
X166116970Y-68626956D01*
X165998668Y-68449904D01*
X165848098Y-68299334D01*
X165671046Y-68181032D01*
X165474317Y-68099544D01*
X165265470Y-68058001D01*
X165052532Y-68058001D01*
X164843685Y-68099544D01*
X164646956Y-68181032D01*
X164469904Y-68299334D01*
X164319334Y-68449904D01*
X164201032Y-68626956D01*
X164119544Y-68823685D01*
X164078001Y-69032532D01*
X164078001Y-69245470D01*
X164119544Y-69454317D01*
X164201032Y-69651046D01*
X164319334Y-69828098D01*
X164469904Y-69978668D01*
X164646956Y-70096970D01*
X164843685Y-70178458D01*
X165052532Y-70220001D01*
X165265470Y-70220001D01*
X165354863Y-70202219D01*
X165334516Y-70408800D01*
X165354903Y-70615791D01*
X165265470Y-70598001D01*
X165052532Y-70598001D01*
X164843685Y-70639544D01*
X164646956Y-70721032D01*
X164469904Y-70839334D01*
X164319334Y-70989904D01*
X164201032Y-71166956D01*
X164198528Y-71173001D01*
X163421231Y-71173001D01*
X163396377Y-71170553D01*
X163371523Y-71173001D01*
X163297184Y-71180323D01*
X163201802Y-71209256D01*
X163113898Y-71256242D01*
X163036850Y-71319474D01*
X163021005Y-71338781D01*
X162215575Y-72144212D01*
X162196263Y-72160061D01*
X162133031Y-72237109D01*
X162086045Y-72325014D01*
X162057112Y-72420396D01*
X162049790Y-72494735D01*
X162049790Y-72494742D01*
X162047343Y-72519588D01*
X160426000Y-72519588D01*
X160426000Y-66482683D01*
X163978001Y-66482683D01*
X163978001Y-66715319D01*
X164023387Y-66943486D01*
X164112413Y-67158414D01*
X164241659Y-67351844D01*
X164406158Y-67516343D01*
X164599588Y-67645589D01*
X164814516Y-67734615D01*
X165042683Y-67780001D01*
X165275319Y-67780001D01*
X165503486Y-67734615D01*
X165718414Y-67645589D01*
X165911844Y-67516343D01*
X166076343Y-67351844D01*
X166205589Y-67158414D01*
X166294615Y-66943486D01*
X166340001Y-66715319D01*
X166340001Y-66515000D01*
X171491928Y-66515000D01*
X171504188Y-66639482D01*
X171540498Y-66759180D01*
X171599463Y-66869494D01*
X171678815Y-66966185D01*
X171775506Y-67045537D01*
X171885820Y-67104502D01*
X172005518Y-67140812D01*
X172130000Y-67153072D01*
X172281750Y-67150000D01*
X172440500Y-66991250D01*
X172440500Y-66167000D01*
X171653750Y-66167000D01*
X171495000Y-66325750D01*
X171491928Y-66515000D01*
X166340001Y-66515000D01*
X166340001Y-66482683D01*
X166294615Y-66254516D01*
X166205589Y-66039588D01*
X166076343Y-65846158D01*
X165911844Y-65681659D01*
X165737252Y-65565000D01*
X171491928Y-65565000D01*
X171495000Y-65754250D01*
X171653750Y-65913000D01*
X172440500Y-65913000D01*
X172440500Y-65088750D01*
X172694500Y-65088750D01*
X172694500Y-65913000D01*
X172714500Y-65913000D01*
X172714500Y-66167000D01*
X172694500Y-66167000D01*
X172694500Y-66991250D01*
X172853250Y-67150000D01*
X173005000Y-67153072D01*
X173129482Y-67140812D01*
X173249180Y-67104502D01*
X173359494Y-67045537D01*
X173456185Y-66966185D01*
X173534801Y-66870391D01*
X173534800Y-69436203D01*
X173523449Y-69440905D01*
X173344563Y-69560433D01*
X173192433Y-69712563D01*
X173072905Y-69891449D01*
X172990572Y-70090217D01*
X172948600Y-70301228D01*
X172948600Y-70516372D01*
X172990572Y-70727383D01*
X173072905Y-70926151D01*
X173192433Y-71105037D01*
X173344563Y-71257167D01*
X173523449Y-71376695D01*
X173722217Y-71459028D01*
X173933228Y-71501000D01*
X174148372Y-71501000D01*
X174359383Y-71459028D01*
X174558151Y-71376695D01*
X174737037Y-71257167D01*
X174889167Y-71105037D01*
X175008695Y-70926151D01*
X175091028Y-70727383D01*
X175133000Y-70516372D01*
X175133000Y-70301228D01*
X175488600Y-70301228D01*
X175488600Y-70516372D01*
X175530572Y-70727383D01*
X175612905Y-70926151D01*
X175732433Y-71105037D01*
X175884563Y-71257167D01*
X176063449Y-71376695D01*
X176262217Y-71459028D01*
X176473228Y-71501000D01*
X176688372Y-71501000D01*
X176899383Y-71459028D01*
X177098151Y-71376695D01*
X177277037Y-71257167D01*
X177289790Y-71244414D01*
X177289791Y-72113187D01*
X177277037Y-72100433D01*
X177098151Y-71980905D01*
X176899383Y-71898572D01*
X176688372Y-71856600D01*
X176473228Y-71856600D01*
X176262217Y-71898572D01*
X176063449Y-71980905D01*
X175884563Y-72100433D01*
X175732433Y-72252563D01*
X175612905Y-72431449D01*
X175530572Y-72630217D01*
X175488600Y-72841228D01*
X175488600Y-73056372D01*
X175530572Y-73267383D01*
X175612905Y-73466151D01*
X175732433Y-73645037D01*
X175884563Y-73797167D01*
X176063449Y-73916695D01*
X176262217Y-73999028D01*
X176473228Y-74041000D01*
X176688372Y-74041000D01*
X176899383Y-73999028D01*
X177098151Y-73916695D01*
X177277037Y-73797167D01*
X177289791Y-73784413D01*
X177289791Y-74138934D01*
X177287343Y-74163790D01*
X177297112Y-74262982D01*
X177326045Y-74358364D01*
X177326046Y-74358365D01*
X177373032Y-74446269D01*
X177436264Y-74523317D01*
X177455570Y-74539161D01*
X177876284Y-74959875D01*
X177818057Y-75068811D01*
X177755604Y-75274691D01*
X177734516Y-75488800D01*
X177755604Y-75702909D01*
X177818057Y-75908789D01*
X177919475Y-76098529D01*
X178055962Y-76264838D01*
X178222271Y-76401325D01*
X178412011Y-76502743D01*
X178617891Y-76565196D01*
X178778351Y-76581000D01*
X179163249Y-76581000D01*
X179323709Y-76565196D01*
X179336123Y-76561430D01*
X179318001Y-76652532D01*
X179318001Y-76865470D01*
X179336037Y-76956144D01*
X179323709Y-76952404D01*
X179163249Y-76936600D01*
X178778351Y-76936600D01*
X178617891Y-76952404D01*
X178412011Y-77014857D01*
X178222271Y-77116275D01*
X178055962Y-77252762D01*
X177919475Y-77419071D01*
X177818057Y-77608811D01*
X177755604Y-77814691D01*
X177734516Y-78028800D01*
X177755604Y-78242909D01*
X177818057Y-78448789D01*
X177919475Y-78638529D01*
X178055962Y-78804838D01*
X178222271Y-78941325D01*
X178412011Y-79042743D01*
X178617891Y-79105196D01*
X178778351Y-79121000D01*
X179163249Y-79121000D01*
X179197143Y-79117662D01*
X179229627Y-79172001D01*
X180272001Y-79172001D01*
X180272001Y-78128800D01*
X180201366Y-78086856D01*
X180207084Y-78028800D01*
X180186410Y-77818892D01*
X180292532Y-77840001D01*
X180505470Y-77840001D01*
X180594863Y-77822219D01*
X180574516Y-78028800D01*
X180581140Y-78096058D01*
X180526001Y-78128800D01*
X180526001Y-79172001D01*
X181568375Y-79172001D01*
X181599947Y-79119187D01*
X181618351Y-79121000D01*
X182003249Y-79121000D01*
X182163709Y-79105196D01*
X182369589Y-79042743D01*
X182559329Y-78941325D01*
X182725638Y-78804838D01*
X182862125Y-78638529D01*
X182963543Y-78448789D01*
X183025996Y-78242909D01*
X183047084Y-78028800D01*
X183025996Y-77814691D01*
X182963543Y-77608811D01*
X182862125Y-77419071D01*
X182725638Y-77252762D01*
X182559329Y-77116275D01*
X182369589Y-77014857D01*
X182163709Y-76952404D01*
X182003249Y-76936600D01*
X181618351Y-76936600D01*
X181462805Y-76951920D01*
X181480001Y-76865470D01*
X181480001Y-76652532D01*
X181462723Y-76565672D01*
X181618351Y-76581000D01*
X182003249Y-76581000D01*
X182163709Y-76565196D01*
X182369589Y-76502743D01*
X182559329Y-76401325D01*
X182725638Y-76264838D01*
X182862125Y-76098529D01*
X182963543Y-75908789D01*
X183025996Y-75702909D01*
X183047084Y-75488800D01*
X183025996Y-75274691D01*
X182963543Y-75068811D01*
X182905316Y-74959876D01*
X183326030Y-74539162D01*
X183345337Y-74523317D01*
X183408569Y-74446269D01*
X183455555Y-74358365D01*
X183484488Y-74262983D01*
X183491810Y-74188644D01*
X183491810Y-74188637D01*
X183494257Y-74163791D01*
X183491810Y-74138945D01*
X183491810Y-72544442D01*
X183494258Y-72519588D01*
X183484488Y-72420395D01*
X183455555Y-72325013D01*
X183416829Y-72252563D01*
X183408569Y-72237109D01*
X183345337Y-72160061D01*
X183326030Y-72144216D01*
X182520599Y-71338786D01*
X182504750Y-71319474D01*
X182427702Y-71256242D01*
X182339798Y-71209256D01*
X182244416Y-71180323D01*
X182170077Y-71173001D01*
X182170069Y-71173001D01*
X182145223Y-71170554D01*
X182120377Y-71173001D01*
X181359474Y-71173001D01*
X181356970Y-71166956D01*
X181238668Y-70989904D01*
X181088098Y-70839334D01*
X180911046Y-70721032D01*
X180714317Y-70639544D01*
X180505470Y-70598001D01*
X180292532Y-70598001D01*
X180186369Y-70619118D01*
X180207084Y-70408800D01*
X180186410Y-70198892D01*
X180292532Y-70220001D01*
X180505470Y-70220001D01*
X180714317Y-70178458D01*
X180911046Y-70096970D01*
X181088098Y-69978668D01*
X181238668Y-69828098D01*
X181356970Y-69651046D01*
X181438458Y-69454317D01*
X181480001Y-69245470D01*
X181480001Y-69032532D01*
X181438458Y-68823685D01*
X181356970Y-68626956D01*
X181238668Y-68449904D01*
X181088098Y-68299334D01*
X180911046Y-68181032D01*
X180714317Y-68099544D01*
X180505470Y-68058001D01*
X180292532Y-68058001D01*
X180083685Y-68099544D01*
X179886956Y-68181032D01*
X179709904Y-68299334D01*
X179559334Y-68449904D01*
X179441032Y-68626956D01*
X179438528Y-68633001D01*
X178661231Y-68633001D01*
X178636377Y-68630553D01*
X178611523Y-68633001D01*
X178537184Y-68640323D01*
X178441802Y-68669256D01*
X178353898Y-68716242D01*
X178276850Y-68779474D01*
X178261005Y-68798781D01*
X177455575Y-69604212D01*
X177436263Y-69620061D01*
X177391369Y-69674765D01*
X177277037Y-69560433D01*
X177098151Y-69440905D01*
X176899383Y-69358572D01*
X176688372Y-69316600D01*
X176473228Y-69316600D01*
X176262217Y-69358572D01*
X176063449Y-69440905D01*
X175884563Y-69560433D01*
X175732433Y-69712563D01*
X175612905Y-69891449D01*
X175530572Y-70090217D01*
X175488600Y-70301228D01*
X175133000Y-70301228D01*
X175091028Y-70090217D01*
X175008695Y-69891449D01*
X174889167Y-69712563D01*
X174737037Y-69560433D01*
X174558151Y-69440905D01*
X174546800Y-69436203D01*
X174546800Y-66865600D01*
X174591470Y-66852049D01*
X174695477Y-66796456D01*
X174786640Y-66721640D01*
X174861456Y-66630477D01*
X174917049Y-66526470D01*
X174930331Y-66482683D01*
X179218001Y-66482683D01*
X179218001Y-66715319D01*
X179263387Y-66943486D01*
X179352413Y-67158414D01*
X179481659Y-67351844D01*
X179646158Y-67516343D01*
X179839588Y-67645589D01*
X180054516Y-67734615D01*
X180282683Y-67780001D01*
X180515319Y-67780001D01*
X180743486Y-67734615D01*
X180958414Y-67645589D01*
X181151844Y-67516343D01*
X181316343Y-67351844D01*
X181445589Y-67158414D01*
X181534615Y-66943486D01*
X181580001Y-66715319D01*
X181580001Y-66482683D01*
X181534615Y-66254516D01*
X181445589Y-66039588D01*
X181316343Y-65846158D01*
X181151844Y-65681659D01*
X180958414Y-65552413D01*
X180743486Y-65463387D01*
X180515319Y-65418001D01*
X180282683Y-65418001D01*
X180054516Y-65463387D01*
X179839588Y-65552413D01*
X179646158Y-65681659D01*
X179481659Y-65846158D01*
X179352413Y-66039588D01*
X179263387Y-66254516D01*
X179218001Y-66482683D01*
X174930331Y-66482683D01*
X174951284Y-66413615D01*
X174962843Y-66296250D01*
X174962843Y-65783750D01*
X174951284Y-65666385D01*
X174917049Y-65553530D01*
X174861456Y-65449523D01*
X174786640Y-65358360D01*
X174695477Y-65283544D01*
X174614929Y-65240490D01*
X174682113Y-65139942D01*
X174740987Y-64997809D01*
X174771000Y-64846922D01*
X174771000Y-64693078D01*
X174740987Y-64542191D01*
X174682113Y-64400058D01*
X174596642Y-64272141D01*
X174487859Y-64163358D01*
X174359942Y-64077887D01*
X174217809Y-64019013D01*
X174066922Y-63989000D01*
X173913078Y-63989000D01*
X173762191Y-64019013D01*
X173620058Y-64077887D01*
X173492141Y-64163358D01*
X173383358Y-64272141D01*
X173297887Y-64400058D01*
X173239013Y-64542191D01*
X173209000Y-64693078D01*
X173209000Y-64846922D01*
X173233637Y-64970783D01*
X173129482Y-64939188D01*
X173005000Y-64926928D01*
X172853250Y-64930000D01*
X172694500Y-65088750D01*
X172440500Y-65088750D01*
X172281750Y-64930000D01*
X172130000Y-64926928D01*
X172005518Y-64939188D01*
X171885820Y-64975498D01*
X171775506Y-65034463D01*
X171678815Y-65113815D01*
X171599463Y-65210506D01*
X171540498Y-65320820D01*
X171504188Y-65440518D01*
X171491928Y-65565000D01*
X165737252Y-65565000D01*
X165718414Y-65552413D01*
X165503486Y-65463387D01*
X165275319Y-65418001D01*
X165042683Y-65418001D01*
X164814516Y-65463387D01*
X164599588Y-65552413D01*
X164406158Y-65681659D01*
X164241659Y-65846158D01*
X164112413Y-66039588D01*
X164023387Y-66254516D01*
X163978001Y-66482683D01*
X160426000Y-66482683D01*
X160426000Y-63942683D01*
X163978001Y-63942683D01*
X163978001Y-64175319D01*
X164023387Y-64403486D01*
X164112413Y-64618414D01*
X164241659Y-64811844D01*
X164406158Y-64976343D01*
X164599588Y-65105589D01*
X164814516Y-65194615D01*
X165042683Y-65240001D01*
X165275319Y-65240001D01*
X165503486Y-65194615D01*
X165718414Y-65105589D01*
X165911844Y-64976343D01*
X166076343Y-64811844D01*
X166205589Y-64618414D01*
X166294615Y-64403486D01*
X166340001Y-64175319D01*
X166340001Y-63942683D01*
X179218001Y-63942683D01*
X179218001Y-64175319D01*
X179263387Y-64403486D01*
X179352413Y-64618414D01*
X179481659Y-64811844D01*
X179646158Y-64976343D01*
X179839588Y-65105589D01*
X180054516Y-65194615D01*
X180282683Y-65240001D01*
X180515319Y-65240001D01*
X180743486Y-65194615D01*
X180958414Y-65105589D01*
X181151844Y-64976343D01*
X181316343Y-64811844D01*
X181445589Y-64618414D01*
X181534615Y-64403486D01*
X181580001Y-64175319D01*
X181580001Y-63942683D01*
X181534615Y-63714516D01*
X181445589Y-63499588D01*
X181316343Y-63306158D01*
X181151844Y-63141659D01*
X180958414Y-63012413D01*
X180743486Y-62923387D01*
X180515319Y-62878001D01*
X180282683Y-62878001D01*
X180054516Y-62923387D01*
X179839588Y-63012413D01*
X179646158Y-63141659D01*
X179481659Y-63306158D01*
X179352413Y-63499588D01*
X179263387Y-63714516D01*
X179218001Y-63942683D01*
X166340001Y-63942683D01*
X166294615Y-63714516D01*
X166205589Y-63499588D01*
X166076343Y-63306158D01*
X165911844Y-63141659D01*
X165718414Y-63012413D01*
X165503486Y-62923387D01*
X165275319Y-62878001D01*
X165042683Y-62878001D01*
X164814516Y-62923387D01*
X164599588Y-63012413D01*
X164406158Y-63141659D01*
X164241659Y-63306158D01*
X164112413Y-63499588D01*
X164023387Y-63714516D01*
X163978001Y-63942683D01*
X160426000Y-63942683D01*
X160426000Y-61402683D01*
X163978001Y-61402683D01*
X163978001Y-61635319D01*
X164023387Y-61863486D01*
X164112413Y-62078414D01*
X164241659Y-62271844D01*
X164406158Y-62436343D01*
X164599588Y-62565589D01*
X164814516Y-62654615D01*
X165042683Y-62700001D01*
X165275319Y-62700001D01*
X165503486Y-62654615D01*
X165718414Y-62565589D01*
X165911844Y-62436343D01*
X166076343Y-62271844D01*
X166205589Y-62078414D01*
X166294615Y-61863486D01*
X166340001Y-61635319D01*
X166340001Y-61402683D01*
X179218001Y-61402683D01*
X179218001Y-61635319D01*
X179263387Y-61863486D01*
X179352413Y-62078414D01*
X179481659Y-62271844D01*
X179646158Y-62436343D01*
X179839588Y-62565589D01*
X180054516Y-62654615D01*
X180282683Y-62700001D01*
X180515319Y-62700001D01*
X180743486Y-62654615D01*
X180958414Y-62565589D01*
X181151844Y-62436343D01*
X181316343Y-62271844D01*
X181445589Y-62078414D01*
X181534615Y-61863486D01*
X181580001Y-61635319D01*
X181580001Y-61402683D01*
X181534615Y-61174516D01*
X181445589Y-60959588D01*
X181316343Y-60766158D01*
X181151844Y-60601659D01*
X180958414Y-60472413D01*
X180743486Y-60383387D01*
X180515319Y-60338001D01*
X180282683Y-60338001D01*
X180054516Y-60383387D01*
X179839588Y-60472413D01*
X179646158Y-60601659D01*
X179481659Y-60766158D01*
X179352413Y-60959588D01*
X179263387Y-61174516D01*
X179218001Y-61402683D01*
X166340001Y-61402683D01*
X166294615Y-61174516D01*
X166205589Y-60959588D01*
X166076343Y-60766158D01*
X165911844Y-60601659D01*
X165718414Y-60472413D01*
X165503486Y-60383387D01*
X165275319Y-60338001D01*
X165042683Y-60338001D01*
X164814516Y-60383387D01*
X164599588Y-60472413D01*
X164406158Y-60601659D01*
X164241659Y-60766158D01*
X164112413Y-60959588D01*
X164023387Y-61174516D01*
X163978001Y-61402683D01*
X160426000Y-61402683D01*
X160426000Y-58862683D01*
X163978001Y-58862683D01*
X163978001Y-59095319D01*
X164023387Y-59323486D01*
X164112413Y-59538414D01*
X164241659Y-59731844D01*
X164406158Y-59896343D01*
X164599588Y-60025589D01*
X164814516Y-60114615D01*
X165042683Y-60160001D01*
X165275319Y-60160001D01*
X165503486Y-60114615D01*
X165718414Y-60025589D01*
X165911844Y-59896343D01*
X166076343Y-59731844D01*
X166205589Y-59538414D01*
X166294615Y-59323486D01*
X166340001Y-59095319D01*
X166340001Y-58862683D01*
X179218001Y-58862683D01*
X179218001Y-59095319D01*
X179263387Y-59323486D01*
X179352413Y-59538414D01*
X179481659Y-59731844D01*
X179646158Y-59896343D01*
X179839588Y-60025589D01*
X180054516Y-60114615D01*
X180282683Y-60160001D01*
X180515319Y-60160001D01*
X180743486Y-60114615D01*
X180958414Y-60025589D01*
X181151844Y-59896343D01*
X181316343Y-59731844D01*
X181445589Y-59538414D01*
X181534615Y-59323486D01*
X181580001Y-59095319D01*
X181580001Y-58862683D01*
X181534615Y-58634516D01*
X181445589Y-58419588D01*
X181316343Y-58226158D01*
X181151844Y-58061659D01*
X180958414Y-57932413D01*
X180743486Y-57843387D01*
X180515319Y-57798001D01*
X180282683Y-57798001D01*
X180054516Y-57843387D01*
X179839588Y-57932413D01*
X179646158Y-58061659D01*
X179481659Y-58226158D01*
X179352413Y-58419588D01*
X179263387Y-58634516D01*
X179218001Y-58862683D01*
X166340001Y-58862683D01*
X166294615Y-58634516D01*
X166205589Y-58419588D01*
X166076343Y-58226158D01*
X165911844Y-58061659D01*
X165718414Y-57932413D01*
X165503486Y-57843387D01*
X165275319Y-57798001D01*
X165042683Y-57798001D01*
X164814516Y-57843387D01*
X164599588Y-57932413D01*
X164406158Y-58061659D01*
X164241659Y-58226158D01*
X164112413Y-58419588D01*
X164023387Y-58634516D01*
X163978001Y-58862683D01*
X160426000Y-58862683D01*
X160426000Y-56322683D01*
X163978001Y-56322683D01*
X163978001Y-56555319D01*
X164023387Y-56783486D01*
X164112413Y-56998414D01*
X164241659Y-57191844D01*
X164406158Y-57356343D01*
X164599588Y-57485589D01*
X164814516Y-57574615D01*
X165042683Y-57620001D01*
X165275319Y-57620001D01*
X165503486Y-57574615D01*
X165718414Y-57485589D01*
X165911844Y-57356343D01*
X166076343Y-57191844D01*
X166205589Y-56998414D01*
X166294615Y-56783486D01*
X166340001Y-56555319D01*
X166340001Y-56322683D01*
X179218001Y-56322683D01*
X179218001Y-56555319D01*
X179263387Y-56783486D01*
X179352413Y-56998414D01*
X179481659Y-57191844D01*
X179646158Y-57356343D01*
X179839588Y-57485589D01*
X180054516Y-57574615D01*
X180282683Y-57620001D01*
X180515319Y-57620001D01*
X180743486Y-57574615D01*
X180958414Y-57485589D01*
X181151844Y-57356343D01*
X181316343Y-57191844D01*
X181445589Y-56998414D01*
X181534615Y-56783486D01*
X181580001Y-56555319D01*
X181580001Y-56322683D01*
X181534615Y-56094516D01*
X181445589Y-55879588D01*
X181316343Y-55686158D01*
X181151844Y-55521659D01*
X180958414Y-55392413D01*
X180743486Y-55303387D01*
X180515319Y-55258001D01*
X180282683Y-55258001D01*
X180054516Y-55303387D01*
X179839588Y-55392413D01*
X179646158Y-55521659D01*
X179481659Y-55686158D01*
X179352413Y-55879588D01*
X179263387Y-56094516D01*
X179218001Y-56322683D01*
X166340001Y-56322683D01*
X166294615Y-56094516D01*
X166205589Y-55879588D01*
X166076343Y-55686158D01*
X165911844Y-55521659D01*
X165718414Y-55392413D01*
X165503486Y-55303387D01*
X165275319Y-55258001D01*
X165042683Y-55258001D01*
X164814516Y-55303387D01*
X164599588Y-55392413D01*
X164406158Y-55521659D01*
X164241659Y-55686158D01*
X164112413Y-55879588D01*
X164023387Y-56094516D01*
X163978001Y-56322683D01*
X160426000Y-56322683D01*
X160426000Y-53099001D01*
X163976158Y-53099001D01*
X163976158Y-54699001D01*
X163983514Y-54773690D01*
X164005300Y-54845509D01*
X164040679Y-54911697D01*
X164088290Y-54969712D01*
X164146305Y-55017323D01*
X164212493Y-55052702D01*
X164284312Y-55074488D01*
X164359001Y-55081844D01*
X165959001Y-55081844D01*
X166033690Y-55074488D01*
X166105509Y-55052702D01*
X166171697Y-55017323D01*
X166229712Y-54969712D01*
X166277323Y-54911697D01*
X166312702Y-54845509D01*
X166334488Y-54773690D01*
X166341844Y-54699001D01*
X166341844Y-53782683D01*
X179218001Y-53782683D01*
X179218001Y-54015319D01*
X179263387Y-54243486D01*
X179352413Y-54458414D01*
X179481659Y-54651844D01*
X179646158Y-54816343D01*
X179839588Y-54945589D01*
X180054516Y-55034615D01*
X180282683Y-55080001D01*
X180515319Y-55080001D01*
X180743486Y-55034615D01*
X180958414Y-54945589D01*
X181151844Y-54816343D01*
X181316343Y-54651844D01*
X181445589Y-54458414D01*
X181534615Y-54243486D01*
X181580001Y-54015319D01*
X181580001Y-53782683D01*
X181534615Y-53554516D01*
X181445589Y-53339588D01*
X181316343Y-53146158D01*
X181151844Y-52981659D01*
X180958414Y-52852413D01*
X180743486Y-52763387D01*
X180515319Y-52718001D01*
X180282683Y-52718001D01*
X180054516Y-52763387D01*
X179839588Y-52852413D01*
X179646158Y-52981659D01*
X179481659Y-53146158D01*
X179352413Y-53339588D01*
X179263387Y-53554516D01*
X179218001Y-53782683D01*
X166341844Y-53782683D01*
X166341844Y-53099001D01*
X166334488Y-53024312D01*
X166312702Y-52952493D01*
X166277323Y-52886305D01*
X166229712Y-52828290D01*
X166171697Y-52780679D01*
X166105509Y-52745300D01*
X166033690Y-52723514D01*
X165959001Y-52716158D01*
X164359001Y-52716158D01*
X164284312Y-52723514D01*
X164212493Y-52745300D01*
X164146305Y-52780679D01*
X164088290Y-52828290D01*
X164040679Y-52886305D01*
X164005300Y-52952493D01*
X163983514Y-53024312D01*
X163976158Y-53099001D01*
X160426000Y-53099001D01*
X160426000Y-52476000D01*
X185014001Y-52476000D01*
X185014000Y-103734000D01*
G37*
X185014000Y-103734000D02*
X160426000Y-103734000D01*
X160426000Y-102042683D01*
X163978001Y-102042683D01*
X163978001Y-102275319D01*
X164023387Y-102503486D01*
X164112413Y-102718414D01*
X164241659Y-102911844D01*
X164406158Y-103076343D01*
X164599588Y-103205589D01*
X164814516Y-103294615D01*
X165042683Y-103340001D01*
X165275319Y-103340001D01*
X165503486Y-103294615D01*
X165718414Y-103205589D01*
X165911844Y-103076343D01*
X166076343Y-102911844D01*
X166205589Y-102718414D01*
X166294615Y-102503486D01*
X166340001Y-102275319D01*
X166340001Y-102042683D01*
X179218001Y-102042683D01*
X179218001Y-102275319D01*
X179263387Y-102503486D01*
X179352413Y-102718414D01*
X179481659Y-102911844D01*
X179646158Y-103076343D01*
X179839588Y-103205589D01*
X180054516Y-103294615D01*
X180282683Y-103340001D01*
X180515319Y-103340001D01*
X180743486Y-103294615D01*
X180958414Y-103205589D01*
X181151844Y-103076343D01*
X181316343Y-102911844D01*
X181445589Y-102718414D01*
X181534615Y-102503486D01*
X181580001Y-102275319D01*
X181580001Y-102042683D01*
X181534615Y-101814516D01*
X181445589Y-101599588D01*
X181316343Y-101406158D01*
X181151844Y-101241659D01*
X180958414Y-101112413D01*
X180743486Y-101023387D01*
X180515319Y-100978001D01*
X180282683Y-100978001D01*
X180054516Y-101023387D01*
X179839588Y-101112413D01*
X179646158Y-101241659D01*
X179481659Y-101406158D01*
X179352413Y-101599588D01*
X179263387Y-101814516D01*
X179218001Y-102042683D01*
X166340001Y-102042683D01*
X166294615Y-101814516D01*
X166205589Y-101599588D01*
X166076343Y-101406158D01*
X165911844Y-101241659D01*
X165718414Y-101112413D01*
X165503486Y-101023387D01*
X165275319Y-100978001D01*
X165042683Y-100978001D01*
X164814516Y-101023387D01*
X164599588Y-101112413D01*
X164406158Y-101241659D01*
X164241659Y-101406158D01*
X164112413Y-101599588D01*
X164023387Y-101814516D01*
X163978001Y-102042683D01*
X160426000Y-102042683D01*
X160426000Y-99502683D01*
X163978001Y-99502683D01*
X163978001Y-99735319D01*
X164023387Y-99963486D01*
X164112413Y-100178414D01*
X164241659Y-100371844D01*
X164406158Y-100536343D01*
X164599588Y-100665589D01*
X164814516Y-100754615D01*
X165042683Y-100800001D01*
X165275319Y-100800001D01*
X165503486Y-100754615D01*
X165718414Y-100665589D01*
X165911844Y-100536343D01*
X166076343Y-100371844D01*
X166205589Y-100178414D01*
X166294615Y-99963486D01*
X166340001Y-99735319D01*
X166340001Y-99502683D01*
X179218001Y-99502683D01*
X179218001Y-99735319D01*
X179263387Y-99963486D01*
X179352413Y-100178414D01*
X179481659Y-100371844D01*
X179646158Y-100536343D01*
X179839588Y-100665589D01*
X180054516Y-100754615D01*
X180282683Y-100800001D01*
X180515319Y-100800001D01*
X180743486Y-100754615D01*
X180958414Y-100665589D01*
X181151844Y-100536343D01*
X181316343Y-100371844D01*
X181445589Y-100178414D01*
X181534615Y-99963486D01*
X181580001Y-99735319D01*
X181580001Y-99502683D01*
X181534615Y-99274516D01*
X181445589Y-99059588D01*
X181316343Y-98866158D01*
X181151844Y-98701659D01*
X180958414Y-98572413D01*
X180743486Y-98483387D01*
X180515319Y-98438001D01*
X180282683Y-98438001D01*
X180054516Y-98483387D01*
X179839588Y-98572413D01*
X179646158Y-98701659D01*
X179481659Y-98866158D01*
X179352413Y-99059588D01*
X179263387Y-99274516D01*
X179218001Y-99502683D01*
X166340001Y-99502683D01*
X166294615Y-99274516D01*
X166205589Y-99059588D01*
X166076343Y-98866158D01*
X165911844Y-98701659D01*
X165718414Y-98572413D01*
X165503486Y-98483387D01*
X165275319Y-98438001D01*
X165042683Y-98438001D01*
X164814516Y-98483387D01*
X164599588Y-98572413D01*
X164406158Y-98701659D01*
X164241659Y-98866158D01*
X164112413Y-99059588D01*
X164023387Y-99274516D01*
X163978001Y-99502683D01*
X160426000Y-99502683D01*
X160426000Y-96962683D01*
X163978001Y-96962683D01*
X163978001Y-97195319D01*
X164023387Y-97423486D01*
X164112413Y-97638414D01*
X164241659Y-97831844D01*
X164406158Y-97996343D01*
X164599588Y-98125589D01*
X164814516Y-98214615D01*
X165042683Y-98260001D01*
X165275319Y-98260001D01*
X165503486Y-98214615D01*
X165718414Y-98125589D01*
X165911844Y-97996343D01*
X166076343Y-97831844D01*
X166205589Y-97638414D01*
X166294615Y-97423486D01*
X166340001Y-97195319D01*
X166340001Y-96962683D01*
X179218001Y-96962683D01*
X179218001Y-97195319D01*
X179263387Y-97423486D01*
X179352413Y-97638414D01*
X179481659Y-97831844D01*
X179646158Y-97996343D01*
X179839588Y-98125589D01*
X180054516Y-98214615D01*
X180282683Y-98260001D01*
X180515319Y-98260001D01*
X180743486Y-98214615D01*
X180958414Y-98125589D01*
X181151844Y-97996343D01*
X181316343Y-97831844D01*
X181445589Y-97638414D01*
X181534615Y-97423486D01*
X181580001Y-97195319D01*
X181580001Y-96962683D01*
X181534615Y-96734516D01*
X181445589Y-96519588D01*
X181316343Y-96326158D01*
X181151844Y-96161659D01*
X180958414Y-96032413D01*
X180743486Y-95943387D01*
X180515319Y-95898001D01*
X180282683Y-95898001D01*
X180054516Y-95943387D01*
X179839588Y-96032413D01*
X179646158Y-96161659D01*
X179481659Y-96326158D01*
X179352413Y-96519588D01*
X179263387Y-96734516D01*
X179218001Y-96962683D01*
X166340001Y-96962683D01*
X166294615Y-96734516D01*
X166205589Y-96519588D01*
X166076343Y-96326158D01*
X165911844Y-96161659D01*
X165718414Y-96032413D01*
X165503486Y-95943387D01*
X165275319Y-95898001D01*
X165042683Y-95898001D01*
X164814516Y-95943387D01*
X164599588Y-96032413D01*
X164406158Y-96161659D01*
X164241659Y-96326158D01*
X164112413Y-96519588D01*
X164023387Y-96734516D01*
X163978001Y-96962683D01*
X160426000Y-96962683D01*
X160426000Y-94422683D01*
X163978001Y-94422683D01*
X163978001Y-94655319D01*
X164023387Y-94883486D01*
X164112413Y-95098414D01*
X164241659Y-95291844D01*
X164406158Y-95456343D01*
X164599588Y-95585589D01*
X164814516Y-95674615D01*
X165042683Y-95720001D01*
X165275319Y-95720001D01*
X165503486Y-95674615D01*
X165718414Y-95585589D01*
X165911844Y-95456343D01*
X166076343Y-95291844D01*
X166205589Y-95098414D01*
X166294615Y-94883486D01*
X166340001Y-94655319D01*
X166340001Y-94422683D01*
X179218001Y-94422683D01*
X179218001Y-94655319D01*
X179263387Y-94883486D01*
X179352413Y-95098414D01*
X179481659Y-95291844D01*
X179646158Y-95456343D01*
X179839588Y-95585589D01*
X180054516Y-95674615D01*
X180282683Y-95720001D01*
X180515319Y-95720001D01*
X180743486Y-95674615D01*
X180958414Y-95585589D01*
X181151844Y-95456343D01*
X181316343Y-95291844D01*
X181445589Y-95098414D01*
X181534615Y-94883486D01*
X181580001Y-94655319D01*
X181580001Y-94422683D01*
X181534615Y-94194516D01*
X181445589Y-93979588D01*
X181316343Y-93786158D01*
X181151844Y-93621659D01*
X180958414Y-93492413D01*
X180743486Y-93403387D01*
X180515319Y-93358001D01*
X180282683Y-93358001D01*
X180054516Y-93403387D01*
X179839588Y-93492413D01*
X179646158Y-93621659D01*
X179481659Y-93786158D01*
X179352413Y-93979588D01*
X179263387Y-94194516D01*
X179218001Y-94422683D01*
X166340001Y-94422683D01*
X166294615Y-94194516D01*
X166205589Y-93979588D01*
X166076343Y-93786158D01*
X165911844Y-93621659D01*
X165718414Y-93492413D01*
X165503486Y-93403387D01*
X165275319Y-93358001D01*
X165042683Y-93358001D01*
X164814516Y-93403387D01*
X164599588Y-93492413D01*
X164406158Y-93621659D01*
X164241659Y-93786158D01*
X164112413Y-93979588D01*
X164023387Y-94194516D01*
X163978001Y-94422683D01*
X160426000Y-94422683D01*
X160426000Y-91882683D01*
X163978001Y-91882683D01*
X163978001Y-92115319D01*
X164023387Y-92343486D01*
X164112413Y-92558414D01*
X164241659Y-92751844D01*
X164406158Y-92916343D01*
X164599588Y-93045589D01*
X164814516Y-93134615D01*
X165042683Y-93180001D01*
X165275319Y-93180001D01*
X165503486Y-93134615D01*
X165718414Y-93045589D01*
X165911844Y-92916343D01*
X166076343Y-92751844D01*
X166205589Y-92558414D01*
X166294615Y-92343486D01*
X166340001Y-92115319D01*
X166340001Y-91882683D01*
X179218001Y-91882683D01*
X179218001Y-92115319D01*
X179263387Y-92343486D01*
X179352413Y-92558414D01*
X179481659Y-92751844D01*
X179646158Y-92916343D01*
X179839588Y-93045589D01*
X180054516Y-93134615D01*
X180282683Y-93180001D01*
X180515319Y-93180001D01*
X180743486Y-93134615D01*
X180958414Y-93045589D01*
X181151844Y-92916343D01*
X181316343Y-92751844D01*
X181445589Y-92558414D01*
X181534615Y-92343486D01*
X181580001Y-92115319D01*
X181580001Y-91882683D01*
X181534615Y-91654516D01*
X181445589Y-91439588D01*
X181316343Y-91246158D01*
X181151844Y-91081659D01*
X180958414Y-90952413D01*
X180743486Y-90863387D01*
X180515319Y-90818001D01*
X180282683Y-90818001D01*
X180054516Y-90863387D01*
X179839588Y-90952413D01*
X179646158Y-91081659D01*
X179481659Y-91246158D01*
X179352413Y-91439588D01*
X179263387Y-91654516D01*
X179218001Y-91882683D01*
X166340001Y-91882683D01*
X166294615Y-91654516D01*
X166205589Y-91439588D01*
X166076343Y-91246158D01*
X165911844Y-91081659D01*
X165718414Y-90952413D01*
X165503486Y-90863387D01*
X165275319Y-90818001D01*
X165042683Y-90818001D01*
X164814516Y-90863387D01*
X164599588Y-90952413D01*
X164406158Y-91081659D01*
X164241659Y-91246158D01*
X164112413Y-91439588D01*
X164023387Y-91654516D01*
X163978001Y-91882683D01*
X160426000Y-91882683D01*
X160426000Y-80568800D01*
X162494516Y-80568800D01*
X162515604Y-80782909D01*
X162578057Y-80988789D01*
X162679475Y-81178529D01*
X162815962Y-81344838D01*
X162982271Y-81481325D01*
X163172011Y-81582743D01*
X163377891Y-81645196D01*
X163538351Y-81661000D01*
X163923249Y-81661000D01*
X164083709Y-81645196D01*
X164096123Y-81641430D01*
X164078001Y-81732532D01*
X164078001Y-81945470D01*
X164096037Y-82036144D01*
X164083709Y-82032404D01*
X163923249Y-82016600D01*
X163538351Y-82016600D01*
X163377891Y-82032404D01*
X163172011Y-82094857D01*
X162982271Y-82196275D01*
X162815962Y-82332762D01*
X162679475Y-82499071D01*
X162578057Y-82688811D01*
X162515604Y-82894691D01*
X162494516Y-83108800D01*
X162515604Y-83322909D01*
X162578057Y-83528789D01*
X162679475Y-83718529D01*
X162815962Y-83884838D01*
X162982271Y-84021325D01*
X163172011Y-84122743D01*
X163377891Y-84185196D01*
X163538351Y-84201000D01*
X163923249Y-84201000D01*
X164083709Y-84185196D01*
X164096123Y-84181430D01*
X164078001Y-84272532D01*
X164078001Y-84485470D01*
X164096037Y-84576144D01*
X164083709Y-84572404D01*
X163923249Y-84556600D01*
X163538351Y-84556600D01*
X163377891Y-84572404D01*
X163172011Y-84634857D01*
X162982271Y-84736275D01*
X162815962Y-84872762D01*
X162679475Y-85039071D01*
X162578057Y-85228811D01*
X162515604Y-85434691D01*
X162494516Y-85648800D01*
X162515604Y-85862909D01*
X162578057Y-86068789D01*
X162679475Y-86258529D01*
X162815962Y-86424838D01*
X162982271Y-86561325D01*
X163172011Y-86662743D01*
X163377891Y-86725196D01*
X163538351Y-86741000D01*
X163923249Y-86741000D01*
X164083709Y-86725196D01*
X164096123Y-86721430D01*
X164078001Y-86812532D01*
X164078001Y-87025470D01*
X164119544Y-87234317D01*
X164201032Y-87431046D01*
X164319334Y-87608098D01*
X164469904Y-87758668D01*
X164646956Y-87876970D01*
X164843685Y-87958458D01*
X165052532Y-88000001D01*
X165265470Y-88000001D01*
X165354863Y-87982219D01*
X165334516Y-88188800D01*
X165354903Y-88395791D01*
X165265470Y-88378001D01*
X165052532Y-88378001D01*
X164843685Y-88419544D01*
X164646956Y-88501032D01*
X164469904Y-88619334D01*
X164319334Y-88769904D01*
X164201032Y-88946956D01*
X164119544Y-89143685D01*
X164078001Y-89352532D01*
X164078001Y-89565470D01*
X164119544Y-89774317D01*
X164201032Y-89971046D01*
X164319334Y-90148098D01*
X164469904Y-90298668D01*
X164646956Y-90416970D01*
X164843685Y-90498458D01*
X165052532Y-90540001D01*
X165265470Y-90540001D01*
X165474317Y-90498458D01*
X165671046Y-90416970D01*
X165848098Y-90298668D01*
X165998668Y-90148098D01*
X166116970Y-89971046D01*
X166198458Y-89774317D01*
X166240001Y-89565470D01*
X166240001Y-89352532D01*
X166222723Y-89265672D01*
X166378351Y-89281000D01*
X166763249Y-89281000D01*
X166923709Y-89265196D01*
X167129589Y-89202743D01*
X167319329Y-89101325D01*
X167485638Y-88964838D01*
X167622125Y-88798529D01*
X167723543Y-88608789D01*
X167785996Y-88402909D01*
X167807084Y-88188800D01*
X167796490Y-88081228D01*
X167868600Y-88081228D01*
X167868600Y-88296372D01*
X167910572Y-88507383D01*
X167992905Y-88706151D01*
X168112433Y-88885037D01*
X168264563Y-89037167D01*
X168443449Y-89156695D01*
X168642217Y-89239028D01*
X168853228Y-89281000D01*
X169068372Y-89281000D01*
X169279383Y-89239028D01*
X169478151Y-89156695D01*
X169657037Y-89037167D01*
X169809167Y-88885037D01*
X169928695Y-88706151D01*
X170011028Y-88507383D01*
X170053000Y-88296372D01*
X170053000Y-88081228D01*
X170408600Y-88081228D01*
X170408600Y-88296372D01*
X170450572Y-88507383D01*
X170532905Y-88706151D01*
X170652433Y-88885037D01*
X170804563Y-89037167D01*
X170983449Y-89156695D01*
X171182217Y-89239028D01*
X171393228Y-89281000D01*
X171608372Y-89281000D01*
X171819383Y-89239028D01*
X172018151Y-89156695D01*
X172197037Y-89037167D01*
X172349167Y-88885037D01*
X172468695Y-88706151D01*
X172551028Y-88507383D01*
X172593000Y-88296372D01*
X172593000Y-88081228D01*
X172948600Y-88081228D01*
X172948600Y-88296372D01*
X172990572Y-88507383D01*
X173072905Y-88706151D01*
X173192433Y-88885037D01*
X173344563Y-89037167D01*
X173523449Y-89156695D01*
X173722217Y-89239028D01*
X173933228Y-89281000D01*
X174148372Y-89281000D01*
X174359383Y-89239028D01*
X174558151Y-89156695D01*
X174737037Y-89037167D01*
X174889167Y-88885037D01*
X175008695Y-88706151D01*
X175091028Y-88507383D01*
X175133000Y-88296372D01*
X175133000Y-88081228D01*
X175488600Y-88081228D01*
X175488600Y-88296372D01*
X175530572Y-88507383D01*
X175612905Y-88706151D01*
X175732433Y-88885037D01*
X175884563Y-89037167D01*
X176063449Y-89156695D01*
X176262217Y-89239028D01*
X176473228Y-89281000D01*
X176688372Y-89281000D01*
X176899383Y-89239028D01*
X177098151Y-89156695D01*
X177277037Y-89037167D01*
X177429167Y-88885037D01*
X177548695Y-88706151D01*
X177631028Y-88507383D01*
X177673000Y-88296372D01*
X177673000Y-88081228D01*
X177631028Y-87870217D01*
X177548695Y-87671449D01*
X177429167Y-87492563D01*
X177277037Y-87340433D01*
X177098151Y-87220905D01*
X176899383Y-87138572D01*
X176688372Y-87096600D01*
X176473228Y-87096600D01*
X176262217Y-87138572D01*
X176063449Y-87220905D01*
X175884563Y-87340433D01*
X175732433Y-87492563D01*
X175612905Y-87671449D01*
X175530572Y-87870217D01*
X175488600Y-88081228D01*
X175133000Y-88081228D01*
X175091028Y-87870217D01*
X175008695Y-87671449D01*
X174889167Y-87492563D01*
X174737037Y-87340433D01*
X174558151Y-87220905D01*
X174359383Y-87138572D01*
X174148372Y-87096600D01*
X173933228Y-87096600D01*
X173722217Y-87138572D01*
X173523449Y-87220905D01*
X173344563Y-87340433D01*
X173192433Y-87492563D01*
X173072905Y-87671449D01*
X172990572Y-87870217D01*
X172948600Y-88081228D01*
X172593000Y-88081228D01*
X172551028Y-87870217D01*
X172468695Y-87671449D01*
X172349167Y-87492563D01*
X172197037Y-87340433D01*
X172018151Y-87220905D01*
X171819383Y-87138572D01*
X171608372Y-87096600D01*
X171393228Y-87096600D01*
X171182217Y-87138572D01*
X170983449Y-87220905D01*
X170804563Y-87340433D01*
X170652433Y-87492563D01*
X170532905Y-87671449D01*
X170450572Y-87870217D01*
X170408600Y-88081228D01*
X170053000Y-88081228D01*
X170011028Y-87870217D01*
X169928695Y-87671449D01*
X169809167Y-87492563D01*
X169657037Y-87340433D01*
X169478151Y-87220905D01*
X169279383Y-87138572D01*
X169068372Y-87096600D01*
X168853228Y-87096600D01*
X168642217Y-87138572D01*
X168443449Y-87220905D01*
X168264563Y-87340433D01*
X168112433Y-87492563D01*
X167992905Y-87671449D01*
X167910572Y-87870217D01*
X167868600Y-88081228D01*
X167796490Y-88081228D01*
X167785996Y-87974691D01*
X167723543Y-87768811D01*
X167622125Y-87579071D01*
X167485638Y-87412762D01*
X167319329Y-87276275D01*
X167282711Y-87256702D01*
X168086030Y-86453384D01*
X168105337Y-86437539D01*
X168150231Y-86382835D01*
X168264563Y-86497167D01*
X168443449Y-86616695D01*
X168642217Y-86699028D01*
X168853228Y-86741000D01*
X169068372Y-86741000D01*
X169279383Y-86699028D01*
X169478151Y-86616695D01*
X169657037Y-86497167D01*
X169809167Y-86345037D01*
X169928695Y-86166151D01*
X170011028Y-85967383D01*
X170053000Y-85756372D01*
X170053000Y-85541228D01*
X170408600Y-85541228D01*
X170408600Y-85756372D01*
X170450572Y-85967383D01*
X170532905Y-86166151D01*
X170652433Y-86345037D01*
X170804563Y-86497167D01*
X170983449Y-86616695D01*
X171182217Y-86699028D01*
X171393228Y-86741000D01*
X171608372Y-86741000D01*
X171819383Y-86699028D01*
X172018151Y-86616695D01*
X172197037Y-86497167D01*
X172349167Y-86345037D01*
X172468695Y-86166151D01*
X172551028Y-85967383D01*
X172593000Y-85756372D01*
X172593000Y-85541228D01*
X172948600Y-85541228D01*
X172948600Y-85756372D01*
X172990572Y-85967383D01*
X173072905Y-86166151D01*
X173192433Y-86345037D01*
X173344563Y-86497167D01*
X173523449Y-86616695D01*
X173722217Y-86699028D01*
X173933228Y-86741000D01*
X174148372Y-86741000D01*
X174359383Y-86699028D01*
X174558151Y-86616695D01*
X174737037Y-86497167D01*
X174889167Y-86345037D01*
X175008695Y-86166151D01*
X175091028Y-85967383D01*
X175133000Y-85756372D01*
X175133000Y-85541228D01*
X175488600Y-85541228D01*
X175488600Y-85756372D01*
X175530572Y-85967383D01*
X175612905Y-86166151D01*
X175732433Y-86345037D01*
X175884563Y-86497167D01*
X176063449Y-86616695D01*
X176262217Y-86699028D01*
X176473228Y-86741000D01*
X176688372Y-86741000D01*
X176899383Y-86699028D01*
X177098151Y-86616695D01*
X177277037Y-86497167D01*
X177429167Y-86345037D01*
X177548695Y-86166151D01*
X177631028Y-85967383D01*
X177673000Y-85756372D01*
X177673000Y-85541228D01*
X177631028Y-85330217D01*
X177548695Y-85131449D01*
X177429167Y-84952563D01*
X177277037Y-84800433D01*
X177098151Y-84680905D01*
X176899383Y-84598572D01*
X176688372Y-84556600D01*
X176473228Y-84556600D01*
X176262217Y-84598572D01*
X176063449Y-84680905D01*
X175884563Y-84800433D01*
X175732433Y-84952563D01*
X175612905Y-85131449D01*
X175530572Y-85330217D01*
X175488600Y-85541228D01*
X175133000Y-85541228D01*
X175091028Y-85330217D01*
X175008695Y-85131449D01*
X174889167Y-84952563D01*
X174737037Y-84800433D01*
X174558151Y-84680905D01*
X174359383Y-84598572D01*
X174148372Y-84556600D01*
X173933228Y-84556600D01*
X173722217Y-84598572D01*
X173523449Y-84680905D01*
X173344563Y-84800433D01*
X173192433Y-84952563D01*
X173072905Y-85131449D01*
X172990572Y-85330217D01*
X172948600Y-85541228D01*
X172593000Y-85541228D01*
X172551028Y-85330217D01*
X172468695Y-85131449D01*
X172349167Y-84952563D01*
X172197037Y-84800433D01*
X172018151Y-84680905D01*
X171819383Y-84598572D01*
X171608372Y-84556600D01*
X171393228Y-84556600D01*
X171182217Y-84598572D01*
X170983449Y-84680905D01*
X170804563Y-84800433D01*
X170652433Y-84952563D01*
X170532905Y-85131449D01*
X170450572Y-85330217D01*
X170408600Y-85541228D01*
X170053000Y-85541228D01*
X170011028Y-85330217D01*
X169928695Y-85131449D01*
X169809167Y-84952563D01*
X169657037Y-84800433D01*
X169478151Y-84680905D01*
X169279383Y-84598572D01*
X169068372Y-84556600D01*
X168853228Y-84556600D01*
X168642217Y-84598572D01*
X168443449Y-84680905D01*
X168264563Y-84800433D01*
X168251810Y-84813186D01*
X168251810Y-84458655D01*
X168254257Y-84433809D01*
X168251810Y-84408963D01*
X168251810Y-84408956D01*
X168244488Y-84334617D01*
X168215555Y-84239235D01*
X168168569Y-84151331D01*
X168105337Y-84074283D01*
X168086030Y-84058438D01*
X167665316Y-83637724D01*
X167723543Y-83528789D01*
X167785996Y-83322909D01*
X167807084Y-83108800D01*
X177734516Y-83108800D01*
X177755604Y-83322909D01*
X177818057Y-83528789D01*
X177919475Y-83718529D01*
X178055962Y-83884838D01*
X178222271Y-84021325D01*
X178412011Y-84122743D01*
X178617891Y-84185196D01*
X178778351Y-84201000D01*
X179163249Y-84201000D01*
X179323709Y-84185196D01*
X179336123Y-84181430D01*
X179318001Y-84272532D01*
X179318001Y-84485470D01*
X179336037Y-84576144D01*
X179323709Y-84572404D01*
X179163249Y-84556600D01*
X178778351Y-84556600D01*
X178617891Y-84572404D01*
X178412011Y-84634857D01*
X178222271Y-84736275D01*
X178055962Y-84872762D01*
X177919475Y-85039071D01*
X177818057Y-85228811D01*
X177755604Y-85434691D01*
X177734516Y-85648800D01*
X177755604Y-85862909D01*
X177818057Y-86068789D01*
X177919475Y-86258529D01*
X178055962Y-86424838D01*
X178222271Y-86561325D01*
X178412011Y-86662743D01*
X178617891Y-86725196D01*
X178778351Y-86741000D01*
X179163249Y-86741000D01*
X179323709Y-86725196D01*
X179336123Y-86721430D01*
X179318001Y-86812532D01*
X179318001Y-87025470D01*
X179336037Y-87116144D01*
X179323709Y-87112404D01*
X179163249Y-87096600D01*
X178778351Y-87096600D01*
X178617891Y-87112404D01*
X178412011Y-87174857D01*
X178222271Y-87276275D01*
X178055962Y-87412762D01*
X177919475Y-87579071D01*
X177818057Y-87768811D01*
X177755604Y-87974691D01*
X177734516Y-88188800D01*
X177755604Y-88402909D01*
X177818057Y-88608789D01*
X177919475Y-88798529D01*
X178055962Y-88964838D01*
X178222271Y-89101325D01*
X178412011Y-89202743D01*
X178617891Y-89265196D01*
X178778351Y-89281000D01*
X179163249Y-89281000D01*
X179323709Y-89265196D01*
X179336123Y-89261430D01*
X179318001Y-89352532D01*
X179318001Y-89565470D01*
X179359544Y-89774317D01*
X179441032Y-89971046D01*
X179559334Y-90148098D01*
X179709904Y-90298668D01*
X179886956Y-90416970D01*
X180083685Y-90498458D01*
X180292532Y-90540001D01*
X180505470Y-90540001D01*
X180714317Y-90498458D01*
X180911046Y-90416970D01*
X181088098Y-90298668D01*
X181238668Y-90148098D01*
X181356970Y-89971046D01*
X181438458Y-89774317D01*
X181480001Y-89565470D01*
X181480001Y-89352532D01*
X181438458Y-89143685D01*
X181356970Y-88946956D01*
X181238668Y-88769904D01*
X181088098Y-88619334D01*
X180911046Y-88501032D01*
X180714317Y-88419544D01*
X180505470Y-88378001D01*
X180292532Y-88378001D01*
X180186369Y-88399118D01*
X180207084Y-88188800D01*
X180186410Y-87978892D01*
X180292532Y-88000001D01*
X180505470Y-88000001D01*
X180714317Y-87958458D01*
X180911046Y-87876970D01*
X181088098Y-87758668D01*
X181238668Y-87608098D01*
X181356970Y-87431046D01*
X181438458Y-87234317D01*
X181480001Y-87025470D01*
X181480001Y-86812532D01*
X181462723Y-86725672D01*
X181618351Y-86741000D01*
X182003249Y-86741000D01*
X182163709Y-86725196D01*
X182369589Y-86662743D01*
X182559329Y-86561325D01*
X182725638Y-86424838D01*
X182862125Y-86258529D01*
X182963543Y-86068789D01*
X183025996Y-85862909D01*
X183047084Y-85648800D01*
X183025996Y-85434691D01*
X182963543Y-85228811D01*
X182862125Y-85039071D01*
X182725638Y-84872762D01*
X182559329Y-84736275D01*
X182369589Y-84634857D01*
X182163709Y-84572404D01*
X182003249Y-84556600D01*
X181618351Y-84556600D01*
X181462805Y-84571920D01*
X181480001Y-84485470D01*
X181480001Y-84272532D01*
X181462723Y-84185672D01*
X181618351Y-84201000D01*
X182003249Y-84201000D01*
X182163709Y-84185196D01*
X182369589Y-84122743D01*
X182559329Y-84021325D01*
X182725638Y-83884838D01*
X182862125Y-83718529D01*
X182963543Y-83528789D01*
X183025996Y-83322909D01*
X183047084Y-83108800D01*
X183025996Y-82894691D01*
X182963543Y-82688811D01*
X182862125Y-82499071D01*
X182725638Y-82332762D01*
X182559329Y-82196275D01*
X182369589Y-82094857D01*
X182163709Y-82032404D01*
X182003249Y-82016600D01*
X181618351Y-82016600D01*
X181462805Y-82031920D01*
X181480001Y-81945470D01*
X181480001Y-81732532D01*
X181462723Y-81645672D01*
X181618351Y-81661000D01*
X182003249Y-81661000D01*
X182163709Y-81645196D01*
X182369589Y-81582743D01*
X182559329Y-81481325D01*
X182725638Y-81344838D01*
X182862125Y-81178529D01*
X182963543Y-80988789D01*
X183025996Y-80782909D01*
X183047084Y-80568800D01*
X183025996Y-80354691D01*
X182963543Y-80148811D01*
X182862125Y-79959071D01*
X182725638Y-79792762D01*
X182559329Y-79656275D01*
X182369589Y-79554857D01*
X182163709Y-79492404D01*
X182003249Y-79476600D01*
X181618351Y-79476600D01*
X181599720Y-79478435D01*
X181568375Y-79426001D01*
X180526001Y-79426001D01*
X180526001Y-80469202D01*
X180581103Y-80501922D01*
X180574516Y-80568800D01*
X180594903Y-80775791D01*
X180505470Y-80758001D01*
X180327062Y-80758001D01*
X180290239Y-80695800D01*
X179097800Y-80695800D01*
X179097800Y-81756806D01*
X179308624Y-81900821D01*
X179318001Y-81898462D01*
X179318001Y-81945470D01*
X179336037Y-82036144D01*
X179323709Y-82032404D01*
X179163249Y-82016600D01*
X178778351Y-82016600D01*
X178617891Y-82032404D01*
X178412011Y-82094857D01*
X178222271Y-82196275D01*
X178055962Y-82332762D01*
X177919475Y-82499071D01*
X177818057Y-82688811D01*
X177755604Y-82894691D01*
X177734516Y-83108800D01*
X167807084Y-83108800D01*
X167785996Y-82894691D01*
X167723543Y-82688811D01*
X167622125Y-82499071D01*
X167485638Y-82332762D01*
X167319329Y-82196275D01*
X167129589Y-82094857D01*
X166923709Y-82032404D01*
X166763249Y-82016600D01*
X166378351Y-82016600D01*
X166222805Y-82031920D01*
X166240001Y-81945470D01*
X166240001Y-81732532D01*
X166222723Y-81645672D01*
X166378351Y-81661000D01*
X166763249Y-81661000D01*
X166923709Y-81645196D01*
X167129589Y-81582743D01*
X167319329Y-81481325D01*
X167485638Y-81344838D01*
X167622125Y-81178529D01*
X167723543Y-80988789D01*
X167749297Y-80903889D01*
X177528171Y-80903889D01*
X177613893Y-81143350D01*
X177749388Y-81369951D01*
X177926487Y-81565764D01*
X178138384Y-81723264D01*
X178376936Y-81836399D01*
X178632976Y-81900821D01*
X178843800Y-81756806D01*
X178843800Y-80695800D01*
X177651361Y-80695800D01*
X177528171Y-80903889D01*
X167749297Y-80903889D01*
X167785996Y-80782909D01*
X167807084Y-80568800D01*
X167785996Y-80354691D01*
X167749298Y-80233711D01*
X177528171Y-80233711D01*
X177651361Y-80441800D01*
X178843800Y-80441800D01*
X178843800Y-79380794D01*
X179097800Y-79380794D01*
X179097800Y-80441800D01*
X179721238Y-80441800D01*
X179819878Y-80501854D01*
X180065671Y-80591723D01*
X180272001Y-80469202D01*
X180272001Y-80441800D01*
X180290239Y-80441800D01*
X180413429Y-80233711D01*
X180327707Y-79994250D01*
X180272001Y-79901088D01*
X180272001Y-79426001D01*
X179818910Y-79426001D01*
X179803216Y-79414336D01*
X179564664Y-79301201D01*
X179308624Y-79236779D01*
X179097800Y-79380794D01*
X178843800Y-79380794D01*
X178632976Y-79236779D01*
X178376936Y-79301201D01*
X178138384Y-79414336D01*
X177926487Y-79571836D01*
X177749388Y-79767649D01*
X177613893Y-79994250D01*
X177528171Y-80233711D01*
X167749298Y-80233711D01*
X167723543Y-80148811D01*
X167622125Y-79959071D01*
X167485638Y-79792762D01*
X167319329Y-79656275D01*
X167129589Y-79554857D01*
X166923709Y-79492404D01*
X166763249Y-79476600D01*
X166378351Y-79476600D01*
X166359720Y-79478435D01*
X166328375Y-79426001D01*
X165286001Y-79426001D01*
X165286001Y-80469202D01*
X165341103Y-80501922D01*
X165334516Y-80568800D01*
X165354903Y-80775791D01*
X165265470Y-80758001D01*
X165052532Y-80758001D01*
X164946369Y-80779118D01*
X164967084Y-80568800D01*
X164961403Y-80511124D01*
X165032001Y-80469202D01*
X165032001Y-79426001D01*
X163989627Y-79426001D01*
X163957370Y-79479961D01*
X163923249Y-79476600D01*
X163538351Y-79476600D01*
X163377891Y-79492404D01*
X163172011Y-79554857D01*
X162982271Y-79656275D01*
X162815962Y-79792762D01*
X162679475Y-79959071D01*
X162578057Y-80148811D01*
X162515604Y-80354691D01*
X162494516Y-80568800D01*
X160426000Y-80568800D01*
X160426000Y-72519588D01*
X162047343Y-72519588D01*
X162049790Y-72544435D01*
X162049791Y-74138934D01*
X162047343Y-74163790D01*
X162057112Y-74262982D01*
X162086045Y-74358364D01*
X162086046Y-74358365D01*
X162133032Y-74446269D01*
X162196264Y-74523317D01*
X162215570Y-74539161D01*
X162636284Y-74959875D01*
X162578057Y-75068811D01*
X162515604Y-75274691D01*
X162494516Y-75488800D01*
X162515604Y-75702909D01*
X162578057Y-75908789D01*
X162679475Y-76098529D01*
X162815962Y-76264838D01*
X162982271Y-76401325D01*
X163172011Y-76502743D01*
X163377891Y-76565196D01*
X163538351Y-76581000D01*
X163923249Y-76581000D01*
X164083709Y-76565196D01*
X164096123Y-76561430D01*
X164078001Y-76652532D01*
X164078001Y-76865470D01*
X164096037Y-76956144D01*
X164083709Y-76952404D01*
X163923249Y-76936600D01*
X163538351Y-76936600D01*
X163377891Y-76952404D01*
X163172011Y-77014857D01*
X162982271Y-77116275D01*
X162815962Y-77252762D01*
X162679475Y-77419071D01*
X162578057Y-77608811D01*
X162515604Y-77814691D01*
X162494516Y-78028800D01*
X162515604Y-78242909D01*
X162578057Y-78448789D01*
X162679475Y-78638529D01*
X162815962Y-78804838D01*
X162982271Y-78941325D01*
X163172011Y-79042743D01*
X163377891Y-79105196D01*
X163538351Y-79121000D01*
X163923249Y-79121000D01*
X163957143Y-79117662D01*
X163989627Y-79172001D01*
X165032001Y-79172001D01*
X165032001Y-78363889D01*
X165128171Y-78363889D01*
X165213893Y-78603350D01*
X165286001Y-78723943D01*
X165286001Y-79172001D01*
X165723231Y-79172001D01*
X165738384Y-79183264D01*
X165976936Y-79296399D01*
X166232976Y-79360821D01*
X166443800Y-79216806D01*
X166443800Y-78978916D01*
X166451717Y-78965672D01*
X166443800Y-78939568D01*
X166443800Y-78155800D01*
X166697800Y-78155800D01*
X166697800Y-79216806D01*
X166908624Y-79360821D01*
X167164664Y-79296399D01*
X167403216Y-79183264D01*
X167615113Y-79025764D01*
X167792212Y-78829951D01*
X167927707Y-78603350D01*
X168013429Y-78363889D01*
X167890239Y-78155800D01*
X166697800Y-78155800D01*
X166443800Y-78155800D01*
X165836104Y-78155800D01*
X165738124Y-78096148D01*
X165492331Y-78006279D01*
X165286001Y-78128800D01*
X165286001Y-78155800D01*
X165251361Y-78155800D01*
X165128171Y-78363889D01*
X165032001Y-78363889D01*
X165032001Y-78128800D01*
X164961366Y-78086856D01*
X164967084Y-78028800D01*
X164946410Y-77818892D01*
X165052532Y-77840001D01*
X165214776Y-77840001D01*
X165251361Y-77901800D01*
X166443800Y-77901800D01*
X166443800Y-76840794D01*
X166697800Y-76840794D01*
X166697800Y-77901800D01*
X167890239Y-77901800D01*
X168013429Y-77693711D01*
X167927707Y-77454250D01*
X167792212Y-77227649D01*
X167615113Y-77031836D01*
X167403216Y-76874336D01*
X167164664Y-76761201D01*
X166908624Y-76696779D01*
X166697800Y-76840794D01*
X166443800Y-76840794D01*
X166240001Y-76701578D01*
X166240001Y-76652532D01*
X166222723Y-76565672D01*
X166378351Y-76581000D01*
X166763249Y-76581000D01*
X166923709Y-76565196D01*
X167129589Y-76502743D01*
X167319329Y-76401325D01*
X167485638Y-76264838D01*
X167622125Y-76098529D01*
X167723543Y-75908789D01*
X167785996Y-75702909D01*
X167807084Y-75488800D01*
X167785996Y-75274691D01*
X167723543Y-75068811D01*
X167622125Y-74879071D01*
X167485638Y-74712762D01*
X167319329Y-74576275D01*
X167129589Y-74474857D01*
X166923709Y-74412404D01*
X166763249Y-74396600D01*
X166378351Y-74396600D01*
X166222805Y-74411920D01*
X166240001Y-74325470D01*
X166240001Y-74112532D01*
X166222723Y-74025672D01*
X166378351Y-74041000D01*
X166763249Y-74041000D01*
X166923709Y-74025196D01*
X167129589Y-73962743D01*
X167319329Y-73861325D01*
X167485638Y-73724838D01*
X167622125Y-73558529D01*
X167723543Y-73368789D01*
X167785996Y-73162909D01*
X167807084Y-72948800D01*
X167796490Y-72841228D01*
X167868600Y-72841228D01*
X167868600Y-73056372D01*
X167910572Y-73267383D01*
X167992905Y-73466151D01*
X168112433Y-73645037D01*
X168264563Y-73797167D01*
X168443449Y-73916695D01*
X168642217Y-73999028D01*
X168853228Y-74041000D01*
X169068372Y-74041000D01*
X169279383Y-73999028D01*
X169478151Y-73916695D01*
X169657037Y-73797167D01*
X169809167Y-73645037D01*
X169928695Y-73466151D01*
X170011028Y-73267383D01*
X170053000Y-73056372D01*
X170053000Y-72841228D01*
X170408600Y-72841228D01*
X170408600Y-73056372D01*
X170450572Y-73267383D01*
X170532905Y-73466151D01*
X170652433Y-73645037D01*
X170804563Y-73797167D01*
X170983449Y-73916695D01*
X171182217Y-73999028D01*
X171393228Y-74041000D01*
X171608372Y-74041000D01*
X171819383Y-73999028D01*
X172018151Y-73916695D01*
X172197037Y-73797167D01*
X172349167Y-73645037D01*
X172468695Y-73466151D01*
X172551028Y-73267383D01*
X172593000Y-73056372D01*
X172593000Y-72841228D01*
X172551028Y-72630217D01*
X172468695Y-72431449D01*
X172349167Y-72252563D01*
X172334204Y-72237600D01*
X172946757Y-72237600D01*
X172946757Y-73660000D01*
X172954113Y-73734689D01*
X172975899Y-73806508D01*
X173011278Y-73872696D01*
X173058889Y-73930711D01*
X173116904Y-73978322D01*
X173183092Y-74013701D01*
X173254911Y-74035487D01*
X173329600Y-74042843D01*
X174752000Y-74042843D01*
X174826689Y-74035487D01*
X174898508Y-74013701D01*
X174964696Y-73978322D01*
X175022711Y-73930711D01*
X175070322Y-73872696D01*
X175105701Y-73806508D01*
X175127487Y-73734689D01*
X175134843Y-73660000D01*
X175134843Y-72237600D01*
X175127487Y-72162911D01*
X175105701Y-72091092D01*
X175070322Y-72024904D01*
X175022711Y-71966889D01*
X174964696Y-71919278D01*
X174898508Y-71883899D01*
X174826689Y-71862113D01*
X174752000Y-71854757D01*
X173329600Y-71854757D01*
X173254911Y-71862113D01*
X173183092Y-71883899D01*
X173116904Y-71919278D01*
X173058889Y-71966889D01*
X173011278Y-72024904D01*
X172975899Y-72091092D01*
X172954113Y-72162911D01*
X172946757Y-72237600D01*
X172334204Y-72237600D01*
X172197037Y-72100433D01*
X172018151Y-71980905D01*
X171819383Y-71898572D01*
X171608372Y-71856600D01*
X171393228Y-71856600D01*
X171182217Y-71898572D01*
X170983449Y-71980905D01*
X170804563Y-72100433D01*
X170652433Y-72252563D01*
X170532905Y-72431449D01*
X170450572Y-72630217D01*
X170408600Y-72841228D01*
X170053000Y-72841228D01*
X170011028Y-72630217D01*
X169928695Y-72431449D01*
X169809167Y-72252563D01*
X169657037Y-72100433D01*
X169478151Y-71980905D01*
X169279383Y-71898572D01*
X169068372Y-71856600D01*
X168853228Y-71856600D01*
X168642217Y-71898572D01*
X168443449Y-71980905D01*
X168264563Y-72100433D01*
X168112433Y-72252563D01*
X167992905Y-72431449D01*
X167910572Y-72630217D01*
X167868600Y-72841228D01*
X167796490Y-72841228D01*
X167785996Y-72734691D01*
X167723543Y-72528811D01*
X167665316Y-72419876D01*
X168086030Y-71999162D01*
X168105337Y-71983317D01*
X168168569Y-71906269D01*
X168215555Y-71818365D01*
X168225533Y-71785470D01*
X168244488Y-71722984D01*
X168248820Y-71679001D01*
X168251810Y-71648644D01*
X168251810Y-71648637D01*
X168254257Y-71623791D01*
X168251810Y-71598945D01*
X168251810Y-71244414D01*
X168264563Y-71257167D01*
X168443449Y-71376695D01*
X168642217Y-71459028D01*
X168853228Y-71501000D01*
X169068372Y-71501000D01*
X169279383Y-71459028D01*
X169478151Y-71376695D01*
X169657037Y-71257167D01*
X169809167Y-71105037D01*
X169928695Y-70926151D01*
X170011028Y-70727383D01*
X170053000Y-70516372D01*
X170053000Y-70301228D01*
X170408600Y-70301228D01*
X170408600Y-70516372D01*
X170450572Y-70727383D01*
X170532905Y-70926151D01*
X170652433Y-71105037D01*
X170804563Y-71257167D01*
X170983449Y-71376695D01*
X171182217Y-71459028D01*
X171393228Y-71501000D01*
X171608372Y-71501000D01*
X171819383Y-71459028D01*
X172018151Y-71376695D01*
X172197037Y-71257167D01*
X172349167Y-71105037D01*
X172468695Y-70926151D01*
X172551028Y-70727383D01*
X172593000Y-70516372D01*
X172593000Y-70301228D01*
X172551028Y-70090217D01*
X172468695Y-69891449D01*
X172349167Y-69712563D01*
X172197037Y-69560433D01*
X172018151Y-69440905D01*
X171819383Y-69358572D01*
X171608372Y-69316600D01*
X171393228Y-69316600D01*
X171182217Y-69358572D01*
X170983449Y-69440905D01*
X170804563Y-69560433D01*
X170652433Y-69712563D01*
X170532905Y-69891449D01*
X170450572Y-70090217D01*
X170408600Y-70301228D01*
X170053000Y-70301228D01*
X170011028Y-70090217D01*
X169928695Y-69891449D01*
X169809167Y-69712563D01*
X169657037Y-69560433D01*
X169478151Y-69440905D01*
X169279383Y-69358572D01*
X169068372Y-69316600D01*
X168853228Y-69316600D01*
X168642217Y-69358572D01*
X168443449Y-69440905D01*
X168264563Y-69560433D01*
X168150231Y-69674765D01*
X168105337Y-69620061D01*
X168086030Y-69604216D01*
X167280599Y-68798786D01*
X167264750Y-68779474D01*
X167187702Y-68716242D01*
X167099798Y-68669256D01*
X167004416Y-68640323D01*
X166930077Y-68633001D01*
X166930069Y-68633001D01*
X166905223Y-68630554D01*
X166880377Y-68633001D01*
X166119474Y-68633001D01*
X166116970Y-68626956D01*
X165998668Y-68449904D01*
X165848098Y-68299334D01*
X165671046Y-68181032D01*
X165474317Y-68099544D01*
X165265470Y-68058001D01*
X165052532Y-68058001D01*
X164843685Y-68099544D01*
X164646956Y-68181032D01*
X164469904Y-68299334D01*
X164319334Y-68449904D01*
X164201032Y-68626956D01*
X164119544Y-68823685D01*
X164078001Y-69032532D01*
X164078001Y-69245470D01*
X164119544Y-69454317D01*
X164201032Y-69651046D01*
X164319334Y-69828098D01*
X164469904Y-69978668D01*
X164646956Y-70096970D01*
X164843685Y-70178458D01*
X165052532Y-70220001D01*
X165265470Y-70220001D01*
X165354863Y-70202219D01*
X165334516Y-70408800D01*
X165354903Y-70615791D01*
X165265470Y-70598001D01*
X165052532Y-70598001D01*
X164843685Y-70639544D01*
X164646956Y-70721032D01*
X164469904Y-70839334D01*
X164319334Y-70989904D01*
X164201032Y-71166956D01*
X164198528Y-71173001D01*
X163421231Y-71173001D01*
X163396377Y-71170553D01*
X163371523Y-71173001D01*
X163297184Y-71180323D01*
X163201802Y-71209256D01*
X163113898Y-71256242D01*
X163036850Y-71319474D01*
X163021005Y-71338781D01*
X162215575Y-72144212D01*
X162196263Y-72160061D01*
X162133031Y-72237109D01*
X162086045Y-72325014D01*
X162057112Y-72420396D01*
X162049790Y-72494735D01*
X162049790Y-72494742D01*
X162047343Y-72519588D01*
X160426000Y-72519588D01*
X160426000Y-66482683D01*
X163978001Y-66482683D01*
X163978001Y-66715319D01*
X164023387Y-66943486D01*
X164112413Y-67158414D01*
X164241659Y-67351844D01*
X164406158Y-67516343D01*
X164599588Y-67645589D01*
X164814516Y-67734615D01*
X165042683Y-67780001D01*
X165275319Y-67780001D01*
X165503486Y-67734615D01*
X165718414Y-67645589D01*
X165911844Y-67516343D01*
X166076343Y-67351844D01*
X166205589Y-67158414D01*
X166294615Y-66943486D01*
X166340001Y-66715319D01*
X166340001Y-66515000D01*
X171491928Y-66515000D01*
X171504188Y-66639482D01*
X171540498Y-66759180D01*
X171599463Y-66869494D01*
X171678815Y-66966185D01*
X171775506Y-67045537D01*
X171885820Y-67104502D01*
X172005518Y-67140812D01*
X172130000Y-67153072D01*
X172281750Y-67150000D01*
X172440500Y-66991250D01*
X172440500Y-66167000D01*
X171653750Y-66167000D01*
X171495000Y-66325750D01*
X171491928Y-66515000D01*
X166340001Y-66515000D01*
X166340001Y-66482683D01*
X166294615Y-66254516D01*
X166205589Y-66039588D01*
X166076343Y-65846158D01*
X165911844Y-65681659D01*
X165737252Y-65565000D01*
X171491928Y-65565000D01*
X171495000Y-65754250D01*
X171653750Y-65913000D01*
X172440500Y-65913000D01*
X172440500Y-65088750D01*
X172694500Y-65088750D01*
X172694500Y-65913000D01*
X172714500Y-65913000D01*
X172714500Y-66167000D01*
X172694500Y-66167000D01*
X172694500Y-66991250D01*
X172853250Y-67150000D01*
X173005000Y-67153072D01*
X173129482Y-67140812D01*
X173249180Y-67104502D01*
X173359494Y-67045537D01*
X173456185Y-66966185D01*
X173534801Y-66870391D01*
X173534800Y-69436203D01*
X173523449Y-69440905D01*
X173344563Y-69560433D01*
X173192433Y-69712563D01*
X173072905Y-69891449D01*
X172990572Y-70090217D01*
X172948600Y-70301228D01*
X172948600Y-70516372D01*
X172990572Y-70727383D01*
X173072905Y-70926151D01*
X173192433Y-71105037D01*
X173344563Y-71257167D01*
X173523449Y-71376695D01*
X173722217Y-71459028D01*
X173933228Y-71501000D01*
X174148372Y-71501000D01*
X174359383Y-71459028D01*
X174558151Y-71376695D01*
X174737037Y-71257167D01*
X174889167Y-71105037D01*
X175008695Y-70926151D01*
X175091028Y-70727383D01*
X175133000Y-70516372D01*
X175133000Y-70301228D01*
X175488600Y-70301228D01*
X175488600Y-70516372D01*
X175530572Y-70727383D01*
X175612905Y-70926151D01*
X175732433Y-71105037D01*
X175884563Y-71257167D01*
X176063449Y-71376695D01*
X176262217Y-71459028D01*
X176473228Y-71501000D01*
X176688372Y-71501000D01*
X176899383Y-71459028D01*
X177098151Y-71376695D01*
X177277037Y-71257167D01*
X177289790Y-71244414D01*
X177289791Y-72113187D01*
X177277037Y-72100433D01*
X177098151Y-71980905D01*
X176899383Y-71898572D01*
X176688372Y-71856600D01*
X176473228Y-71856600D01*
X176262217Y-71898572D01*
X176063449Y-71980905D01*
X175884563Y-72100433D01*
X175732433Y-72252563D01*
X175612905Y-72431449D01*
X175530572Y-72630217D01*
X175488600Y-72841228D01*
X175488600Y-73056372D01*
X175530572Y-73267383D01*
X175612905Y-73466151D01*
X175732433Y-73645037D01*
X175884563Y-73797167D01*
X176063449Y-73916695D01*
X176262217Y-73999028D01*
X176473228Y-74041000D01*
X176688372Y-74041000D01*
X176899383Y-73999028D01*
X177098151Y-73916695D01*
X177277037Y-73797167D01*
X177289791Y-73784413D01*
X177289791Y-74138934D01*
X177287343Y-74163790D01*
X177297112Y-74262982D01*
X177326045Y-74358364D01*
X177326046Y-74358365D01*
X177373032Y-74446269D01*
X177436264Y-74523317D01*
X177455570Y-74539161D01*
X177876284Y-74959875D01*
X177818057Y-75068811D01*
X177755604Y-75274691D01*
X177734516Y-75488800D01*
X177755604Y-75702909D01*
X177818057Y-75908789D01*
X177919475Y-76098529D01*
X178055962Y-76264838D01*
X178222271Y-76401325D01*
X178412011Y-76502743D01*
X178617891Y-76565196D01*
X178778351Y-76581000D01*
X179163249Y-76581000D01*
X179323709Y-76565196D01*
X179336123Y-76561430D01*
X179318001Y-76652532D01*
X179318001Y-76865470D01*
X179336037Y-76956144D01*
X179323709Y-76952404D01*
X179163249Y-76936600D01*
X178778351Y-76936600D01*
X178617891Y-76952404D01*
X178412011Y-77014857D01*
X178222271Y-77116275D01*
X178055962Y-77252762D01*
X177919475Y-77419071D01*
X177818057Y-77608811D01*
X177755604Y-77814691D01*
X177734516Y-78028800D01*
X177755604Y-78242909D01*
X177818057Y-78448789D01*
X177919475Y-78638529D01*
X178055962Y-78804838D01*
X178222271Y-78941325D01*
X178412011Y-79042743D01*
X178617891Y-79105196D01*
X178778351Y-79121000D01*
X179163249Y-79121000D01*
X179197143Y-79117662D01*
X179229627Y-79172001D01*
X180272001Y-79172001D01*
X180272001Y-78128800D01*
X180201366Y-78086856D01*
X180207084Y-78028800D01*
X180186410Y-77818892D01*
X180292532Y-77840001D01*
X180505470Y-77840001D01*
X180594863Y-77822219D01*
X180574516Y-78028800D01*
X180581140Y-78096058D01*
X180526001Y-78128800D01*
X180526001Y-79172001D01*
X181568375Y-79172001D01*
X181599947Y-79119187D01*
X181618351Y-79121000D01*
X182003249Y-79121000D01*
X182163709Y-79105196D01*
X182369589Y-79042743D01*
X182559329Y-78941325D01*
X182725638Y-78804838D01*
X182862125Y-78638529D01*
X182963543Y-78448789D01*
X183025996Y-78242909D01*
X183047084Y-78028800D01*
X183025996Y-77814691D01*
X182963543Y-77608811D01*
X182862125Y-77419071D01*
X182725638Y-77252762D01*
X182559329Y-77116275D01*
X182369589Y-77014857D01*
X182163709Y-76952404D01*
X182003249Y-76936600D01*
X181618351Y-76936600D01*
X181462805Y-76951920D01*
X181480001Y-76865470D01*
X181480001Y-76652532D01*
X181462723Y-76565672D01*
X181618351Y-76581000D01*
X182003249Y-76581000D01*
X182163709Y-76565196D01*
X182369589Y-76502743D01*
X182559329Y-76401325D01*
X182725638Y-76264838D01*
X182862125Y-76098529D01*
X182963543Y-75908789D01*
X183025996Y-75702909D01*
X183047084Y-75488800D01*
X183025996Y-75274691D01*
X182963543Y-75068811D01*
X182905316Y-74959876D01*
X183326030Y-74539162D01*
X183345337Y-74523317D01*
X183408569Y-74446269D01*
X183455555Y-74358365D01*
X183484488Y-74262983D01*
X183491810Y-74188644D01*
X183491810Y-74188637D01*
X183494257Y-74163791D01*
X183491810Y-74138945D01*
X183491810Y-72544442D01*
X183494258Y-72519588D01*
X183484488Y-72420395D01*
X183455555Y-72325013D01*
X183416829Y-72252563D01*
X183408569Y-72237109D01*
X183345337Y-72160061D01*
X183326030Y-72144216D01*
X182520599Y-71338786D01*
X182504750Y-71319474D01*
X182427702Y-71256242D01*
X182339798Y-71209256D01*
X182244416Y-71180323D01*
X182170077Y-71173001D01*
X182170069Y-71173001D01*
X182145223Y-71170554D01*
X182120377Y-71173001D01*
X181359474Y-71173001D01*
X181356970Y-71166956D01*
X181238668Y-70989904D01*
X181088098Y-70839334D01*
X180911046Y-70721032D01*
X180714317Y-70639544D01*
X180505470Y-70598001D01*
X180292532Y-70598001D01*
X180186369Y-70619118D01*
X180207084Y-70408800D01*
X180186410Y-70198892D01*
X180292532Y-70220001D01*
X180505470Y-70220001D01*
X180714317Y-70178458D01*
X180911046Y-70096970D01*
X181088098Y-69978668D01*
X181238668Y-69828098D01*
X181356970Y-69651046D01*
X181438458Y-69454317D01*
X181480001Y-69245470D01*
X181480001Y-69032532D01*
X181438458Y-68823685D01*
X181356970Y-68626956D01*
X181238668Y-68449904D01*
X181088098Y-68299334D01*
X180911046Y-68181032D01*
X180714317Y-68099544D01*
X180505470Y-68058001D01*
X180292532Y-68058001D01*
X180083685Y-68099544D01*
X179886956Y-68181032D01*
X179709904Y-68299334D01*
X179559334Y-68449904D01*
X179441032Y-68626956D01*
X179438528Y-68633001D01*
X178661231Y-68633001D01*
X178636377Y-68630553D01*
X178611523Y-68633001D01*
X178537184Y-68640323D01*
X178441802Y-68669256D01*
X178353898Y-68716242D01*
X178276850Y-68779474D01*
X178261005Y-68798781D01*
X177455575Y-69604212D01*
X177436263Y-69620061D01*
X177391369Y-69674765D01*
X177277037Y-69560433D01*
X177098151Y-69440905D01*
X176899383Y-69358572D01*
X176688372Y-69316600D01*
X176473228Y-69316600D01*
X176262217Y-69358572D01*
X176063449Y-69440905D01*
X175884563Y-69560433D01*
X175732433Y-69712563D01*
X175612905Y-69891449D01*
X175530572Y-70090217D01*
X175488600Y-70301228D01*
X175133000Y-70301228D01*
X175091028Y-70090217D01*
X175008695Y-69891449D01*
X174889167Y-69712563D01*
X174737037Y-69560433D01*
X174558151Y-69440905D01*
X174546800Y-69436203D01*
X174546800Y-66865600D01*
X174591470Y-66852049D01*
X174695477Y-66796456D01*
X174786640Y-66721640D01*
X174861456Y-66630477D01*
X174917049Y-66526470D01*
X174930331Y-66482683D01*
X179218001Y-66482683D01*
X179218001Y-66715319D01*
X179263387Y-66943486D01*
X179352413Y-67158414D01*
X179481659Y-67351844D01*
X179646158Y-67516343D01*
X179839588Y-67645589D01*
X180054516Y-67734615D01*
X180282683Y-67780001D01*
X180515319Y-67780001D01*
X180743486Y-67734615D01*
X180958414Y-67645589D01*
X181151844Y-67516343D01*
X181316343Y-67351844D01*
X181445589Y-67158414D01*
X181534615Y-66943486D01*
X181580001Y-66715319D01*
X181580001Y-66482683D01*
X181534615Y-66254516D01*
X181445589Y-66039588D01*
X181316343Y-65846158D01*
X181151844Y-65681659D01*
X180958414Y-65552413D01*
X180743486Y-65463387D01*
X180515319Y-65418001D01*
X180282683Y-65418001D01*
X180054516Y-65463387D01*
X179839588Y-65552413D01*
X179646158Y-65681659D01*
X179481659Y-65846158D01*
X179352413Y-66039588D01*
X179263387Y-66254516D01*
X179218001Y-66482683D01*
X174930331Y-66482683D01*
X174951284Y-66413615D01*
X174962843Y-66296250D01*
X174962843Y-65783750D01*
X174951284Y-65666385D01*
X174917049Y-65553530D01*
X174861456Y-65449523D01*
X174786640Y-65358360D01*
X174695477Y-65283544D01*
X174614929Y-65240490D01*
X174682113Y-65139942D01*
X174740987Y-64997809D01*
X174771000Y-64846922D01*
X174771000Y-64693078D01*
X174740987Y-64542191D01*
X174682113Y-64400058D01*
X174596642Y-64272141D01*
X174487859Y-64163358D01*
X174359942Y-64077887D01*
X174217809Y-64019013D01*
X174066922Y-63989000D01*
X173913078Y-63989000D01*
X173762191Y-64019013D01*
X173620058Y-64077887D01*
X173492141Y-64163358D01*
X173383358Y-64272141D01*
X173297887Y-64400058D01*
X173239013Y-64542191D01*
X173209000Y-64693078D01*
X173209000Y-64846922D01*
X173233637Y-64970783D01*
X173129482Y-64939188D01*
X173005000Y-64926928D01*
X172853250Y-64930000D01*
X172694500Y-65088750D01*
X172440500Y-65088750D01*
X172281750Y-64930000D01*
X172130000Y-64926928D01*
X172005518Y-64939188D01*
X171885820Y-64975498D01*
X171775506Y-65034463D01*
X171678815Y-65113815D01*
X171599463Y-65210506D01*
X171540498Y-65320820D01*
X171504188Y-65440518D01*
X171491928Y-65565000D01*
X165737252Y-65565000D01*
X165718414Y-65552413D01*
X165503486Y-65463387D01*
X165275319Y-65418001D01*
X165042683Y-65418001D01*
X164814516Y-65463387D01*
X164599588Y-65552413D01*
X164406158Y-65681659D01*
X164241659Y-65846158D01*
X164112413Y-66039588D01*
X164023387Y-66254516D01*
X163978001Y-66482683D01*
X160426000Y-66482683D01*
X160426000Y-63942683D01*
X163978001Y-63942683D01*
X163978001Y-64175319D01*
X164023387Y-64403486D01*
X164112413Y-64618414D01*
X164241659Y-64811844D01*
X164406158Y-64976343D01*
X164599588Y-65105589D01*
X164814516Y-65194615D01*
X165042683Y-65240001D01*
X165275319Y-65240001D01*
X165503486Y-65194615D01*
X165718414Y-65105589D01*
X165911844Y-64976343D01*
X166076343Y-64811844D01*
X166205589Y-64618414D01*
X166294615Y-64403486D01*
X166340001Y-64175319D01*
X166340001Y-63942683D01*
X179218001Y-63942683D01*
X179218001Y-64175319D01*
X179263387Y-64403486D01*
X179352413Y-64618414D01*
X179481659Y-64811844D01*
X179646158Y-64976343D01*
X179839588Y-65105589D01*
X180054516Y-65194615D01*
X180282683Y-65240001D01*
X180515319Y-65240001D01*
X180743486Y-65194615D01*
X180958414Y-65105589D01*
X181151844Y-64976343D01*
X181316343Y-64811844D01*
X181445589Y-64618414D01*
X181534615Y-64403486D01*
X181580001Y-64175319D01*
X181580001Y-63942683D01*
X181534615Y-63714516D01*
X181445589Y-63499588D01*
X181316343Y-63306158D01*
X181151844Y-63141659D01*
X180958414Y-63012413D01*
X180743486Y-62923387D01*
X180515319Y-62878001D01*
X180282683Y-62878001D01*
X180054516Y-62923387D01*
X179839588Y-63012413D01*
X179646158Y-63141659D01*
X179481659Y-63306158D01*
X179352413Y-63499588D01*
X179263387Y-63714516D01*
X179218001Y-63942683D01*
X166340001Y-63942683D01*
X166294615Y-63714516D01*
X166205589Y-63499588D01*
X166076343Y-63306158D01*
X165911844Y-63141659D01*
X165718414Y-63012413D01*
X165503486Y-62923387D01*
X165275319Y-62878001D01*
X165042683Y-62878001D01*
X164814516Y-62923387D01*
X164599588Y-63012413D01*
X164406158Y-63141659D01*
X164241659Y-63306158D01*
X164112413Y-63499588D01*
X164023387Y-63714516D01*
X163978001Y-63942683D01*
X160426000Y-63942683D01*
X160426000Y-61402683D01*
X163978001Y-61402683D01*
X163978001Y-61635319D01*
X164023387Y-61863486D01*
X164112413Y-62078414D01*
X164241659Y-62271844D01*
X164406158Y-62436343D01*
X164599588Y-62565589D01*
X164814516Y-62654615D01*
X165042683Y-62700001D01*
X165275319Y-62700001D01*
X165503486Y-62654615D01*
X165718414Y-62565589D01*
X165911844Y-62436343D01*
X166076343Y-62271844D01*
X166205589Y-62078414D01*
X166294615Y-61863486D01*
X166340001Y-61635319D01*
X166340001Y-61402683D01*
X179218001Y-61402683D01*
X179218001Y-61635319D01*
X179263387Y-61863486D01*
X179352413Y-62078414D01*
X179481659Y-62271844D01*
X179646158Y-62436343D01*
X179839588Y-62565589D01*
X180054516Y-62654615D01*
X180282683Y-62700001D01*
X180515319Y-62700001D01*
X180743486Y-62654615D01*
X180958414Y-62565589D01*
X181151844Y-62436343D01*
X181316343Y-62271844D01*
X181445589Y-62078414D01*
X181534615Y-61863486D01*
X181580001Y-61635319D01*
X181580001Y-61402683D01*
X181534615Y-61174516D01*
X181445589Y-60959588D01*
X181316343Y-60766158D01*
X181151844Y-60601659D01*
X180958414Y-60472413D01*
X180743486Y-60383387D01*
X180515319Y-60338001D01*
X180282683Y-60338001D01*
X180054516Y-60383387D01*
X179839588Y-60472413D01*
X179646158Y-60601659D01*
X179481659Y-60766158D01*
X179352413Y-60959588D01*
X179263387Y-61174516D01*
X179218001Y-61402683D01*
X166340001Y-61402683D01*
X166294615Y-61174516D01*
X166205589Y-60959588D01*
X166076343Y-60766158D01*
X165911844Y-60601659D01*
X165718414Y-60472413D01*
X165503486Y-60383387D01*
X165275319Y-60338001D01*
X165042683Y-60338001D01*
X164814516Y-60383387D01*
X164599588Y-60472413D01*
X164406158Y-60601659D01*
X164241659Y-60766158D01*
X164112413Y-60959588D01*
X164023387Y-61174516D01*
X163978001Y-61402683D01*
X160426000Y-61402683D01*
X160426000Y-58862683D01*
X163978001Y-58862683D01*
X163978001Y-59095319D01*
X164023387Y-59323486D01*
X164112413Y-59538414D01*
X164241659Y-59731844D01*
X164406158Y-59896343D01*
X164599588Y-60025589D01*
X164814516Y-60114615D01*
X165042683Y-60160001D01*
X165275319Y-60160001D01*
X165503486Y-60114615D01*
X165718414Y-60025589D01*
X165911844Y-59896343D01*
X166076343Y-59731844D01*
X166205589Y-59538414D01*
X166294615Y-59323486D01*
X166340001Y-59095319D01*
X166340001Y-58862683D01*
X179218001Y-58862683D01*
X179218001Y-59095319D01*
X179263387Y-59323486D01*
X179352413Y-59538414D01*
X179481659Y-59731844D01*
X179646158Y-59896343D01*
X179839588Y-60025589D01*
X180054516Y-60114615D01*
X180282683Y-60160001D01*
X180515319Y-60160001D01*
X180743486Y-60114615D01*
X180958414Y-60025589D01*
X181151844Y-59896343D01*
X181316343Y-59731844D01*
X181445589Y-59538414D01*
X181534615Y-59323486D01*
X181580001Y-59095319D01*
X181580001Y-58862683D01*
X181534615Y-58634516D01*
X181445589Y-58419588D01*
X181316343Y-58226158D01*
X181151844Y-58061659D01*
X180958414Y-57932413D01*
X180743486Y-57843387D01*
X180515319Y-57798001D01*
X180282683Y-57798001D01*
X180054516Y-57843387D01*
X179839588Y-57932413D01*
X179646158Y-58061659D01*
X179481659Y-58226158D01*
X179352413Y-58419588D01*
X179263387Y-58634516D01*
X179218001Y-58862683D01*
X166340001Y-58862683D01*
X166294615Y-58634516D01*
X166205589Y-58419588D01*
X166076343Y-58226158D01*
X165911844Y-58061659D01*
X165718414Y-57932413D01*
X165503486Y-57843387D01*
X165275319Y-57798001D01*
X165042683Y-57798001D01*
X164814516Y-57843387D01*
X164599588Y-57932413D01*
X164406158Y-58061659D01*
X164241659Y-58226158D01*
X164112413Y-58419588D01*
X164023387Y-58634516D01*
X163978001Y-58862683D01*
X160426000Y-58862683D01*
X160426000Y-56322683D01*
X163978001Y-56322683D01*
X163978001Y-56555319D01*
X164023387Y-56783486D01*
X164112413Y-56998414D01*
X164241659Y-57191844D01*
X164406158Y-57356343D01*
X164599588Y-57485589D01*
X164814516Y-57574615D01*
X165042683Y-57620001D01*
X165275319Y-57620001D01*
X165503486Y-57574615D01*
X165718414Y-57485589D01*
X165911844Y-57356343D01*
X166076343Y-57191844D01*
X166205589Y-56998414D01*
X166294615Y-56783486D01*
X166340001Y-56555319D01*
X166340001Y-56322683D01*
X179218001Y-56322683D01*
X179218001Y-56555319D01*
X179263387Y-56783486D01*
X179352413Y-56998414D01*
X179481659Y-57191844D01*
X179646158Y-57356343D01*
X179839588Y-57485589D01*
X180054516Y-57574615D01*
X180282683Y-57620001D01*
X180515319Y-57620001D01*
X180743486Y-57574615D01*
X180958414Y-57485589D01*
X181151844Y-57356343D01*
X181316343Y-57191844D01*
X181445589Y-56998414D01*
X181534615Y-56783486D01*
X181580001Y-56555319D01*
X181580001Y-56322683D01*
X181534615Y-56094516D01*
X181445589Y-55879588D01*
X181316343Y-55686158D01*
X181151844Y-55521659D01*
X180958414Y-55392413D01*
X180743486Y-55303387D01*
X180515319Y-55258001D01*
X180282683Y-55258001D01*
X180054516Y-55303387D01*
X179839588Y-55392413D01*
X179646158Y-55521659D01*
X179481659Y-55686158D01*
X179352413Y-55879588D01*
X179263387Y-56094516D01*
X179218001Y-56322683D01*
X166340001Y-56322683D01*
X166294615Y-56094516D01*
X166205589Y-55879588D01*
X166076343Y-55686158D01*
X165911844Y-55521659D01*
X165718414Y-55392413D01*
X165503486Y-55303387D01*
X165275319Y-55258001D01*
X165042683Y-55258001D01*
X164814516Y-55303387D01*
X164599588Y-55392413D01*
X164406158Y-55521659D01*
X164241659Y-55686158D01*
X164112413Y-55879588D01*
X164023387Y-56094516D01*
X163978001Y-56322683D01*
X160426000Y-56322683D01*
X160426000Y-53099001D01*
X163976158Y-53099001D01*
X163976158Y-54699001D01*
X163983514Y-54773690D01*
X164005300Y-54845509D01*
X164040679Y-54911697D01*
X164088290Y-54969712D01*
X164146305Y-55017323D01*
X164212493Y-55052702D01*
X164284312Y-55074488D01*
X164359001Y-55081844D01*
X165959001Y-55081844D01*
X166033690Y-55074488D01*
X166105509Y-55052702D01*
X166171697Y-55017323D01*
X166229712Y-54969712D01*
X166277323Y-54911697D01*
X166312702Y-54845509D01*
X166334488Y-54773690D01*
X166341844Y-54699001D01*
X166341844Y-53782683D01*
X179218001Y-53782683D01*
X179218001Y-54015319D01*
X179263387Y-54243486D01*
X179352413Y-54458414D01*
X179481659Y-54651844D01*
X179646158Y-54816343D01*
X179839588Y-54945589D01*
X180054516Y-55034615D01*
X180282683Y-55080001D01*
X180515319Y-55080001D01*
X180743486Y-55034615D01*
X180958414Y-54945589D01*
X181151844Y-54816343D01*
X181316343Y-54651844D01*
X181445589Y-54458414D01*
X181534615Y-54243486D01*
X181580001Y-54015319D01*
X181580001Y-53782683D01*
X181534615Y-53554516D01*
X181445589Y-53339588D01*
X181316343Y-53146158D01*
X181151844Y-52981659D01*
X180958414Y-52852413D01*
X180743486Y-52763387D01*
X180515319Y-52718001D01*
X180282683Y-52718001D01*
X180054516Y-52763387D01*
X179839588Y-52852413D01*
X179646158Y-52981659D01*
X179481659Y-53146158D01*
X179352413Y-53339588D01*
X179263387Y-53554516D01*
X179218001Y-53782683D01*
X166341844Y-53782683D01*
X166341844Y-53099001D01*
X166334488Y-53024312D01*
X166312702Y-52952493D01*
X166277323Y-52886305D01*
X166229712Y-52828290D01*
X166171697Y-52780679D01*
X166105509Y-52745300D01*
X166033690Y-52723514D01*
X165959001Y-52716158D01*
X164359001Y-52716158D01*
X164284312Y-52723514D01*
X164212493Y-52745300D01*
X164146305Y-52780679D01*
X164088290Y-52828290D01*
X164040679Y-52886305D01*
X164005300Y-52952493D01*
X163983514Y-53024312D01*
X163976158Y-53099001D01*
X160426000Y-53099001D01*
X160426000Y-52476000D01*
X185014001Y-52476000D01*
X185014000Y-103734000D01*
M02*
