G04 #@! TF.GenerationSoftware,KiCad,Pcbnew,(5.1.5)-3*
G04 #@! TF.CreationDate,2020-04-26T18:15:54+02:00*
G04 #@! TF.ProjectId,plcc44_adapter,706c6363-3434-45f6-9164-61707465722e,rev?*
G04 #@! TF.SameCoordinates,Original*
G04 #@! TF.FileFunction,Paste,Top*
G04 #@! TF.FilePolarity,Positive*
%FSLAX46Y46*%
G04 Gerber Fmt 4.6, Leading zero omitted, Abs format (unit mm)*
G04 Created by KiCad (PCBNEW (5.1.5)-3) date 2020-04-26 18:15:54*
%MOMM*%
%LPD*%
G04 APERTURE LIST*
%ADD10C,0.100000*%
G04 APERTURE END LIST*
D10*
G36*
X174382691Y-65566053D02*
G01*
X174403926Y-65569203D01*
X174424750Y-65574419D01*
X174444962Y-65581651D01*
X174464368Y-65590830D01*
X174482781Y-65601866D01*
X174500024Y-65614654D01*
X174515930Y-65629070D01*
X174530346Y-65644976D01*
X174543134Y-65662219D01*
X174554170Y-65680632D01*
X174563349Y-65700038D01*
X174570581Y-65720250D01*
X174575797Y-65741074D01*
X174578947Y-65762309D01*
X174580000Y-65783750D01*
X174580000Y-66296250D01*
X174578947Y-66317691D01*
X174575797Y-66338926D01*
X174570581Y-66359750D01*
X174563349Y-66379962D01*
X174554170Y-66399368D01*
X174543134Y-66417781D01*
X174530346Y-66435024D01*
X174515930Y-66450930D01*
X174500024Y-66465346D01*
X174482781Y-66478134D01*
X174464368Y-66489170D01*
X174444962Y-66498349D01*
X174424750Y-66505581D01*
X174403926Y-66510797D01*
X174382691Y-66513947D01*
X174361250Y-66515000D01*
X173923750Y-66515000D01*
X173902309Y-66513947D01*
X173881074Y-66510797D01*
X173860250Y-66505581D01*
X173840038Y-66498349D01*
X173820632Y-66489170D01*
X173802219Y-66478134D01*
X173784976Y-66465346D01*
X173769070Y-66450930D01*
X173754654Y-66435024D01*
X173741866Y-66417781D01*
X173730830Y-66399368D01*
X173721651Y-66379962D01*
X173714419Y-66359750D01*
X173709203Y-66338926D01*
X173706053Y-66317691D01*
X173705000Y-66296250D01*
X173705000Y-65783750D01*
X173706053Y-65762309D01*
X173709203Y-65741074D01*
X173714419Y-65720250D01*
X173721651Y-65700038D01*
X173730830Y-65680632D01*
X173741866Y-65662219D01*
X173754654Y-65644976D01*
X173769070Y-65629070D01*
X173784976Y-65614654D01*
X173802219Y-65601866D01*
X173820632Y-65590830D01*
X173840038Y-65581651D01*
X173860250Y-65574419D01*
X173881074Y-65569203D01*
X173902309Y-65566053D01*
X173923750Y-65565000D01*
X174361250Y-65565000D01*
X174382691Y-65566053D01*
G37*
G36*
X172807691Y-65566053D02*
G01*
X172828926Y-65569203D01*
X172849750Y-65574419D01*
X172869962Y-65581651D01*
X172889368Y-65590830D01*
X172907781Y-65601866D01*
X172925024Y-65614654D01*
X172940930Y-65629070D01*
X172955346Y-65644976D01*
X172968134Y-65662219D01*
X172979170Y-65680632D01*
X172988349Y-65700038D01*
X172995581Y-65720250D01*
X173000797Y-65741074D01*
X173003947Y-65762309D01*
X173005000Y-65783750D01*
X173005000Y-66296250D01*
X173003947Y-66317691D01*
X173000797Y-66338926D01*
X172995581Y-66359750D01*
X172988349Y-66379962D01*
X172979170Y-66399368D01*
X172968134Y-66417781D01*
X172955346Y-66435024D01*
X172940930Y-66450930D01*
X172925024Y-66465346D01*
X172907781Y-66478134D01*
X172889368Y-66489170D01*
X172869962Y-66498349D01*
X172849750Y-66505581D01*
X172828926Y-66510797D01*
X172807691Y-66513947D01*
X172786250Y-66515000D01*
X172348750Y-66515000D01*
X172327309Y-66513947D01*
X172306074Y-66510797D01*
X172285250Y-66505581D01*
X172265038Y-66498349D01*
X172245632Y-66489170D01*
X172227219Y-66478134D01*
X172209976Y-66465346D01*
X172194070Y-66450930D01*
X172179654Y-66435024D01*
X172166866Y-66417781D01*
X172155830Y-66399368D01*
X172146651Y-66379962D01*
X172139419Y-66359750D01*
X172134203Y-66338926D01*
X172131053Y-66317691D01*
X172130000Y-66296250D01*
X172130000Y-65783750D01*
X172131053Y-65762309D01*
X172134203Y-65741074D01*
X172139419Y-65720250D01*
X172146651Y-65700038D01*
X172155830Y-65680632D01*
X172166866Y-65662219D01*
X172179654Y-65644976D01*
X172194070Y-65629070D01*
X172209976Y-65614654D01*
X172227219Y-65601866D01*
X172245632Y-65590830D01*
X172265038Y-65581651D01*
X172285250Y-65574419D01*
X172306074Y-65569203D01*
X172327309Y-65566053D01*
X172348750Y-65565000D01*
X172786250Y-65565000D01*
X172807691Y-65566053D01*
G37*
M02*
