G04 #@! TF.GenerationSoftware,KiCad,Pcbnew,(5.1.5)-3*
G04 #@! TF.CreationDate,2020-05-16T12:59:48+02:00*
G04 #@! TF.ProjectId,plcc44_adapter,706c6363-3434-45f6-9164-61707465722e,1.0*
G04 #@! TF.SameCoordinates,Original*
G04 #@! TF.FileFunction,Soldermask,Bot*
G04 #@! TF.FilePolarity,Negative*
%FSLAX46Y46*%
G04 Gerber Fmt 4.6, Leading zero omitted, Abs format (unit mm)*
G04 Created by KiCad (PCBNEW (5.1.5)-3) date 2020-05-16 12:59:48*
%MOMM*%
%LPD*%
G04 APERTURE LIST*
%ADD10C,0.100000*%
G04 APERTURE END LIST*
D10*
G36*
X180647229Y-101340704D02*
G01*
X180802101Y-101404854D01*
X180941482Y-101497986D01*
X181060016Y-101616520D01*
X181153148Y-101755901D01*
X181217298Y-101910773D01*
X181250001Y-102075185D01*
X181250001Y-102242817D01*
X181217298Y-102407229D01*
X181153148Y-102562101D01*
X181060016Y-102701482D01*
X180941482Y-102820016D01*
X180802101Y-102913148D01*
X180647229Y-102977298D01*
X180482817Y-103010001D01*
X180315185Y-103010001D01*
X180150773Y-102977298D01*
X179995901Y-102913148D01*
X179856520Y-102820016D01*
X179737986Y-102701482D01*
X179644854Y-102562101D01*
X179580704Y-102407229D01*
X179548001Y-102242817D01*
X179548001Y-102075185D01*
X179580704Y-101910773D01*
X179644854Y-101755901D01*
X179737986Y-101616520D01*
X179856520Y-101497986D01*
X179995901Y-101404854D01*
X180150773Y-101340704D01*
X180315185Y-101308001D01*
X180482817Y-101308001D01*
X180647229Y-101340704D01*
G37*
G36*
X165407229Y-101340704D02*
G01*
X165562101Y-101404854D01*
X165701482Y-101497986D01*
X165820016Y-101616520D01*
X165913148Y-101755901D01*
X165977298Y-101910773D01*
X166010001Y-102075185D01*
X166010001Y-102242817D01*
X165977298Y-102407229D01*
X165913148Y-102562101D01*
X165820016Y-102701482D01*
X165701482Y-102820016D01*
X165562101Y-102913148D01*
X165407229Y-102977298D01*
X165242817Y-103010001D01*
X165075185Y-103010001D01*
X164910773Y-102977298D01*
X164755901Y-102913148D01*
X164616520Y-102820016D01*
X164497986Y-102701482D01*
X164404854Y-102562101D01*
X164340704Y-102407229D01*
X164308001Y-102242817D01*
X164308001Y-102075185D01*
X164340704Y-101910773D01*
X164404854Y-101755901D01*
X164497986Y-101616520D01*
X164616520Y-101497986D01*
X164755901Y-101404854D01*
X164910773Y-101340704D01*
X165075185Y-101308001D01*
X165242817Y-101308001D01*
X165407229Y-101340704D01*
G37*
G36*
X180647229Y-98800704D02*
G01*
X180802101Y-98864854D01*
X180941482Y-98957986D01*
X181060016Y-99076520D01*
X181153148Y-99215901D01*
X181217298Y-99370773D01*
X181250001Y-99535185D01*
X181250001Y-99702817D01*
X181217298Y-99867229D01*
X181153148Y-100022101D01*
X181060016Y-100161482D01*
X180941482Y-100280016D01*
X180802101Y-100373148D01*
X180647229Y-100437298D01*
X180482817Y-100470001D01*
X180315185Y-100470001D01*
X180150773Y-100437298D01*
X179995901Y-100373148D01*
X179856520Y-100280016D01*
X179737986Y-100161482D01*
X179644854Y-100022101D01*
X179580704Y-99867229D01*
X179548001Y-99702817D01*
X179548001Y-99535185D01*
X179580704Y-99370773D01*
X179644854Y-99215901D01*
X179737986Y-99076520D01*
X179856520Y-98957986D01*
X179995901Y-98864854D01*
X180150773Y-98800704D01*
X180315185Y-98768001D01*
X180482817Y-98768001D01*
X180647229Y-98800704D01*
G37*
G36*
X165407229Y-98800704D02*
G01*
X165562101Y-98864854D01*
X165701482Y-98957986D01*
X165820016Y-99076520D01*
X165913148Y-99215901D01*
X165977298Y-99370773D01*
X166010001Y-99535185D01*
X166010001Y-99702817D01*
X165977298Y-99867229D01*
X165913148Y-100022101D01*
X165820016Y-100161482D01*
X165701482Y-100280016D01*
X165562101Y-100373148D01*
X165407229Y-100437298D01*
X165242817Y-100470001D01*
X165075185Y-100470001D01*
X164910773Y-100437298D01*
X164755901Y-100373148D01*
X164616520Y-100280016D01*
X164497986Y-100161482D01*
X164404854Y-100022101D01*
X164340704Y-99867229D01*
X164308001Y-99702817D01*
X164308001Y-99535185D01*
X164340704Y-99370773D01*
X164404854Y-99215901D01*
X164497986Y-99076520D01*
X164616520Y-98957986D01*
X164755901Y-98864854D01*
X164910773Y-98800704D01*
X165075185Y-98768001D01*
X165242817Y-98768001D01*
X165407229Y-98800704D01*
G37*
G36*
X180647229Y-96260704D02*
G01*
X180802101Y-96324854D01*
X180941482Y-96417986D01*
X181060016Y-96536520D01*
X181153148Y-96675901D01*
X181217298Y-96830773D01*
X181250001Y-96995185D01*
X181250001Y-97162817D01*
X181217298Y-97327229D01*
X181153148Y-97482101D01*
X181060016Y-97621482D01*
X180941482Y-97740016D01*
X180802101Y-97833148D01*
X180647229Y-97897298D01*
X180482817Y-97930001D01*
X180315185Y-97930001D01*
X180150773Y-97897298D01*
X179995901Y-97833148D01*
X179856520Y-97740016D01*
X179737986Y-97621482D01*
X179644854Y-97482101D01*
X179580704Y-97327229D01*
X179548001Y-97162817D01*
X179548001Y-96995185D01*
X179580704Y-96830773D01*
X179644854Y-96675901D01*
X179737986Y-96536520D01*
X179856520Y-96417986D01*
X179995901Y-96324854D01*
X180150773Y-96260704D01*
X180315185Y-96228001D01*
X180482817Y-96228001D01*
X180647229Y-96260704D01*
G37*
G36*
X165407229Y-96260704D02*
G01*
X165562101Y-96324854D01*
X165701482Y-96417986D01*
X165820016Y-96536520D01*
X165913148Y-96675901D01*
X165977298Y-96830773D01*
X166010001Y-96995185D01*
X166010001Y-97162817D01*
X165977298Y-97327229D01*
X165913148Y-97482101D01*
X165820016Y-97621482D01*
X165701482Y-97740016D01*
X165562101Y-97833148D01*
X165407229Y-97897298D01*
X165242817Y-97930001D01*
X165075185Y-97930001D01*
X164910773Y-97897298D01*
X164755901Y-97833148D01*
X164616520Y-97740016D01*
X164497986Y-97621482D01*
X164404854Y-97482101D01*
X164340704Y-97327229D01*
X164308001Y-97162817D01*
X164308001Y-96995185D01*
X164340704Y-96830773D01*
X164404854Y-96675901D01*
X164497986Y-96536520D01*
X164616520Y-96417986D01*
X164755901Y-96324854D01*
X164910773Y-96260704D01*
X165075185Y-96228001D01*
X165242817Y-96228001D01*
X165407229Y-96260704D01*
G37*
G36*
X165407229Y-93720704D02*
G01*
X165562101Y-93784854D01*
X165701482Y-93877986D01*
X165820016Y-93996520D01*
X165913148Y-94135901D01*
X165977298Y-94290773D01*
X166010001Y-94455185D01*
X166010001Y-94622817D01*
X165977298Y-94787229D01*
X165913148Y-94942101D01*
X165820016Y-95081482D01*
X165701482Y-95200016D01*
X165562101Y-95293148D01*
X165407229Y-95357298D01*
X165242817Y-95390001D01*
X165075185Y-95390001D01*
X164910773Y-95357298D01*
X164755901Y-95293148D01*
X164616520Y-95200016D01*
X164497986Y-95081482D01*
X164404854Y-94942101D01*
X164340704Y-94787229D01*
X164308001Y-94622817D01*
X164308001Y-94455185D01*
X164340704Y-94290773D01*
X164404854Y-94135901D01*
X164497986Y-93996520D01*
X164616520Y-93877986D01*
X164755901Y-93784854D01*
X164910773Y-93720704D01*
X165075185Y-93688001D01*
X165242817Y-93688001D01*
X165407229Y-93720704D01*
G37*
G36*
X180647229Y-93720704D02*
G01*
X180802101Y-93784854D01*
X180941482Y-93877986D01*
X181060016Y-93996520D01*
X181153148Y-94135901D01*
X181217298Y-94290773D01*
X181250001Y-94455185D01*
X181250001Y-94622817D01*
X181217298Y-94787229D01*
X181153148Y-94942101D01*
X181060016Y-95081482D01*
X180941482Y-95200016D01*
X180802101Y-95293148D01*
X180647229Y-95357298D01*
X180482817Y-95390001D01*
X180315185Y-95390001D01*
X180150773Y-95357298D01*
X179995901Y-95293148D01*
X179856520Y-95200016D01*
X179737986Y-95081482D01*
X179644854Y-94942101D01*
X179580704Y-94787229D01*
X179548001Y-94622817D01*
X179548001Y-94455185D01*
X179580704Y-94290773D01*
X179644854Y-94135901D01*
X179737986Y-93996520D01*
X179856520Y-93877986D01*
X179995901Y-93784854D01*
X180150773Y-93720704D01*
X180315185Y-93688001D01*
X180482817Y-93688001D01*
X180647229Y-93720704D01*
G37*
G36*
X165407229Y-91180704D02*
G01*
X165562101Y-91244854D01*
X165701482Y-91337986D01*
X165820016Y-91456520D01*
X165913148Y-91595901D01*
X165977298Y-91750773D01*
X166010001Y-91915185D01*
X166010001Y-92082817D01*
X165977298Y-92247229D01*
X165913148Y-92402101D01*
X165820016Y-92541482D01*
X165701482Y-92660016D01*
X165562101Y-92753148D01*
X165407229Y-92817298D01*
X165242817Y-92850001D01*
X165075185Y-92850001D01*
X164910773Y-92817298D01*
X164755901Y-92753148D01*
X164616520Y-92660016D01*
X164497986Y-92541482D01*
X164404854Y-92402101D01*
X164340704Y-92247229D01*
X164308001Y-92082817D01*
X164308001Y-91915185D01*
X164340704Y-91750773D01*
X164404854Y-91595901D01*
X164497986Y-91456520D01*
X164616520Y-91337986D01*
X164755901Y-91244854D01*
X164910773Y-91180704D01*
X165075185Y-91148001D01*
X165242817Y-91148001D01*
X165407229Y-91180704D01*
G37*
G36*
X180647229Y-91180704D02*
G01*
X180802101Y-91244854D01*
X180941482Y-91337986D01*
X181060016Y-91456520D01*
X181153148Y-91595901D01*
X181217298Y-91750773D01*
X181250001Y-91915185D01*
X181250001Y-92082817D01*
X181217298Y-92247229D01*
X181153148Y-92402101D01*
X181060016Y-92541482D01*
X180941482Y-92660016D01*
X180802101Y-92753148D01*
X180647229Y-92817298D01*
X180482817Y-92850001D01*
X180315185Y-92850001D01*
X180150773Y-92817298D01*
X179995901Y-92753148D01*
X179856520Y-92660016D01*
X179737986Y-92541482D01*
X179644854Y-92402101D01*
X179580704Y-92247229D01*
X179548001Y-92082817D01*
X179548001Y-91915185D01*
X179580704Y-91750773D01*
X179644854Y-91595901D01*
X179737986Y-91456520D01*
X179856520Y-91337986D01*
X179995901Y-91244854D01*
X180150773Y-91180704D01*
X180315185Y-91148001D01*
X180482817Y-91148001D01*
X180647229Y-91180704D01*
G37*
G36*
X180585397Y-88730364D02*
G01*
X180618060Y-88736861D01*
X180754733Y-88793473D01*
X180877736Y-88875661D01*
X180982341Y-88980266D01*
X181064529Y-89103269D01*
X181121141Y-89239942D01*
X181150001Y-89385034D01*
X181150001Y-89532968D01*
X181121141Y-89678060D01*
X181064529Y-89814733D01*
X180982341Y-89937736D01*
X180877736Y-90042341D01*
X180754733Y-90124529D01*
X180754732Y-90124530D01*
X180754731Y-90124530D01*
X180618060Y-90181141D01*
X180472969Y-90210001D01*
X180325033Y-90210001D01*
X180179942Y-90181141D01*
X180043271Y-90124530D01*
X180043270Y-90124530D01*
X180043269Y-90124529D01*
X179920266Y-90042341D01*
X179815661Y-89937736D01*
X179733473Y-89814733D01*
X179676861Y-89678060D01*
X179648001Y-89532968D01*
X179648001Y-89385034D01*
X179676861Y-89239942D01*
X179733473Y-89103269D01*
X179815661Y-88980266D01*
X179920266Y-88875661D01*
X180043269Y-88793473D01*
X180179942Y-88736861D01*
X180212605Y-88730364D01*
X180325033Y-88708001D01*
X180472969Y-88708001D01*
X180585397Y-88730364D01*
G37*
G36*
X165345397Y-88730364D02*
G01*
X165378060Y-88736861D01*
X165514733Y-88793473D01*
X165637736Y-88875661D01*
X165742341Y-88980266D01*
X165824529Y-89103269D01*
X165881141Y-89239942D01*
X165910001Y-89385034D01*
X165910001Y-89532968D01*
X165881141Y-89678060D01*
X165824529Y-89814733D01*
X165742341Y-89937736D01*
X165637736Y-90042341D01*
X165514733Y-90124529D01*
X165514732Y-90124530D01*
X165514731Y-90124530D01*
X165378060Y-90181141D01*
X165232969Y-90210001D01*
X165085033Y-90210001D01*
X164939942Y-90181141D01*
X164803271Y-90124530D01*
X164803270Y-90124530D01*
X164803269Y-90124529D01*
X164680266Y-90042341D01*
X164575661Y-89937736D01*
X164493473Y-89814733D01*
X164436861Y-89678060D01*
X164408001Y-89532968D01*
X164408001Y-89385034D01*
X164436861Y-89239942D01*
X164493473Y-89103269D01*
X164575661Y-88980266D01*
X164680266Y-88875661D01*
X164803269Y-88793473D01*
X164939942Y-88736861D01*
X164972605Y-88730364D01*
X165085033Y-88708001D01*
X165232969Y-88708001D01*
X165345397Y-88730364D01*
G37*
G36*
X171723125Y-87455890D02*
G01*
X171861838Y-87513347D01*
X171986672Y-87596758D01*
X172092842Y-87702928D01*
X172176253Y-87827762D01*
X172233710Y-87966475D01*
X172263000Y-88113729D01*
X172263000Y-88263871D01*
X172233710Y-88411125D01*
X172176253Y-88549838D01*
X172092842Y-88674672D01*
X171986672Y-88780842D01*
X171861838Y-88864253D01*
X171723125Y-88921710D01*
X171575871Y-88951000D01*
X171425729Y-88951000D01*
X171278475Y-88921710D01*
X171139762Y-88864253D01*
X171014928Y-88780842D01*
X170908758Y-88674672D01*
X170825347Y-88549838D01*
X170767890Y-88411125D01*
X170738600Y-88263871D01*
X170738600Y-88113729D01*
X170767890Y-87966475D01*
X170825347Y-87827762D01*
X170908758Y-87702928D01*
X171014928Y-87596758D01*
X171139762Y-87513347D01*
X171278475Y-87455890D01*
X171425729Y-87426600D01*
X171575871Y-87426600D01*
X171723125Y-87455890D01*
G37*
G36*
X176803125Y-87455890D02*
G01*
X176941838Y-87513347D01*
X177066672Y-87596758D01*
X177172842Y-87702928D01*
X177256253Y-87827762D01*
X177313710Y-87966475D01*
X177343000Y-88113729D01*
X177343000Y-88263871D01*
X177313710Y-88411125D01*
X177256253Y-88549838D01*
X177172842Y-88674672D01*
X177066672Y-88780842D01*
X176941838Y-88864253D01*
X176803125Y-88921710D01*
X176655871Y-88951000D01*
X176505729Y-88951000D01*
X176358475Y-88921710D01*
X176219762Y-88864253D01*
X176094928Y-88780842D01*
X175988758Y-88674672D01*
X175905347Y-88549838D01*
X175847890Y-88411125D01*
X175818600Y-88263871D01*
X175818600Y-88113729D01*
X175847890Y-87966475D01*
X175905347Y-87827762D01*
X175988758Y-87702928D01*
X176094928Y-87596758D01*
X176219762Y-87513347D01*
X176358475Y-87455890D01*
X176505729Y-87426600D01*
X176655871Y-87426600D01*
X176803125Y-87455890D01*
G37*
G36*
X174263125Y-87455890D02*
G01*
X174401838Y-87513347D01*
X174526672Y-87596758D01*
X174632842Y-87702928D01*
X174716253Y-87827762D01*
X174773710Y-87966475D01*
X174803000Y-88113729D01*
X174803000Y-88263871D01*
X174773710Y-88411125D01*
X174716253Y-88549838D01*
X174632842Y-88674672D01*
X174526672Y-88780842D01*
X174401838Y-88864253D01*
X174263125Y-88921710D01*
X174115871Y-88951000D01*
X173965729Y-88951000D01*
X173818475Y-88921710D01*
X173679762Y-88864253D01*
X173554928Y-88780842D01*
X173448758Y-88674672D01*
X173365347Y-88549838D01*
X173307890Y-88411125D01*
X173278600Y-88263871D01*
X173278600Y-88113729D01*
X173307890Y-87966475D01*
X173365347Y-87827762D01*
X173448758Y-87702928D01*
X173554928Y-87596758D01*
X173679762Y-87513347D01*
X173818475Y-87455890D01*
X173965729Y-87426600D01*
X174115871Y-87426600D01*
X174263125Y-87455890D01*
G37*
G36*
X169183125Y-87455890D02*
G01*
X169321838Y-87513347D01*
X169446672Y-87596758D01*
X169552842Y-87702928D01*
X169636253Y-87827762D01*
X169693710Y-87966475D01*
X169723000Y-88113729D01*
X169723000Y-88263871D01*
X169693710Y-88411125D01*
X169636253Y-88549838D01*
X169552842Y-88674672D01*
X169446672Y-88780842D01*
X169321838Y-88864253D01*
X169183125Y-88921710D01*
X169035871Y-88951000D01*
X168885729Y-88951000D01*
X168738475Y-88921710D01*
X168599762Y-88864253D01*
X168474928Y-88780842D01*
X168368758Y-88674672D01*
X168285347Y-88549838D01*
X168227890Y-88411125D01*
X168198600Y-88263871D01*
X168198600Y-88113729D01*
X168227890Y-87966475D01*
X168285347Y-87827762D01*
X168368758Y-87702928D01*
X168474928Y-87596758D01*
X168599762Y-87513347D01*
X168738475Y-87455890D01*
X168885729Y-87426600D01*
X169035871Y-87426600D01*
X169183125Y-87455890D01*
G37*
G36*
X166803026Y-87432114D02*
G01*
X166859017Y-87437629D01*
X166965308Y-87469872D01*
X167002696Y-87481214D01*
X167135103Y-87551987D01*
X167251164Y-87647236D01*
X167346413Y-87763297D01*
X167417186Y-87895704D01*
X167417187Y-87895708D01*
X167460771Y-88039383D01*
X167475487Y-88188800D01*
X167460771Y-88338217D01*
X167438654Y-88411125D01*
X167417186Y-88481896D01*
X167346413Y-88614303D01*
X167251164Y-88730364D01*
X167135103Y-88825613D01*
X167002696Y-88896386D01*
X166965308Y-88907728D01*
X166859017Y-88939971D01*
X166803026Y-88945485D01*
X166747037Y-88951000D01*
X166394563Y-88951000D01*
X166338574Y-88945485D01*
X166282583Y-88939971D01*
X166176292Y-88907728D01*
X166138904Y-88896386D01*
X166006497Y-88825613D01*
X165890436Y-88730364D01*
X165795187Y-88614303D01*
X165724414Y-88481896D01*
X165702946Y-88411125D01*
X165680829Y-88338217D01*
X165666113Y-88188800D01*
X165680829Y-88039383D01*
X165724413Y-87895708D01*
X165724414Y-87895704D01*
X165795187Y-87763297D01*
X165890436Y-87647236D01*
X166006497Y-87551987D01*
X166138904Y-87481214D01*
X166176292Y-87469872D01*
X166282583Y-87437629D01*
X166338574Y-87432114D01*
X166394563Y-87426600D01*
X166747037Y-87426600D01*
X166803026Y-87432114D01*
G37*
G36*
X179203026Y-87432114D02*
G01*
X179259017Y-87437629D01*
X179365308Y-87469872D01*
X179402696Y-87481214D01*
X179535103Y-87551987D01*
X179651164Y-87647236D01*
X179746413Y-87763297D01*
X179817186Y-87895704D01*
X179817187Y-87895708D01*
X179860771Y-88039383D01*
X179875487Y-88188800D01*
X179860771Y-88338217D01*
X179838654Y-88411125D01*
X179817186Y-88481896D01*
X179746413Y-88614303D01*
X179651164Y-88730364D01*
X179535103Y-88825613D01*
X179402696Y-88896386D01*
X179365308Y-88907728D01*
X179259017Y-88939971D01*
X179203026Y-88945486D01*
X179147037Y-88951000D01*
X178794563Y-88951000D01*
X178738574Y-88945485D01*
X178682583Y-88939971D01*
X178576292Y-88907728D01*
X178538904Y-88896386D01*
X178406497Y-88825613D01*
X178290436Y-88730364D01*
X178195187Y-88614303D01*
X178124414Y-88481896D01*
X178102946Y-88411125D01*
X178080829Y-88338217D01*
X178066113Y-88188800D01*
X178080829Y-88039383D01*
X178124413Y-87895708D01*
X178124414Y-87895704D01*
X178195187Y-87763297D01*
X178290436Y-87647236D01*
X178406497Y-87551987D01*
X178538904Y-87481214D01*
X178576292Y-87469872D01*
X178682583Y-87437629D01*
X178738574Y-87432114D01*
X178794563Y-87426600D01*
X179147037Y-87426600D01*
X179203026Y-87432114D01*
G37*
G36*
X180585397Y-86190364D02*
G01*
X180618060Y-86196861D01*
X180754733Y-86253473D01*
X180877736Y-86335661D01*
X180982341Y-86440266D01*
X181064529Y-86563269D01*
X181121141Y-86699942D01*
X181150001Y-86845034D01*
X181150001Y-86992968D01*
X181121141Y-87138060D01*
X181064529Y-87274733D01*
X180982341Y-87397736D01*
X180877736Y-87502341D01*
X180754733Y-87584529D01*
X180754732Y-87584530D01*
X180754731Y-87584530D01*
X180618060Y-87641141D01*
X180472969Y-87670001D01*
X180325033Y-87670001D01*
X180179942Y-87641141D01*
X180043271Y-87584530D01*
X180043270Y-87584530D01*
X180043269Y-87584529D01*
X179920266Y-87502341D01*
X179815661Y-87397736D01*
X179733473Y-87274733D01*
X179676861Y-87138060D01*
X179648001Y-86992968D01*
X179648001Y-86845034D01*
X179676861Y-86699942D01*
X179733473Y-86563269D01*
X179815661Y-86440266D01*
X179920266Y-86335661D01*
X180043269Y-86253473D01*
X180179942Y-86196861D01*
X180212605Y-86190364D01*
X180325033Y-86168001D01*
X180472969Y-86168001D01*
X180585397Y-86190364D01*
G37*
G36*
X165345397Y-86190364D02*
G01*
X165378060Y-86196861D01*
X165514733Y-86253473D01*
X165637736Y-86335661D01*
X165742341Y-86440266D01*
X165824529Y-86563269D01*
X165881141Y-86699942D01*
X165910001Y-86845034D01*
X165910001Y-86992968D01*
X165881141Y-87138060D01*
X165824529Y-87274733D01*
X165742341Y-87397736D01*
X165637736Y-87502341D01*
X165514733Y-87584529D01*
X165514732Y-87584530D01*
X165514731Y-87584530D01*
X165378060Y-87641141D01*
X165232969Y-87670001D01*
X165085033Y-87670001D01*
X164939942Y-87641141D01*
X164803271Y-87584530D01*
X164803270Y-87584530D01*
X164803269Y-87584529D01*
X164680266Y-87502341D01*
X164575661Y-87397736D01*
X164493473Y-87274733D01*
X164436861Y-87138060D01*
X164408001Y-86992968D01*
X164408001Y-86845034D01*
X164436861Y-86699942D01*
X164493473Y-86563269D01*
X164575661Y-86440266D01*
X164680266Y-86335661D01*
X164803269Y-86253473D01*
X164939942Y-86196861D01*
X164972605Y-86190364D01*
X165085033Y-86168001D01*
X165232969Y-86168001D01*
X165345397Y-86190364D01*
G37*
G36*
X169183125Y-84915890D02*
G01*
X169321838Y-84973347D01*
X169446672Y-85056758D01*
X169552842Y-85162928D01*
X169636253Y-85287762D01*
X169693710Y-85426475D01*
X169723000Y-85573729D01*
X169723000Y-85723871D01*
X169693710Y-85871125D01*
X169636253Y-86009838D01*
X169552842Y-86134672D01*
X169446672Y-86240842D01*
X169321838Y-86324253D01*
X169183125Y-86381710D01*
X169035871Y-86411000D01*
X168885729Y-86411000D01*
X168738475Y-86381710D01*
X168599762Y-86324253D01*
X168474928Y-86240842D01*
X168368758Y-86134672D01*
X168285347Y-86009838D01*
X168227890Y-85871125D01*
X168198600Y-85723871D01*
X168198600Y-85573729D01*
X168227890Y-85426475D01*
X168285347Y-85287762D01*
X168368758Y-85162928D01*
X168474928Y-85056758D01*
X168599762Y-84973347D01*
X168738475Y-84915890D01*
X168885729Y-84886600D01*
X169035871Y-84886600D01*
X169183125Y-84915890D01*
G37*
G36*
X182043026Y-84892114D02*
G01*
X182099017Y-84897629D01*
X182205308Y-84929872D01*
X182242696Y-84941214D01*
X182375103Y-85011987D01*
X182491164Y-85107236D01*
X182586413Y-85223297D01*
X182657186Y-85355704D01*
X182657187Y-85355708D01*
X182700771Y-85499383D01*
X182715487Y-85648800D01*
X182700771Y-85798217D01*
X182678654Y-85871125D01*
X182657186Y-85941896D01*
X182586413Y-86074303D01*
X182491164Y-86190364D01*
X182375103Y-86285613D01*
X182242696Y-86356386D01*
X182205308Y-86367728D01*
X182099017Y-86399971D01*
X182043026Y-86405485D01*
X181987037Y-86411000D01*
X181634563Y-86411000D01*
X181578574Y-86405485D01*
X181522583Y-86399971D01*
X181416292Y-86367728D01*
X181378904Y-86356386D01*
X181246497Y-86285613D01*
X181130436Y-86190364D01*
X181035187Y-86074303D01*
X180964414Y-85941896D01*
X180942946Y-85871125D01*
X180920829Y-85798217D01*
X180906113Y-85648800D01*
X180920829Y-85499383D01*
X180964413Y-85355708D01*
X180964414Y-85355704D01*
X181035187Y-85223297D01*
X181130436Y-85107236D01*
X181246497Y-85011987D01*
X181378904Y-84941214D01*
X181416292Y-84929872D01*
X181522583Y-84897629D01*
X181578574Y-84892114D01*
X181634563Y-84886600D01*
X181987037Y-84886600D01*
X182043026Y-84892114D01*
G37*
G36*
X179203026Y-84892114D02*
G01*
X179259017Y-84897629D01*
X179365308Y-84929872D01*
X179402696Y-84941214D01*
X179535103Y-85011987D01*
X179651164Y-85107236D01*
X179746413Y-85223297D01*
X179817186Y-85355704D01*
X179817187Y-85355708D01*
X179860771Y-85499383D01*
X179875487Y-85648800D01*
X179860771Y-85798217D01*
X179838654Y-85871125D01*
X179817186Y-85941896D01*
X179746413Y-86074303D01*
X179651164Y-86190364D01*
X179535103Y-86285613D01*
X179402696Y-86356386D01*
X179365308Y-86367728D01*
X179259017Y-86399971D01*
X179203026Y-86405485D01*
X179147037Y-86411000D01*
X178794563Y-86411000D01*
X178738574Y-86405485D01*
X178682583Y-86399971D01*
X178576292Y-86367728D01*
X178538904Y-86356386D01*
X178406497Y-86285613D01*
X178290436Y-86190364D01*
X178195187Y-86074303D01*
X178124414Y-85941896D01*
X178102946Y-85871125D01*
X178080829Y-85798217D01*
X178066113Y-85648800D01*
X178080829Y-85499383D01*
X178124413Y-85355708D01*
X178124414Y-85355704D01*
X178195187Y-85223297D01*
X178290436Y-85107236D01*
X178406497Y-85011987D01*
X178538904Y-84941214D01*
X178576292Y-84929872D01*
X178682583Y-84897629D01*
X178738574Y-84892114D01*
X178794563Y-84886600D01*
X179147037Y-84886600D01*
X179203026Y-84892114D01*
G37*
G36*
X174263125Y-84915890D02*
G01*
X174401838Y-84973347D01*
X174526672Y-85056758D01*
X174632842Y-85162928D01*
X174716253Y-85287762D01*
X174773710Y-85426475D01*
X174803000Y-85573729D01*
X174803000Y-85723871D01*
X174773710Y-85871125D01*
X174716253Y-86009838D01*
X174632842Y-86134672D01*
X174526672Y-86240842D01*
X174401838Y-86324253D01*
X174263125Y-86381710D01*
X174115871Y-86411000D01*
X173965729Y-86411000D01*
X173818475Y-86381710D01*
X173679762Y-86324253D01*
X173554928Y-86240842D01*
X173448758Y-86134672D01*
X173365347Y-86009838D01*
X173307890Y-85871125D01*
X173278600Y-85723871D01*
X173278600Y-85573729D01*
X173307890Y-85426475D01*
X173365347Y-85287762D01*
X173448758Y-85162928D01*
X173554928Y-85056758D01*
X173679762Y-84973347D01*
X173818475Y-84915890D01*
X173965729Y-84886600D01*
X174115871Y-84886600D01*
X174263125Y-84915890D01*
G37*
G36*
X163963026Y-84892114D02*
G01*
X164019017Y-84897629D01*
X164125308Y-84929872D01*
X164162696Y-84941214D01*
X164295103Y-85011987D01*
X164411164Y-85107236D01*
X164506413Y-85223297D01*
X164577186Y-85355704D01*
X164577187Y-85355708D01*
X164620771Y-85499383D01*
X164635487Y-85648800D01*
X164620771Y-85798217D01*
X164598654Y-85871125D01*
X164577186Y-85941896D01*
X164506413Y-86074303D01*
X164411164Y-86190364D01*
X164295103Y-86285613D01*
X164162696Y-86356386D01*
X164125308Y-86367728D01*
X164019017Y-86399971D01*
X163963026Y-86405485D01*
X163907037Y-86411000D01*
X163554563Y-86411000D01*
X163498574Y-86405485D01*
X163442583Y-86399971D01*
X163336292Y-86367728D01*
X163298904Y-86356386D01*
X163166497Y-86285613D01*
X163050436Y-86190364D01*
X162955187Y-86074303D01*
X162884414Y-85941896D01*
X162862946Y-85871125D01*
X162840829Y-85798217D01*
X162826113Y-85648800D01*
X162840829Y-85499383D01*
X162884413Y-85355708D01*
X162884414Y-85355704D01*
X162955187Y-85223297D01*
X163050436Y-85107236D01*
X163166497Y-85011987D01*
X163298904Y-84941214D01*
X163336292Y-84929872D01*
X163442583Y-84897629D01*
X163498574Y-84892114D01*
X163554563Y-84886600D01*
X163907037Y-84886600D01*
X163963026Y-84892114D01*
G37*
G36*
X176803125Y-84915890D02*
G01*
X176941838Y-84973347D01*
X177066672Y-85056758D01*
X177172842Y-85162928D01*
X177256253Y-85287762D01*
X177313710Y-85426475D01*
X177343000Y-85573729D01*
X177343000Y-85723871D01*
X177313710Y-85871125D01*
X177256253Y-86009838D01*
X177172842Y-86134672D01*
X177066672Y-86240842D01*
X176941838Y-86324253D01*
X176803125Y-86381710D01*
X176655871Y-86411000D01*
X176505729Y-86411000D01*
X176358475Y-86381710D01*
X176219762Y-86324253D01*
X176094928Y-86240842D01*
X175988758Y-86134672D01*
X175905347Y-86009838D01*
X175847890Y-85871125D01*
X175818600Y-85723871D01*
X175818600Y-85573729D01*
X175847890Y-85426475D01*
X175905347Y-85287762D01*
X175988758Y-85162928D01*
X176094928Y-85056758D01*
X176219762Y-84973347D01*
X176358475Y-84915890D01*
X176505729Y-84886600D01*
X176655871Y-84886600D01*
X176803125Y-84915890D01*
G37*
G36*
X171723125Y-84915890D02*
G01*
X171861838Y-84973347D01*
X171986672Y-85056758D01*
X172092842Y-85162928D01*
X172176253Y-85287762D01*
X172233710Y-85426475D01*
X172263000Y-85573729D01*
X172263000Y-85723871D01*
X172233710Y-85871125D01*
X172176253Y-86009838D01*
X172092842Y-86134672D01*
X171986672Y-86240842D01*
X171861838Y-86324253D01*
X171723125Y-86381710D01*
X171575871Y-86411000D01*
X171425729Y-86411000D01*
X171278475Y-86381710D01*
X171139762Y-86324253D01*
X171014928Y-86240842D01*
X170908758Y-86134672D01*
X170825347Y-86009838D01*
X170767890Y-85871125D01*
X170738600Y-85723871D01*
X170738600Y-85573729D01*
X170767890Y-85426475D01*
X170825347Y-85287762D01*
X170908758Y-85162928D01*
X171014928Y-85056758D01*
X171139762Y-84973347D01*
X171278475Y-84915890D01*
X171425729Y-84886600D01*
X171575871Y-84886600D01*
X171723125Y-84915890D01*
G37*
G36*
X166803026Y-84892114D02*
G01*
X166859017Y-84897629D01*
X166965308Y-84929872D01*
X167002696Y-84941214D01*
X167135103Y-85011987D01*
X167251164Y-85107236D01*
X167346413Y-85223297D01*
X167417186Y-85355704D01*
X167417187Y-85355708D01*
X167460771Y-85499383D01*
X167475487Y-85648800D01*
X167460771Y-85798217D01*
X167438654Y-85871125D01*
X167417186Y-85941896D01*
X167346413Y-86074303D01*
X167251164Y-86190364D01*
X167135103Y-86285613D01*
X167002696Y-86356386D01*
X166965308Y-86367728D01*
X166859017Y-86399971D01*
X166803026Y-86405485D01*
X166747037Y-86411000D01*
X166394563Y-86411000D01*
X166338574Y-86405485D01*
X166282583Y-86399971D01*
X166176292Y-86367728D01*
X166138904Y-86356386D01*
X166006497Y-86285613D01*
X165890436Y-86190364D01*
X165795187Y-86074303D01*
X165724414Y-85941896D01*
X165702946Y-85871125D01*
X165680829Y-85798217D01*
X165666113Y-85648800D01*
X165680829Y-85499383D01*
X165724413Y-85355708D01*
X165724414Y-85355704D01*
X165795187Y-85223297D01*
X165890436Y-85107236D01*
X166006497Y-85011987D01*
X166138904Y-84941214D01*
X166176292Y-84929872D01*
X166282583Y-84897629D01*
X166338574Y-84892114D01*
X166394563Y-84886600D01*
X166747037Y-84886600D01*
X166803026Y-84892114D01*
G37*
G36*
X180585397Y-83650364D02*
G01*
X180618060Y-83656861D01*
X180754733Y-83713473D01*
X180877736Y-83795661D01*
X180982341Y-83900266D01*
X181064529Y-84023269D01*
X181121141Y-84159942D01*
X181150001Y-84305034D01*
X181150001Y-84452968D01*
X181121141Y-84598060D01*
X181064529Y-84734733D01*
X180982341Y-84857736D01*
X180877736Y-84962341D01*
X180754733Y-85044529D01*
X180754732Y-85044530D01*
X180754731Y-85044530D01*
X180618060Y-85101141D01*
X180472969Y-85130001D01*
X180325033Y-85130001D01*
X180179942Y-85101141D01*
X180043271Y-85044530D01*
X180043270Y-85044530D01*
X180043269Y-85044529D01*
X179920266Y-84962341D01*
X179815661Y-84857736D01*
X179733473Y-84734733D01*
X179676861Y-84598060D01*
X179648001Y-84452968D01*
X179648001Y-84305034D01*
X179676861Y-84159942D01*
X179733473Y-84023269D01*
X179815661Y-83900266D01*
X179920266Y-83795661D01*
X180043269Y-83713473D01*
X180179942Y-83656861D01*
X180212605Y-83650364D01*
X180325033Y-83628001D01*
X180472969Y-83628001D01*
X180585397Y-83650364D01*
G37*
G36*
X165345397Y-83650364D02*
G01*
X165378060Y-83656861D01*
X165514733Y-83713473D01*
X165637736Y-83795661D01*
X165742341Y-83900266D01*
X165824529Y-84023269D01*
X165881141Y-84159942D01*
X165910001Y-84305034D01*
X165910001Y-84452968D01*
X165881141Y-84598060D01*
X165824529Y-84734733D01*
X165742341Y-84857736D01*
X165637736Y-84962341D01*
X165514733Y-85044529D01*
X165514732Y-85044530D01*
X165514731Y-85044530D01*
X165378060Y-85101141D01*
X165232969Y-85130001D01*
X165085033Y-85130001D01*
X164939942Y-85101141D01*
X164803271Y-85044530D01*
X164803270Y-85044530D01*
X164803269Y-85044529D01*
X164680266Y-84962341D01*
X164575661Y-84857736D01*
X164493473Y-84734733D01*
X164436861Y-84598060D01*
X164408001Y-84452968D01*
X164408001Y-84305034D01*
X164436861Y-84159942D01*
X164493473Y-84023269D01*
X164575661Y-83900266D01*
X164680266Y-83795661D01*
X164803269Y-83713473D01*
X164939942Y-83656861D01*
X164972605Y-83650364D01*
X165085033Y-83628001D01*
X165232969Y-83628001D01*
X165345397Y-83650364D01*
G37*
G36*
X166803026Y-82352115D02*
G01*
X166859017Y-82357629D01*
X166965308Y-82389872D01*
X167002696Y-82401214D01*
X167135103Y-82471987D01*
X167251164Y-82567236D01*
X167346413Y-82683297D01*
X167417186Y-82815704D01*
X167417187Y-82815708D01*
X167460771Y-82959383D01*
X167475487Y-83108800D01*
X167460771Y-83258217D01*
X167428528Y-83364508D01*
X167417186Y-83401896D01*
X167346413Y-83534303D01*
X167251164Y-83650364D01*
X167135103Y-83745613D01*
X167002696Y-83816386D01*
X166965308Y-83827728D01*
X166859017Y-83859971D01*
X166803026Y-83865485D01*
X166747037Y-83871000D01*
X166394563Y-83871000D01*
X166338574Y-83865485D01*
X166282583Y-83859971D01*
X166176292Y-83827728D01*
X166138904Y-83816386D01*
X166006497Y-83745613D01*
X165890436Y-83650364D01*
X165795187Y-83534303D01*
X165724414Y-83401896D01*
X165713072Y-83364508D01*
X165680829Y-83258217D01*
X165666113Y-83108800D01*
X165680829Y-82959383D01*
X165724413Y-82815708D01*
X165724414Y-82815704D01*
X165795187Y-82683297D01*
X165890436Y-82567236D01*
X166006497Y-82471987D01*
X166138904Y-82401214D01*
X166176292Y-82389872D01*
X166282583Y-82357629D01*
X166338574Y-82352115D01*
X166394563Y-82346600D01*
X166747037Y-82346600D01*
X166803026Y-82352115D01*
G37*
G36*
X182043026Y-82352115D02*
G01*
X182099017Y-82357629D01*
X182205308Y-82389872D01*
X182242696Y-82401214D01*
X182375103Y-82471987D01*
X182491164Y-82567236D01*
X182586413Y-82683297D01*
X182657186Y-82815704D01*
X182657187Y-82815708D01*
X182700771Y-82959383D01*
X182715487Y-83108800D01*
X182700771Y-83258217D01*
X182668528Y-83364508D01*
X182657186Y-83401896D01*
X182586413Y-83534303D01*
X182491164Y-83650364D01*
X182375103Y-83745613D01*
X182242696Y-83816386D01*
X182205308Y-83827728D01*
X182099017Y-83859971D01*
X182043026Y-83865485D01*
X181987037Y-83871000D01*
X181634563Y-83871000D01*
X181578574Y-83865485D01*
X181522583Y-83859971D01*
X181416292Y-83827728D01*
X181378904Y-83816386D01*
X181246497Y-83745613D01*
X181130436Y-83650364D01*
X181035187Y-83534303D01*
X180964414Y-83401896D01*
X180953072Y-83364508D01*
X180920829Y-83258217D01*
X180906113Y-83108800D01*
X180920829Y-82959383D01*
X180964413Y-82815708D01*
X180964414Y-82815704D01*
X181035187Y-82683297D01*
X181130436Y-82567236D01*
X181246497Y-82471987D01*
X181378904Y-82401214D01*
X181416292Y-82389872D01*
X181522583Y-82357629D01*
X181578574Y-82352115D01*
X181634563Y-82346600D01*
X181987037Y-82346600D01*
X182043026Y-82352115D01*
G37*
G36*
X179203026Y-82352115D02*
G01*
X179259017Y-82357629D01*
X179365308Y-82389872D01*
X179402696Y-82401214D01*
X179535103Y-82471987D01*
X179651164Y-82567236D01*
X179746413Y-82683297D01*
X179817186Y-82815704D01*
X179817187Y-82815708D01*
X179860771Y-82959383D01*
X179875487Y-83108800D01*
X179860771Y-83258217D01*
X179828528Y-83364508D01*
X179817186Y-83401896D01*
X179746413Y-83534303D01*
X179651164Y-83650364D01*
X179535103Y-83745613D01*
X179402696Y-83816386D01*
X179365308Y-83827728D01*
X179259017Y-83859971D01*
X179203026Y-83865485D01*
X179147037Y-83871000D01*
X178794563Y-83871000D01*
X178738574Y-83865485D01*
X178682583Y-83859971D01*
X178576292Y-83827728D01*
X178538904Y-83816386D01*
X178406497Y-83745613D01*
X178290436Y-83650364D01*
X178195187Y-83534303D01*
X178124414Y-83401896D01*
X178113072Y-83364508D01*
X178080829Y-83258217D01*
X178066113Y-83108800D01*
X178080829Y-82959383D01*
X178124413Y-82815708D01*
X178124414Y-82815704D01*
X178195187Y-82683297D01*
X178290436Y-82567236D01*
X178406497Y-82471987D01*
X178538904Y-82401214D01*
X178576292Y-82389872D01*
X178682583Y-82357629D01*
X178738574Y-82352115D01*
X178794563Y-82346600D01*
X179147037Y-82346600D01*
X179203026Y-82352115D01*
G37*
G36*
X163963026Y-82352115D02*
G01*
X164019017Y-82357629D01*
X164125308Y-82389872D01*
X164162696Y-82401214D01*
X164295103Y-82471987D01*
X164411164Y-82567236D01*
X164506413Y-82683297D01*
X164577186Y-82815704D01*
X164577187Y-82815708D01*
X164620771Y-82959383D01*
X164635487Y-83108800D01*
X164620771Y-83258217D01*
X164588528Y-83364508D01*
X164577186Y-83401896D01*
X164506413Y-83534303D01*
X164411164Y-83650364D01*
X164295103Y-83745613D01*
X164162696Y-83816386D01*
X164125308Y-83827728D01*
X164019017Y-83859971D01*
X163963026Y-83865485D01*
X163907037Y-83871000D01*
X163554563Y-83871000D01*
X163498574Y-83865485D01*
X163442583Y-83859971D01*
X163336292Y-83827728D01*
X163298904Y-83816386D01*
X163166497Y-83745613D01*
X163050436Y-83650364D01*
X162955187Y-83534303D01*
X162884414Y-83401896D01*
X162873072Y-83364508D01*
X162840829Y-83258217D01*
X162826113Y-83108800D01*
X162840829Y-82959383D01*
X162884413Y-82815708D01*
X162884414Y-82815704D01*
X162955187Y-82683297D01*
X163050436Y-82567236D01*
X163166497Y-82471987D01*
X163298904Y-82401214D01*
X163336292Y-82389872D01*
X163442583Y-82357629D01*
X163498574Y-82352115D01*
X163554563Y-82346600D01*
X163907037Y-82346600D01*
X163963026Y-82352115D01*
G37*
G36*
X180585397Y-81110364D02*
G01*
X180618060Y-81116861D01*
X180754733Y-81173473D01*
X180877736Y-81255661D01*
X180982341Y-81360266D01*
X181064529Y-81483269D01*
X181121141Y-81619942D01*
X181150001Y-81765034D01*
X181150001Y-81912968D01*
X181121141Y-82058060D01*
X181064529Y-82194733D01*
X180982341Y-82317736D01*
X180877736Y-82422341D01*
X180754733Y-82504529D01*
X180754732Y-82504530D01*
X180754731Y-82504530D01*
X180618060Y-82561141D01*
X180472969Y-82590001D01*
X180325033Y-82590001D01*
X180179942Y-82561141D01*
X180043271Y-82504530D01*
X180043270Y-82504530D01*
X180043269Y-82504529D01*
X179920266Y-82422341D01*
X179815661Y-82317736D01*
X179733473Y-82194733D01*
X179676861Y-82058060D01*
X179648001Y-81912968D01*
X179648001Y-81765034D01*
X179676861Y-81619942D01*
X179733473Y-81483269D01*
X179815661Y-81360266D01*
X179920266Y-81255661D01*
X180043269Y-81173473D01*
X180179942Y-81116861D01*
X180212605Y-81110364D01*
X180325033Y-81088001D01*
X180472969Y-81088001D01*
X180585397Y-81110364D01*
G37*
G36*
X165345397Y-81110364D02*
G01*
X165378060Y-81116861D01*
X165514733Y-81173473D01*
X165637736Y-81255661D01*
X165742341Y-81360266D01*
X165824529Y-81483269D01*
X165881141Y-81619942D01*
X165910001Y-81765034D01*
X165910001Y-81912968D01*
X165881141Y-82058060D01*
X165824529Y-82194733D01*
X165742341Y-82317736D01*
X165637736Y-82422341D01*
X165514733Y-82504529D01*
X165514732Y-82504530D01*
X165514731Y-82504530D01*
X165378060Y-82561141D01*
X165232969Y-82590001D01*
X165085033Y-82590001D01*
X164939942Y-82561141D01*
X164803271Y-82504530D01*
X164803270Y-82504530D01*
X164803269Y-82504529D01*
X164680266Y-82422341D01*
X164575661Y-82317736D01*
X164493473Y-82194733D01*
X164436861Y-82058060D01*
X164408001Y-81912968D01*
X164408001Y-81765034D01*
X164436861Y-81619942D01*
X164493473Y-81483269D01*
X164575661Y-81360266D01*
X164680266Y-81255661D01*
X164803269Y-81173473D01*
X164939942Y-81116861D01*
X164972605Y-81110364D01*
X165085033Y-81088001D01*
X165232969Y-81088001D01*
X165345397Y-81110364D01*
G37*
G36*
X179203026Y-79812115D02*
G01*
X179259017Y-79817629D01*
X179365308Y-79849872D01*
X179402696Y-79861214D01*
X179535103Y-79931987D01*
X179651164Y-80027236D01*
X179746413Y-80143297D01*
X179817186Y-80275704D01*
X179817187Y-80275708D01*
X179860771Y-80419383D01*
X179875487Y-80568800D01*
X179860771Y-80718217D01*
X179828528Y-80824508D01*
X179817186Y-80861896D01*
X179746413Y-80994303D01*
X179651164Y-81110364D01*
X179535103Y-81205613D01*
X179402696Y-81276386D01*
X179365308Y-81287728D01*
X179259017Y-81319971D01*
X179203026Y-81325486D01*
X179147037Y-81331000D01*
X178794563Y-81331000D01*
X178738574Y-81325486D01*
X178682583Y-81319971D01*
X178576292Y-81287728D01*
X178538904Y-81276386D01*
X178406497Y-81205613D01*
X178290436Y-81110364D01*
X178195187Y-80994303D01*
X178124414Y-80861896D01*
X178113072Y-80824508D01*
X178080829Y-80718217D01*
X178066113Y-80568800D01*
X178080829Y-80419383D01*
X178124413Y-80275708D01*
X178124414Y-80275704D01*
X178195187Y-80143297D01*
X178290436Y-80027236D01*
X178406497Y-79931987D01*
X178538904Y-79861214D01*
X178576292Y-79849872D01*
X178682583Y-79817629D01*
X178738574Y-79812115D01*
X178794563Y-79806600D01*
X179147037Y-79806600D01*
X179203026Y-79812115D01*
G37*
G36*
X182043026Y-79812115D02*
G01*
X182099017Y-79817629D01*
X182205308Y-79849872D01*
X182242696Y-79861214D01*
X182375103Y-79931987D01*
X182491164Y-80027236D01*
X182586413Y-80143297D01*
X182657186Y-80275704D01*
X182657187Y-80275708D01*
X182700771Y-80419383D01*
X182715487Y-80568800D01*
X182700771Y-80718217D01*
X182668528Y-80824508D01*
X182657186Y-80861896D01*
X182586413Y-80994303D01*
X182491164Y-81110364D01*
X182375103Y-81205613D01*
X182242696Y-81276386D01*
X182205308Y-81287728D01*
X182099017Y-81319971D01*
X182043026Y-81325486D01*
X181987037Y-81331000D01*
X181634563Y-81331000D01*
X181578574Y-81325486D01*
X181522583Y-81319971D01*
X181416292Y-81287728D01*
X181378904Y-81276386D01*
X181246497Y-81205613D01*
X181130436Y-81110364D01*
X181035187Y-80994303D01*
X180964414Y-80861896D01*
X180953072Y-80824508D01*
X180920829Y-80718217D01*
X180906113Y-80568800D01*
X180920829Y-80419383D01*
X180964413Y-80275708D01*
X180964414Y-80275704D01*
X181035187Y-80143297D01*
X181130436Y-80027236D01*
X181246497Y-79931987D01*
X181378904Y-79861214D01*
X181416292Y-79849872D01*
X181522583Y-79817629D01*
X181578574Y-79812115D01*
X181634563Y-79806600D01*
X181987037Y-79806600D01*
X182043026Y-79812115D01*
G37*
G36*
X163963026Y-79812115D02*
G01*
X164019017Y-79817629D01*
X164125308Y-79849872D01*
X164162696Y-79861214D01*
X164295103Y-79931987D01*
X164411164Y-80027236D01*
X164506413Y-80143297D01*
X164577186Y-80275704D01*
X164577187Y-80275708D01*
X164620771Y-80419383D01*
X164635487Y-80568800D01*
X164620771Y-80718217D01*
X164588528Y-80824508D01*
X164577186Y-80861896D01*
X164506413Y-80994303D01*
X164411164Y-81110364D01*
X164295103Y-81205613D01*
X164162696Y-81276386D01*
X164125308Y-81287728D01*
X164019017Y-81319971D01*
X163963026Y-81325486D01*
X163907037Y-81331000D01*
X163554563Y-81331000D01*
X163498574Y-81325486D01*
X163442583Y-81319971D01*
X163336292Y-81287728D01*
X163298904Y-81276386D01*
X163166497Y-81205613D01*
X163050436Y-81110364D01*
X162955187Y-80994303D01*
X162884414Y-80861896D01*
X162873072Y-80824508D01*
X162840829Y-80718217D01*
X162826113Y-80568800D01*
X162840829Y-80419383D01*
X162884413Y-80275708D01*
X162884414Y-80275704D01*
X162955187Y-80143297D01*
X163050436Y-80027236D01*
X163166497Y-79931987D01*
X163298904Y-79861214D01*
X163336292Y-79849872D01*
X163442583Y-79817629D01*
X163498574Y-79812115D01*
X163554563Y-79806600D01*
X163907037Y-79806600D01*
X163963026Y-79812115D01*
G37*
G36*
X166803026Y-79812115D02*
G01*
X166859017Y-79817629D01*
X166965308Y-79849872D01*
X167002696Y-79861214D01*
X167135103Y-79931987D01*
X167251164Y-80027236D01*
X167346413Y-80143297D01*
X167417186Y-80275704D01*
X167417187Y-80275708D01*
X167460771Y-80419383D01*
X167475487Y-80568800D01*
X167460771Y-80718217D01*
X167428528Y-80824508D01*
X167417186Y-80861896D01*
X167346413Y-80994303D01*
X167251164Y-81110364D01*
X167135103Y-81205613D01*
X167002696Y-81276386D01*
X166965308Y-81287728D01*
X166859017Y-81319971D01*
X166803026Y-81325486D01*
X166747037Y-81331000D01*
X166394563Y-81331000D01*
X166338574Y-81325486D01*
X166282583Y-81319971D01*
X166176292Y-81287728D01*
X166138904Y-81276386D01*
X166006497Y-81205613D01*
X165890436Y-81110364D01*
X165795187Y-80994303D01*
X165724414Y-80861896D01*
X165713072Y-80824508D01*
X165680829Y-80718217D01*
X165666113Y-80568800D01*
X165680829Y-80419383D01*
X165724413Y-80275708D01*
X165724414Y-80275704D01*
X165795187Y-80143297D01*
X165890436Y-80027236D01*
X166006497Y-79931987D01*
X166138904Y-79861214D01*
X166176292Y-79849872D01*
X166282583Y-79817629D01*
X166338574Y-79812115D01*
X166394563Y-79806600D01*
X166747037Y-79806600D01*
X166803026Y-79812115D01*
G37*
G36*
X180585397Y-78570364D02*
G01*
X180618060Y-78576861D01*
X180754733Y-78633473D01*
X180877736Y-78715661D01*
X180982341Y-78820266D01*
X181064529Y-78943269D01*
X181121141Y-79079942D01*
X181150001Y-79225034D01*
X181150001Y-79372968D01*
X181121141Y-79518060D01*
X181064529Y-79654733D01*
X180982341Y-79777736D01*
X180877736Y-79882341D01*
X180754733Y-79964529D01*
X180754732Y-79964530D01*
X180754731Y-79964530D01*
X180618060Y-80021141D01*
X180472969Y-80050001D01*
X180325033Y-80050001D01*
X180179942Y-80021141D01*
X180043271Y-79964530D01*
X180043270Y-79964530D01*
X180043269Y-79964529D01*
X179920266Y-79882341D01*
X179815661Y-79777736D01*
X179733473Y-79654733D01*
X179676861Y-79518060D01*
X179648001Y-79372968D01*
X179648001Y-79225034D01*
X179676861Y-79079942D01*
X179733473Y-78943269D01*
X179815661Y-78820266D01*
X179920266Y-78715661D01*
X180043269Y-78633473D01*
X180179942Y-78576861D01*
X180212605Y-78570364D01*
X180325033Y-78548001D01*
X180472969Y-78548001D01*
X180585397Y-78570364D01*
G37*
G36*
X165345397Y-78570364D02*
G01*
X165378060Y-78576861D01*
X165514733Y-78633473D01*
X165637736Y-78715661D01*
X165742341Y-78820266D01*
X165824529Y-78943269D01*
X165881141Y-79079942D01*
X165910001Y-79225034D01*
X165910001Y-79372968D01*
X165881141Y-79518060D01*
X165824529Y-79654733D01*
X165742341Y-79777736D01*
X165637736Y-79882341D01*
X165514733Y-79964529D01*
X165514732Y-79964530D01*
X165514731Y-79964530D01*
X165378060Y-80021141D01*
X165232969Y-80050001D01*
X165085033Y-80050001D01*
X164939942Y-80021141D01*
X164803271Y-79964530D01*
X164803270Y-79964530D01*
X164803269Y-79964529D01*
X164680266Y-79882341D01*
X164575661Y-79777736D01*
X164493473Y-79654733D01*
X164436861Y-79518060D01*
X164408001Y-79372968D01*
X164408001Y-79225034D01*
X164436861Y-79079942D01*
X164493473Y-78943269D01*
X164575661Y-78820266D01*
X164680266Y-78715661D01*
X164803269Y-78633473D01*
X164939942Y-78576861D01*
X164972605Y-78570364D01*
X165085033Y-78548001D01*
X165232969Y-78548001D01*
X165345397Y-78570364D01*
G37*
G36*
X163963026Y-77272114D02*
G01*
X164019017Y-77277629D01*
X164125308Y-77309872D01*
X164162696Y-77321214D01*
X164295103Y-77391987D01*
X164411164Y-77487236D01*
X164506413Y-77603297D01*
X164577186Y-77735704D01*
X164577187Y-77735708D01*
X164620771Y-77879383D01*
X164635487Y-78028800D01*
X164620771Y-78178217D01*
X164588528Y-78284508D01*
X164577186Y-78321896D01*
X164506413Y-78454303D01*
X164411164Y-78570364D01*
X164295103Y-78665613D01*
X164162696Y-78736386D01*
X164125308Y-78747728D01*
X164019017Y-78779971D01*
X163963026Y-78785486D01*
X163907037Y-78791000D01*
X163554563Y-78791000D01*
X163498574Y-78785486D01*
X163442583Y-78779971D01*
X163336292Y-78747728D01*
X163298904Y-78736386D01*
X163166497Y-78665613D01*
X163050436Y-78570364D01*
X162955187Y-78454303D01*
X162884414Y-78321896D01*
X162873072Y-78284508D01*
X162840829Y-78178217D01*
X162826113Y-78028800D01*
X162840829Y-77879383D01*
X162884413Y-77735708D01*
X162884414Y-77735704D01*
X162955187Y-77603297D01*
X163050436Y-77487236D01*
X163166497Y-77391987D01*
X163298904Y-77321214D01*
X163336292Y-77309872D01*
X163442583Y-77277629D01*
X163498574Y-77272114D01*
X163554563Y-77266600D01*
X163907037Y-77266600D01*
X163963026Y-77272114D01*
G37*
G36*
X182043026Y-77272114D02*
G01*
X182099017Y-77277629D01*
X182205308Y-77309872D01*
X182242696Y-77321214D01*
X182375103Y-77391987D01*
X182491164Y-77487236D01*
X182586413Y-77603297D01*
X182657186Y-77735704D01*
X182657187Y-77735708D01*
X182700771Y-77879383D01*
X182715487Y-78028800D01*
X182700771Y-78178217D01*
X182668528Y-78284508D01*
X182657186Y-78321896D01*
X182586413Y-78454303D01*
X182491164Y-78570364D01*
X182375103Y-78665613D01*
X182242696Y-78736386D01*
X182205308Y-78747728D01*
X182099017Y-78779971D01*
X182043026Y-78785486D01*
X181987037Y-78791000D01*
X181634563Y-78791000D01*
X181578574Y-78785486D01*
X181522583Y-78779971D01*
X181416292Y-78747728D01*
X181378904Y-78736386D01*
X181246497Y-78665613D01*
X181130436Y-78570364D01*
X181035187Y-78454303D01*
X180964414Y-78321896D01*
X180953072Y-78284508D01*
X180920829Y-78178217D01*
X180906113Y-78028800D01*
X180920829Y-77879383D01*
X180964413Y-77735708D01*
X180964414Y-77735704D01*
X181035187Y-77603297D01*
X181130436Y-77487236D01*
X181246497Y-77391987D01*
X181378904Y-77321214D01*
X181416292Y-77309872D01*
X181522583Y-77277629D01*
X181578574Y-77272114D01*
X181634563Y-77266600D01*
X181987037Y-77266600D01*
X182043026Y-77272114D01*
G37*
G36*
X166803026Y-77272114D02*
G01*
X166859017Y-77277629D01*
X166965308Y-77309872D01*
X167002696Y-77321214D01*
X167135103Y-77391987D01*
X167251164Y-77487236D01*
X167346413Y-77603297D01*
X167417186Y-77735704D01*
X167417187Y-77735708D01*
X167460771Y-77879383D01*
X167475487Y-78028800D01*
X167460771Y-78178217D01*
X167428528Y-78284508D01*
X167417186Y-78321896D01*
X167346413Y-78454303D01*
X167251164Y-78570364D01*
X167135103Y-78665613D01*
X167002696Y-78736386D01*
X166965308Y-78747728D01*
X166859017Y-78779971D01*
X166803026Y-78785486D01*
X166747037Y-78791000D01*
X166394563Y-78791000D01*
X166338574Y-78785486D01*
X166282583Y-78779971D01*
X166176292Y-78747728D01*
X166138904Y-78736386D01*
X166006497Y-78665613D01*
X165890436Y-78570364D01*
X165795187Y-78454303D01*
X165724414Y-78321896D01*
X165713072Y-78284508D01*
X165680829Y-78178217D01*
X165666113Y-78028800D01*
X165680829Y-77879383D01*
X165724413Y-77735708D01*
X165724414Y-77735704D01*
X165795187Y-77603297D01*
X165890436Y-77487236D01*
X166006497Y-77391987D01*
X166138904Y-77321214D01*
X166176292Y-77309872D01*
X166282583Y-77277629D01*
X166338574Y-77272114D01*
X166394563Y-77266600D01*
X166747037Y-77266600D01*
X166803026Y-77272114D01*
G37*
G36*
X179203026Y-77272114D02*
G01*
X179259017Y-77277629D01*
X179365308Y-77309872D01*
X179402696Y-77321214D01*
X179535103Y-77391987D01*
X179651164Y-77487236D01*
X179746413Y-77603297D01*
X179817186Y-77735704D01*
X179817187Y-77735708D01*
X179860771Y-77879383D01*
X179875487Y-78028800D01*
X179860771Y-78178217D01*
X179828528Y-78284508D01*
X179817186Y-78321896D01*
X179746413Y-78454303D01*
X179651164Y-78570364D01*
X179535103Y-78665613D01*
X179402696Y-78736386D01*
X179365308Y-78747728D01*
X179259017Y-78779971D01*
X179203026Y-78785486D01*
X179147037Y-78791000D01*
X178794563Y-78791000D01*
X178738574Y-78785486D01*
X178682583Y-78779971D01*
X178576292Y-78747728D01*
X178538904Y-78736386D01*
X178406497Y-78665613D01*
X178290436Y-78570364D01*
X178195187Y-78454303D01*
X178124414Y-78321896D01*
X178113072Y-78284508D01*
X178080829Y-78178217D01*
X178066113Y-78028800D01*
X178080829Y-77879383D01*
X178124413Y-77735708D01*
X178124414Y-77735704D01*
X178195187Y-77603297D01*
X178290436Y-77487236D01*
X178406497Y-77391987D01*
X178538904Y-77321214D01*
X178576292Y-77309872D01*
X178682583Y-77277629D01*
X178738574Y-77272114D01*
X178794563Y-77266600D01*
X179147037Y-77266600D01*
X179203026Y-77272114D01*
G37*
G36*
X180585397Y-76030364D02*
G01*
X180618060Y-76036861D01*
X180754733Y-76093473D01*
X180877736Y-76175661D01*
X180982341Y-76280266D01*
X181064529Y-76403269D01*
X181121141Y-76539942D01*
X181150001Y-76685034D01*
X181150001Y-76832968D01*
X181121141Y-76978060D01*
X181064529Y-77114733D01*
X180982341Y-77237736D01*
X180877736Y-77342341D01*
X180754733Y-77424529D01*
X180754732Y-77424530D01*
X180754731Y-77424530D01*
X180618060Y-77481141D01*
X180472969Y-77510001D01*
X180325033Y-77510001D01*
X180179942Y-77481141D01*
X180043271Y-77424530D01*
X180043270Y-77424530D01*
X180043269Y-77424529D01*
X179920266Y-77342341D01*
X179815661Y-77237736D01*
X179733473Y-77114733D01*
X179676861Y-76978060D01*
X179648001Y-76832968D01*
X179648001Y-76685034D01*
X179676861Y-76539942D01*
X179733473Y-76403269D01*
X179815661Y-76280266D01*
X179920266Y-76175661D01*
X180043269Y-76093473D01*
X180179942Y-76036861D01*
X180212605Y-76030364D01*
X180325033Y-76008001D01*
X180472969Y-76008001D01*
X180585397Y-76030364D01*
G37*
G36*
X165345397Y-76030364D02*
G01*
X165378060Y-76036861D01*
X165514733Y-76093473D01*
X165637736Y-76175661D01*
X165742341Y-76280266D01*
X165824529Y-76403269D01*
X165881141Y-76539942D01*
X165910001Y-76685034D01*
X165910001Y-76832968D01*
X165881141Y-76978060D01*
X165824529Y-77114733D01*
X165742341Y-77237736D01*
X165637736Y-77342341D01*
X165514733Y-77424529D01*
X165514732Y-77424530D01*
X165514731Y-77424530D01*
X165378060Y-77481141D01*
X165232969Y-77510001D01*
X165085033Y-77510001D01*
X164939942Y-77481141D01*
X164803271Y-77424530D01*
X164803270Y-77424530D01*
X164803269Y-77424529D01*
X164680266Y-77342341D01*
X164575661Y-77237736D01*
X164493473Y-77114733D01*
X164436861Y-76978060D01*
X164408001Y-76832968D01*
X164408001Y-76685034D01*
X164436861Y-76539942D01*
X164493473Y-76403269D01*
X164575661Y-76280266D01*
X164680266Y-76175661D01*
X164803269Y-76093473D01*
X164939942Y-76036861D01*
X164972605Y-76030364D01*
X165085033Y-76008001D01*
X165232969Y-76008001D01*
X165345397Y-76030364D01*
G37*
G36*
X179203026Y-74732115D02*
G01*
X179259017Y-74737629D01*
X179365308Y-74769872D01*
X179402696Y-74781214D01*
X179535103Y-74851987D01*
X179651164Y-74947236D01*
X179746413Y-75063297D01*
X179817186Y-75195704D01*
X179817187Y-75195708D01*
X179860771Y-75339383D01*
X179875487Y-75488800D01*
X179860771Y-75638217D01*
X179828528Y-75744508D01*
X179817186Y-75781896D01*
X179746413Y-75914303D01*
X179651164Y-76030364D01*
X179535103Y-76125613D01*
X179402696Y-76196386D01*
X179365308Y-76207728D01*
X179259017Y-76239971D01*
X179203026Y-76245485D01*
X179147037Y-76251000D01*
X178794563Y-76251000D01*
X178738574Y-76245485D01*
X178682583Y-76239971D01*
X178576292Y-76207728D01*
X178538904Y-76196386D01*
X178406497Y-76125613D01*
X178290436Y-76030364D01*
X178195187Y-75914303D01*
X178124414Y-75781896D01*
X178113072Y-75744508D01*
X178080829Y-75638217D01*
X178066113Y-75488800D01*
X178080829Y-75339383D01*
X178124413Y-75195708D01*
X178124414Y-75195704D01*
X178195187Y-75063297D01*
X178290436Y-74947236D01*
X178406497Y-74851987D01*
X178538904Y-74781214D01*
X178576292Y-74769872D01*
X178682583Y-74737629D01*
X178738574Y-74732115D01*
X178794563Y-74726600D01*
X179147037Y-74726600D01*
X179203026Y-74732115D01*
G37*
G36*
X182043026Y-74732115D02*
G01*
X182099017Y-74737629D01*
X182205308Y-74769872D01*
X182242696Y-74781214D01*
X182375103Y-74851987D01*
X182491164Y-74947236D01*
X182586413Y-75063297D01*
X182657186Y-75195704D01*
X182657187Y-75195708D01*
X182700771Y-75339383D01*
X182715487Y-75488800D01*
X182700771Y-75638217D01*
X182668528Y-75744508D01*
X182657186Y-75781896D01*
X182586413Y-75914303D01*
X182491164Y-76030364D01*
X182375103Y-76125613D01*
X182242696Y-76196386D01*
X182205308Y-76207728D01*
X182099017Y-76239971D01*
X182043026Y-76245485D01*
X181987037Y-76251000D01*
X181634563Y-76251000D01*
X181578574Y-76245485D01*
X181522583Y-76239971D01*
X181416292Y-76207728D01*
X181378904Y-76196386D01*
X181246497Y-76125613D01*
X181130436Y-76030364D01*
X181035187Y-75914303D01*
X180964414Y-75781896D01*
X180953072Y-75744508D01*
X180920829Y-75638217D01*
X180906113Y-75488800D01*
X180920829Y-75339383D01*
X180964413Y-75195708D01*
X180964414Y-75195704D01*
X181035187Y-75063297D01*
X181130436Y-74947236D01*
X181246497Y-74851987D01*
X181378904Y-74781214D01*
X181416292Y-74769872D01*
X181522583Y-74737629D01*
X181578574Y-74732115D01*
X181634563Y-74726600D01*
X181987037Y-74726600D01*
X182043026Y-74732115D01*
G37*
G36*
X163963026Y-74732115D02*
G01*
X164019017Y-74737629D01*
X164125308Y-74769872D01*
X164162696Y-74781214D01*
X164295103Y-74851987D01*
X164411164Y-74947236D01*
X164506413Y-75063297D01*
X164577186Y-75195704D01*
X164577187Y-75195708D01*
X164620771Y-75339383D01*
X164635487Y-75488800D01*
X164620771Y-75638217D01*
X164588528Y-75744508D01*
X164577186Y-75781896D01*
X164506413Y-75914303D01*
X164411164Y-76030364D01*
X164295103Y-76125613D01*
X164162696Y-76196386D01*
X164125308Y-76207728D01*
X164019017Y-76239971D01*
X163963026Y-76245485D01*
X163907037Y-76251000D01*
X163554563Y-76251000D01*
X163498574Y-76245485D01*
X163442583Y-76239971D01*
X163336292Y-76207728D01*
X163298904Y-76196386D01*
X163166497Y-76125613D01*
X163050436Y-76030364D01*
X162955187Y-75914303D01*
X162884414Y-75781896D01*
X162873072Y-75744508D01*
X162840829Y-75638217D01*
X162826113Y-75488800D01*
X162840829Y-75339383D01*
X162884413Y-75195708D01*
X162884414Y-75195704D01*
X162955187Y-75063297D01*
X163050436Y-74947236D01*
X163166497Y-74851987D01*
X163298904Y-74781214D01*
X163336292Y-74769872D01*
X163442583Y-74737629D01*
X163498574Y-74732115D01*
X163554563Y-74726600D01*
X163907037Y-74726600D01*
X163963026Y-74732115D01*
G37*
G36*
X166803026Y-74732115D02*
G01*
X166859017Y-74737629D01*
X166965308Y-74769872D01*
X167002696Y-74781214D01*
X167135103Y-74851987D01*
X167251164Y-74947236D01*
X167346413Y-75063297D01*
X167417186Y-75195704D01*
X167417187Y-75195708D01*
X167460771Y-75339383D01*
X167475487Y-75488800D01*
X167460771Y-75638217D01*
X167428528Y-75744508D01*
X167417186Y-75781896D01*
X167346413Y-75914303D01*
X167251164Y-76030364D01*
X167135103Y-76125613D01*
X167002696Y-76196386D01*
X166965308Y-76207728D01*
X166859017Y-76239971D01*
X166803026Y-76245485D01*
X166747037Y-76251000D01*
X166394563Y-76251000D01*
X166338574Y-76245485D01*
X166282583Y-76239971D01*
X166176292Y-76207728D01*
X166138904Y-76196386D01*
X166006497Y-76125613D01*
X165890436Y-76030364D01*
X165795187Y-75914303D01*
X165724414Y-75781896D01*
X165713072Y-75744508D01*
X165680829Y-75638217D01*
X165666113Y-75488800D01*
X165680829Y-75339383D01*
X165724413Y-75195708D01*
X165724414Y-75195704D01*
X165795187Y-75063297D01*
X165890436Y-74947236D01*
X166006497Y-74851987D01*
X166138904Y-74781214D01*
X166176292Y-74769872D01*
X166282583Y-74737629D01*
X166338574Y-74732115D01*
X166394563Y-74726600D01*
X166747037Y-74726600D01*
X166803026Y-74732115D01*
G37*
G36*
X165345397Y-73490364D02*
G01*
X165378060Y-73496861D01*
X165514733Y-73553473D01*
X165637736Y-73635661D01*
X165742341Y-73740266D01*
X165824529Y-73863269D01*
X165881141Y-73999942D01*
X165910001Y-74145034D01*
X165910001Y-74292968D01*
X165881141Y-74438060D01*
X165824529Y-74574733D01*
X165742341Y-74697736D01*
X165637736Y-74802341D01*
X165514733Y-74884529D01*
X165514732Y-74884530D01*
X165514731Y-74884530D01*
X165378060Y-74941141D01*
X165232969Y-74970001D01*
X165085033Y-74970001D01*
X164939942Y-74941141D01*
X164803271Y-74884530D01*
X164803270Y-74884530D01*
X164803269Y-74884529D01*
X164680266Y-74802341D01*
X164575661Y-74697736D01*
X164493473Y-74574733D01*
X164436861Y-74438060D01*
X164408001Y-74292968D01*
X164408001Y-74145034D01*
X164436861Y-73999942D01*
X164493473Y-73863269D01*
X164575661Y-73740266D01*
X164680266Y-73635661D01*
X164803269Y-73553473D01*
X164939942Y-73496861D01*
X164972605Y-73490364D01*
X165085033Y-73468001D01*
X165232969Y-73468001D01*
X165345397Y-73490364D01*
G37*
G36*
X180585397Y-73490364D02*
G01*
X180618060Y-73496861D01*
X180754733Y-73553473D01*
X180877736Y-73635661D01*
X180982341Y-73740266D01*
X181064529Y-73863269D01*
X181121141Y-73999942D01*
X181150001Y-74145034D01*
X181150001Y-74292968D01*
X181121141Y-74438060D01*
X181064529Y-74574733D01*
X180982341Y-74697736D01*
X180877736Y-74802341D01*
X180754733Y-74884529D01*
X180754732Y-74884530D01*
X180754731Y-74884530D01*
X180618060Y-74941141D01*
X180472969Y-74970001D01*
X180325033Y-74970001D01*
X180179942Y-74941141D01*
X180043271Y-74884530D01*
X180043270Y-74884530D01*
X180043269Y-74884529D01*
X179920266Y-74802341D01*
X179815661Y-74697736D01*
X179733473Y-74574733D01*
X179676861Y-74438060D01*
X179648001Y-74292968D01*
X179648001Y-74145034D01*
X179676861Y-73999942D01*
X179733473Y-73863269D01*
X179815661Y-73740266D01*
X179920266Y-73635661D01*
X180043269Y-73553473D01*
X180179942Y-73496861D01*
X180212605Y-73490364D01*
X180325033Y-73468001D01*
X180472969Y-73468001D01*
X180585397Y-73490364D01*
G37*
G36*
X163963026Y-72192115D02*
G01*
X164019017Y-72197629D01*
X164125308Y-72229872D01*
X164162696Y-72241214D01*
X164295103Y-72311987D01*
X164411164Y-72407236D01*
X164506413Y-72523297D01*
X164577186Y-72655704D01*
X164577187Y-72655708D01*
X164620771Y-72799383D01*
X164635487Y-72948800D01*
X164620771Y-73098217D01*
X164598654Y-73171125D01*
X164577186Y-73241896D01*
X164506413Y-73374303D01*
X164411164Y-73490364D01*
X164295103Y-73585613D01*
X164162696Y-73656386D01*
X164125308Y-73667728D01*
X164019017Y-73699971D01*
X163963026Y-73705486D01*
X163907037Y-73711000D01*
X163554563Y-73711000D01*
X163498574Y-73705486D01*
X163442583Y-73699971D01*
X163336292Y-73667728D01*
X163298904Y-73656386D01*
X163166497Y-73585613D01*
X163050436Y-73490364D01*
X162955187Y-73374303D01*
X162884414Y-73241896D01*
X162862946Y-73171125D01*
X162840829Y-73098217D01*
X162826113Y-72948800D01*
X162840829Y-72799383D01*
X162884413Y-72655708D01*
X162884414Y-72655704D01*
X162955187Y-72523297D01*
X163050436Y-72407236D01*
X163166497Y-72311987D01*
X163298904Y-72241214D01*
X163336292Y-72229872D01*
X163442583Y-72197629D01*
X163498574Y-72192115D01*
X163554563Y-72186600D01*
X163907037Y-72186600D01*
X163963026Y-72192115D01*
G37*
G36*
X171723125Y-72215890D02*
G01*
X171861838Y-72273347D01*
X171986672Y-72356758D01*
X172092842Y-72462928D01*
X172176253Y-72587762D01*
X172233710Y-72726475D01*
X172263000Y-72873729D01*
X172263000Y-73023871D01*
X172233710Y-73171125D01*
X172176253Y-73309838D01*
X172092842Y-73434672D01*
X171986672Y-73540842D01*
X171861838Y-73624253D01*
X171723125Y-73681710D01*
X171575871Y-73711000D01*
X171425729Y-73711000D01*
X171278475Y-73681710D01*
X171139762Y-73624253D01*
X171014928Y-73540842D01*
X170908758Y-73434672D01*
X170825347Y-73309838D01*
X170767890Y-73171125D01*
X170738600Y-73023871D01*
X170738600Y-72873729D01*
X170767890Y-72726475D01*
X170825347Y-72587762D01*
X170908758Y-72462928D01*
X171014928Y-72356758D01*
X171139762Y-72273347D01*
X171278475Y-72215890D01*
X171425729Y-72186600D01*
X171575871Y-72186600D01*
X171723125Y-72215890D01*
G37*
G36*
X169183125Y-72215890D02*
G01*
X169321838Y-72273347D01*
X169446672Y-72356758D01*
X169552842Y-72462928D01*
X169636253Y-72587762D01*
X169693710Y-72726475D01*
X169723000Y-72873729D01*
X169723000Y-73023871D01*
X169693710Y-73171125D01*
X169636253Y-73309838D01*
X169552842Y-73434672D01*
X169446672Y-73540842D01*
X169321838Y-73624253D01*
X169183125Y-73681710D01*
X169035871Y-73711000D01*
X168885729Y-73711000D01*
X168738475Y-73681710D01*
X168599762Y-73624253D01*
X168474928Y-73540842D01*
X168368758Y-73434672D01*
X168285347Y-73309838D01*
X168227890Y-73171125D01*
X168198600Y-73023871D01*
X168198600Y-72873729D01*
X168227890Y-72726475D01*
X168285347Y-72587762D01*
X168368758Y-72462928D01*
X168474928Y-72356758D01*
X168599762Y-72273347D01*
X168738475Y-72215890D01*
X168885729Y-72186600D01*
X169035871Y-72186600D01*
X169183125Y-72215890D01*
G37*
G36*
X174803000Y-73711000D02*
G01*
X173278600Y-73711000D01*
X173278600Y-72186600D01*
X174803000Y-72186600D01*
X174803000Y-73711000D01*
G37*
G36*
X176803125Y-72215890D02*
G01*
X176941838Y-72273347D01*
X177066672Y-72356758D01*
X177172842Y-72462928D01*
X177256253Y-72587762D01*
X177313710Y-72726475D01*
X177343000Y-72873729D01*
X177343000Y-73023871D01*
X177313710Y-73171125D01*
X177256253Y-73309838D01*
X177172842Y-73434672D01*
X177066672Y-73540842D01*
X176941838Y-73624253D01*
X176803125Y-73681710D01*
X176655871Y-73711000D01*
X176505729Y-73711000D01*
X176358475Y-73681710D01*
X176219762Y-73624253D01*
X176094928Y-73540842D01*
X175988758Y-73434672D01*
X175905347Y-73309838D01*
X175847890Y-73171125D01*
X175818600Y-73023871D01*
X175818600Y-72873729D01*
X175847890Y-72726475D01*
X175905347Y-72587762D01*
X175988758Y-72462928D01*
X176094928Y-72356758D01*
X176219762Y-72273347D01*
X176358475Y-72215890D01*
X176505729Y-72186600D01*
X176655871Y-72186600D01*
X176803125Y-72215890D01*
G37*
G36*
X179203026Y-72192115D02*
G01*
X179259017Y-72197629D01*
X179365308Y-72229872D01*
X179402696Y-72241214D01*
X179535103Y-72311987D01*
X179651164Y-72407236D01*
X179746413Y-72523297D01*
X179817186Y-72655704D01*
X179817187Y-72655708D01*
X179860771Y-72799383D01*
X179875487Y-72948800D01*
X179860771Y-73098217D01*
X179838654Y-73171125D01*
X179817186Y-73241896D01*
X179746413Y-73374303D01*
X179651164Y-73490364D01*
X179535103Y-73585613D01*
X179402696Y-73656386D01*
X179365308Y-73667728D01*
X179259017Y-73699971D01*
X179203026Y-73705486D01*
X179147037Y-73711000D01*
X178794563Y-73711000D01*
X178738574Y-73705486D01*
X178682583Y-73699971D01*
X178576292Y-73667728D01*
X178538904Y-73656386D01*
X178406497Y-73585613D01*
X178290436Y-73490364D01*
X178195187Y-73374303D01*
X178124414Y-73241896D01*
X178102946Y-73171125D01*
X178080829Y-73098217D01*
X178066113Y-72948800D01*
X178080829Y-72799383D01*
X178124413Y-72655708D01*
X178124414Y-72655704D01*
X178195187Y-72523297D01*
X178290436Y-72407236D01*
X178406497Y-72311987D01*
X178538904Y-72241214D01*
X178576292Y-72229872D01*
X178682583Y-72197629D01*
X178738574Y-72192115D01*
X178794563Y-72186600D01*
X179147037Y-72186600D01*
X179203026Y-72192115D01*
G37*
G36*
X166803026Y-72192115D02*
G01*
X166859017Y-72197629D01*
X166965308Y-72229872D01*
X167002696Y-72241214D01*
X167135103Y-72311987D01*
X167251164Y-72407236D01*
X167346413Y-72523297D01*
X167417186Y-72655704D01*
X167417187Y-72655708D01*
X167460771Y-72799383D01*
X167475487Y-72948800D01*
X167460771Y-73098217D01*
X167438654Y-73171125D01*
X167417186Y-73241896D01*
X167346413Y-73374303D01*
X167251164Y-73490364D01*
X167135103Y-73585613D01*
X167002696Y-73656386D01*
X166965308Y-73667728D01*
X166859017Y-73699971D01*
X166803026Y-73705486D01*
X166747037Y-73711000D01*
X166394563Y-73711000D01*
X166338574Y-73705486D01*
X166282583Y-73699971D01*
X166176292Y-73667728D01*
X166138904Y-73656386D01*
X166006497Y-73585613D01*
X165890436Y-73490364D01*
X165795187Y-73374303D01*
X165724414Y-73241896D01*
X165702946Y-73171125D01*
X165680829Y-73098217D01*
X165666113Y-72948800D01*
X165680829Y-72799383D01*
X165724413Y-72655708D01*
X165724414Y-72655704D01*
X165795187Y-72523297D01*
X165890436Y-72407236D01*
X166006497Y-72311987D01*
X166138904Y-72241214D01*
X166176292Y-72229872D01*
X166282583Y-72197629D01*
X166338574Y-72192115D01*
X166394563Y-72186600D01*
X166747037Y-72186600D01*
X166803026Y-72192115D01*
G37*
G36*
X182043026Y-72192115D02*
G01*
X182099017Y-72197629D01*
X182205308Y-72229872D01*
X182242696Y-72241214D01*
X182375103Y-72311987D01*
X182491164Y-72407236D01*
X182586413Y-72523297D01*
X182657186Y-72655704D01*
X182657187Y-72655708D01*
X182700771Y-72799383D01*
X182715487Y-72948800D01*
X182700771Y-73098217D01*
X182678654Y-73171125D01*
X182657186Y-73241896D01*
X182586413Y-73374303D01*
X182491164Y-73490364D01*
X182375103Y-73585613D01*
X182242696Y-73656386D01*
X182205308Y-73667728D01*
X182099017Y-73699971D01*
X182043026Y-73705486D01*
X181987037Y-73711000D01*
X181634563Y-73711000D01*
X181578574Y-73705486D01*
X181522583Y-73699971D01*
X181416292Y-73667728D01*
X181378904Y-73656386D01*
X181246497Y-73585613D01*
X181130436Y-73490364D01*
X181035187Y-73374303D01*
X180964414Y-73241896D01*
X180942946Y-73171125D01*
X180920829Y-73098217D01*
X180906113Y-72948800D01*
X180920829Y-72799383D01*
X180964413Y-72655708D01*
X180964414Y-72655704D01*
X181035187Y-72523297D01*
X181130436Y-72407236D01*
X181246497Y-72311987D01*
X181378904Y-72241214D01*
X181416292Y-72229872D01*
X181522583Y-72197629D01*
X181578574Y-72192115D01*
X181634563Y-72186600D01*
X181987037Y-72186600D01*
X182043026Y-72192115D01*
G37*
G36*
X180585397Y-70950364D02*
G01*
X180618060Y-70956861D01*
X180754733Y-71013473D01*
X180877736Y-71095661D01*
X180982341Y-71200266D01*
X181064529Y-71323269D01*
X181121141Y-71459942D01*
X181150001Y-71605034D01*
X181150001Y-71752968D01*
X181121141Y-71898060D01*
X181064529Y-72034733D01*
X180982341Y-72157736D01*
X180877736Y-72262341D01*
X180754733Y-72344529D01*
X180754732Y-72344530D01*
X180754731Y-72344530D01*
X180618060Y-72401141D01*
X180472969Y-72430001D01*
X180325033Y-72430001D01*
X180179942Y-72401141D01*
X180043271Y-72344530D01*
X180043270Y-72344530D01*
X180043269Y-72344529D01*
X179920266Y-72262341D01*
X179815661Y-72157736D01*
X179733473Y-72034733D01*
X179676861Y-71898060D01*
X179648001Y-71752968D01*
X179648001Y-71605034D01*
X179676861Y-71459942D01*
X179733473Y-71323269D01*
X179815661Y-71200266D01*
X179920266Y-71095661D01*
X180043269Y-71013473D01*
X180179942Y-70956861D01*
X180212605Y-70950364D01*
X180325033Y-70928001D01*
X180472969Y-70928001D01*
X180585397Y-70950364D01*
G37*
G36*
X165345397Y-70950364D02*
G01*
X165378060Y-70956861D01*
X165514733Y-71013473D01*
X165637736Y-71095661D01*
X165742341Y-71200266D01*
X165824529Y-71323269D01*
X165881141Y-71459942D01*
X165910001Y-71605034D01*
X165910001Y-71752968D01*
X165881141Y-71898060D01*
X165824529Y-72034733D01*
X165742341Y-72157736D01*
X165637736Y-72262341D01*
X165514733Y-72344529D01*
X165514732Y-72344530D01*
X165514731Y-72344530D01*
X165378060Y-72401141D01*
X165232969Y-72430001D01*
X165085033Y-72430001D01*
X164939942Y-72401141D01*
X164803271Y-72344530D01*
X164803270Y-72344530D01*
X164803269Y-72344529D01*
X164680266Y-72262341D01*
X164575661Y-72157736D01*
X164493473Y-72034733D01*
X164436861Y-71898060D01*
X164408001Y-71752968D01*
X164408001Y-71605034D01*
X164436861Y-71459942D01*
X164493473Y-71323269D01*
X164575661Y-71200266D01*
X164680266Y-71095661D01*
X164803269Y-71013473D01*
X164939942Y-70956861D01*
X164972605Y-70950364D01*
X165085033Y-70928001D01*
X165232969Y-70928001D01*
X165345397Y-70950364D01*
G37*
G36*
X176803125Y-69675890D02*
G01*
X176941838Y-69733347D01*
X177066672Y-69816758D01*
X177172842Y-69922928D01*
X177256253Y-70047762D01*
X177313710Y-70186475D01*
X177343000Y-70333729D01*
X177343000Y-70483871D01*
X177313710Y-70631125D01*
X177256253Y-70769838D01*
X177172842Y-70894672D01*
X177066672Y-71000842D01*
X176941838Y-71084253D01*
X176803125Y-71141710D01*
X176655871Y-71171000D01*
X176505729Y-71171000D01*
X176358475Y-71141710D01*
X176219762Y-71084253D01*
X176094928Y-71000842D01*
X175988758Y-70894672D01*
X175905347Y-70769838D01*
X175847890Y-70631125D01*
X175818600Y-70483871D01*
X175818600Y-70333729D01*
X175847890Y-70186475D01*
X175905347Y-70047762D01*
X175988758Y-69922928D01*
X176094928Y-69816758D01*
X176219762Y-69733347D01*
X176358475Y-69675890D01*
X176505729Y-69646600D01*
X176655871Y-69646600D01*
X176803125Y-69675890D01*
G37*
G36*
X166803026Y-69652114D02*
G01*
X166859017Y-69657629D01*
X166965308Y-69689872D01*
X167002696Y-69701214D01*
X167135103Y-69771987D01*
X167251164Y-69867236D01*
X167346413Y-69983297D01*
X167417186Y-70115704D01*
X167417187Y-70115708D01*
X167460771Y-70259383D01*
X167475487Y-70408800D01*
X167460771Y-70558217D01*
X167438654Y-70631125D01*
X167417186Y-70701896D01*
X167346413Y-70834303D01*
X167251164Y-70950364D01*
X167135103Y-71045613D01*
X167002696Y-71116386D01*
X166965308Y-71127728D01*
X166859017Y-71159971D01*
X166803026Y-71165485D01*
X166747037Y-71171000D01*
X166394563Y-71171000D01*
X166338574Y-71165485D01*
X166282583Y-71159971D01*
X166176292Y-71127728D01*
X166138904Y-71116386D01*
X166006497Y-71045613D01*
X165890436Y-70950364D01*
X165795187Y-70834303D01*
X165724414Y-70701896D01*
X165702946Y-70631125D01*
X165680829Y-70558217D01*
X165666113Y-70408800D01*
X165680829Y-70259383D01*
X165724413Y-70115708D01*
X165724414Y-70115704D01*
X165795187Y-69983297D01*
X165890436Y-69867236D01*
X166006497Y-69771987D01*
X166138904Y-69701214D01*
X166176292Y-69689872D01*
X166282583Y-69657629D01*
X166338574Y-69652114D01*
X166394563Y-69646600D01*
X166747037Y-69646600D01*
X166803026Y-69652114D01*
G37*
G36*
X171723125Y-69675890D02*
G01*
X171861838Y-69733347D01*
X171986672Y-69816758D01*
X172092842Y-69922928D01*
X172176253Y-70047762D01*
X172233710Y-70186475D01*
X172263000Y-70333729D01*
X172263000Y-70483871D01*
X172233710Y-70631125D01*
X172176253Y-70769838D01*
X172092842Y-70894672D01*
X171986672Y-71000842D01*
X171861838Y-71084253D01*
X171723125Y-71141710D01*
X171575871Y-71171000D01*
X171425729Y-71171000D01*
X171278475Y-71141710D01*
X171139762Y-71084253D01*
X171014928Y-71000842D01*
X170908758Y-70894672D01*
X170825347Y-70769838D01*
X170767890Y-70631125D01*
X170738600Y-70483871D01*
X170738600Y-70333729D01*
X170767890Y-70186475D01*
X170825347Y-70047762D01*
X170908758Y-69922928D01*
X171014928Y-69816758D01*
X171139762Y-69733347D01*
X171278475Y-69675890D01*
X171425729Y-69646600D01*
X171575871Y-69646600D01*
X171723125Y-69675890D01*
G37*
G36*
X169183125Y-69675890D02*
G01*
X169321838Y-69733347D01*
X169446672Y-69816758D01*
X169552842Y-69922928D01*
X169636253Y-70047762D01*
X169693710Y-70186475D01*
X169723000Y-70333729D01*
X169723000Y-70483871D01*
X169693710Y-70631125D01*
X169636253Y-70769838D01*
X169552842Y-70894672D01*
X169446672Y-71000842D01*
X169321838Y-71084253D01*
X169183125Y-71141710D01*
X169035871Y-71171000D01*
X168885729Y-71171000D01*
X168738475Y-71141710D01*
X168599762Y-71084253D01*
X168474928Y-71000842D01*
X168368758Y-70894672D01*
X168285347Y-70769838D01*
X168227890Y-70631125D01*
X168198600Y-70483871D01*
X168198600Y-70333729D01*
X168227890Y-70186475D01*
X168285347Y-70047762D01*
X168368758Y-69922928D01*
X168474928Y-69816758D01*
X168599762Y-69733347D01*
X168738475Y-69675890D01*
X168885729Y-69646600D01*
X169035871Y-69646600D01*
X169183125Y-69675890D01*
G37*
G36*
X179203026Y-69652114D02*
G01*
X179259017Y-69657629D01*
X179365308Y-69689872D01*
X179402696Y-69701214D01*
X179535103Y-69771987D01*
X179651164Y-69867236D01*
X179746413Y-69983297D01*
X179817186Y-70115704D01*
X179817187Y-70115708D01*
X179860771Y-70259383D01*
X179875487Y-70408800D01*
X179860771Y-70558217D01*
X179838654Y-70631125D01*
X179817186Y-70701896D01*
X179746413Y-70834303D01*
X179651164Y-70950364D01*
X179535103Y-71045613D01*
X179402696Y-71116386D01*
X179365308Y-71127728D01*
X179259017Y-71159971D01*
X179203026Y-71165485D01*
X179147037Y-71171000D01*
X178794563Y-71171000D01*
X178738574Y-71165485D01*
X178682583Y-71159971D01*
X178576292Y-71127728D01*
X178538904Y-71116386D01*
X178406497Y-71045613D01*
X178290436Y-70950364D01*
X178195187Y-70834303D01*
X178124414Y-70701896D01*
X178102946Y-70631125D01*
X178080829Y-70558217D01*
X178066113Y-70408800D01*
X178080829Y-70259383D01*
X178124413Y-70115708D01*
X178124414Y-70115704D01*
X178195187Y-69983297D01*
X178290436Y-69867236D01*
X178406497Y-69771987D01*
X178538904Y-69701214D01*
X178576292Y-69689872D01*
X178682583Y-69657629D01*
X178738574Y-69652114D01*
X178794563Y-69646600D01*
X179147037Y-69646600D01*
X179203026Y-69652114D01*
G37*
G36*
X174263125Y-69675890D02*
G01*
X174401838Y-69733347D01*
X174526672Y-69816758D01*
X174632842Y-69922928D01*
X174716253Y-70047762D01*
X174773710Y-70186475D01*
X174803000Y-70333729D01*
X174803000Y-70483871D01*
X174773710Y-70631125D01*
X174716253Y-70769838D01*
X174632842Y-70894672D01*
X174526672Y-71000842D01*
X174401838Y-71084253D01*
X174263125Y-71141710D01*
X174115871Y-71171000D01*
X173965729Y-71171000D01*
X173818475Y-71141710D01*
X173679762Y-71084253D01*
X173554928Y-71000842D01*
X173448758Y-70894672D01*
X173365347Y-70769838D01*
X173307890Y-70631125D01*
X173278600Y-70483871D01*
X173278600Y-70333729D01*
X173307890Y-70186475D01*
X173365347Y-70047762D01*
X173448758Y-69922928D01*
X173554928Y-69816758D01*
X173679762Y-69733347D01*
X173818475Y-69675890D01*
X173965729Y-69646600D01*
X174115871Y-69646600D01*
X174263125Y-69675890D01*
G37*
G36*
X180618060Y-68416861D02*
G01*
X180754733Y-68473473D01*
X180877736Y-68555661D01*
X180982341Y-68660266D01*
X181064529Y-68783269D01*
X181121141Y-68919942D01*
X181150001Y-69065034D01*
X181150001Y-69212968D01*
X181121141Y-69358060D01*
X181064529Y-69494733D01*
X180982341Y-69617736D01*
X180877736Y-69722341D01*
X180754733Y-69804529D01*
X180754732Y-69804530D01*
X180754731Y-69804530D01*
X180618060Y-69861141D01*
X180472969Y-69890001D01*
X180325033Y-69890001D01*
X180179942Y-69861141D01*
X180043271Y-69804530D01*
X180043270Y-69804530D01*
X180043269Y-69804529D01*
X179920266Y-69722341D01*
X179815661Y-69617736D01*
X179733473Y-69494733D01*
X179676861Y-69358060D01*
X179648001Y-69212968D01*
X179648001Y-69065034D01*
X179676861Y-68919942D01*
X179733473Y-68783269D01*
X179815661Y-68660266D01*
X179920266Y-68555661D01*
X180043269Y-68473473D01*
X180179942Y-68416861D01*
X180325033Y-68388001D01*
X180472969Y-68388001D01*
X180618060Y-68416861D01*
G37*
G36*
X165378060Y-68416861D02*
G01*
X165514733Y-68473473D01*
X165637736Y-68555661D01*
X165742341Y-68660266D01*
X165824529Y-68783269D01*
X165881141Y-68919942D01*
X165910001Y-69065034D01*
X165910001Y-69212968D01*
X165881141Y-69358060D01*
X165824529Y-69494733D01*
X165742341Y-69617736D01*
X165637736Y-69722341D01*
X165514733Y-69804529D01*
X165514732Y-69804530D01*
X165514731Y-69804530D01*
X165378060Y-69861141D01*
X165232969Y-69890001D01*
X165085033Y-69890001D01*
X164939942Y-69861141D01*
X164803271Y-69804530D01*
X164803270Y-69804530D01*
X164803269Y-69804529D01*
X164680266Y-69722341D01*
X164575661Y-69617736D01*
X164493473Y-69494733D01*
X164436861Y-69358060D01*
X164408001Y-69212968D01*
X164408001Y-69065034D01*
X164436861Y-68919942D01*
X164493473Y-68783269D01*
X164575661Y-68660266D01*
X164680266Y-68555661D01*
X164803269Y-68473473D01*
X164939942Y-68416861D01*
X165085033Y-68388001D01*
X165232969Y-68388001D01*
X165378060Y-68416861D01*
G37*
G36*
X180647229Y-65780704D02*
G01*
X180802101Y-65844854D01*
X180941482Y-65937986D01*
X181060016Y-66056520D01*
X181153148Y-66195901D01*
X181217298Y-66350773D01*
X181250001Y-66515185D01*
X181250001Y-66682817D01*
X181217298Y-66847229D01*
X181153148Y-67002101D01*
X181060016Y-67141482D01*
X180941482Y-67260016D01*
X180802101Y-67353148D01*
X180647229Y-67417298D01*
X180482817Y-67450001D01*
X180315185Y-67450001D01*
X180150773Y-67417298D01*
X179995901Y-67353148D01*
X179856520Y-67260016D01*
X179737986Y-67141482D01*
X179644854Y-67002101D01*
X179580704Y-66847229D01*
X179548001Y-66682817D01*
X179548001Y-66515185D01*
X179580704Y-66350773D01*
X179644854Y-66195901D01*
X179737986Y-66056520D01*
X179856520Y-65937986D01*
X179995901Y-65844854D01*
X180150773Y-65780704D01*
X180315185Y-65748001D01*
X180482817Y-65748001D01*
X180647229Y-65780704D01*
G37*
G36*
X165407229Y-65780704D02*
G01*
X165562101Y-65844854D01*
X165701482Y-65937986D01*
X165820016Y-66056520D01*
X165913148Y-66195901D01*
X165977298Y-66350773D01*
X166010001Y-66515185D01*
X166010001Y-66682817D01*
X165977298Y-66847229D01*
X165913148Y-67002101D01*
X165820016Y-67141482D01*
X165701482Y-67260016D01*
X165562101Y-67353148D01*
X165407229Y-67417298D01*
X165242817Y-67450001D01*
X165075185Y-67450001D01*
X164910773Y-67417298D01*
X164755901Y-67353148D01*
X164616520Y-67260016D01*
X164497986Y-67141482D01*
X164404854Y-67002101D01*
X164340704Y-66847229D01*
X164308001Y-66682817D01*
X164308001Y-66515185D01*
X164340704Y-66350773D01*
X164404854Y-66195901D01*
X164497986Y-66056520D01*
X164616520Y-65937986D01*
X164755901Y-65844854D01*
X164910773Y-65780704D01*
X165075185Y-65748001D01*
X165242817Y-65748001D01*
X165407229Y-65780704D01*
G37*
G36*
X165407229Y-63240704D02*
G01*
X165562101Y-63304854D01*
X165701482Y-63397986D01*
X165820016Y-63516520D01*
X165913148Y-63655901D01*
X165977298Y-63810773D01*
X166010001Y-63975185D01*
X166010001Y-64142817D01*
X165977298Y-64307229D01*
X165913148Y-64462101D01*
X165820016Y-64601482D01*
X165701482Y-64720016D01*
X165562101Y-64813148D01*
X165407229Y-64877298D01*
X165242817Y-64910001D01*
X165075185Y-64910001D01*
X164910773Y-64877298D01*
X164755901Y-64813148D01*
X164616520Y-64720016D01*
X164497986Y-64601482D01*
X164404854Y-64462101D01*
X164340704Y-64307229D01*
X164308001Y-64142817D01*
X164308001Y-63975185D01*
X164340704Y-63810773D01*
X164404854Y-63655901D01*
X164497986Y-63516520D01*
X164616520Y-63397986D01*
X164755901Y-63304854D01*
X164910773Y-63240704D01*
X165075185Y-63208001D01*
X165242817Y-63208001D01*
X165407229Y-63240704D01*
G37*
G36*
X180647229Y-63240704D02*
G01*
X180802101Y-63304854D01*
X180941482Y-63397986D01*
X181060016Y-63516520D01*
X181153148Y-63655901D01*
X181217298Y-63810773D01*
X181250001Y-63975185D01*
X181250001Y-64142817D01*
X181217298Y-64307229D01*
X181153148Y-64462101D01*
X181060016Y-64601482D01*
X180941482Y-64720016D01*
X180802101Y-64813148D01*
X180647229Y-64877298D01*
X180482817Y-64910001D01*
X180315185Y-64910001D01*
X180150773Y-64877298D01*
X179995901Y-64813148D01*
X179856520Y-64720016D01*
X179737986Y-64601482D01*
X179644854Y-64462101D01*
X179580704Y-64307229D01*
X179548001Y-64142817D01*
X179548001Y-63975185D01*
X179580704Y-63810773D01*
X179644854Y-63655901D01*
X179737986Y-63516520D01*
X179856520Y-63397986D01*
X179995901Y-63304854D01*
X180150773Y-63240704D01*
X180315185Y-63208001D01*
X180482817Y-63208001D01*
X180647229Y-63240704D01*
G37*
G36*
X180647229Y-60700704D02*
G01*
X180802101Y-60764854D01*
X180941482Y-60857986D01*
X181060016Y-60976520D01*
X181153148Y-61115901D01*
X181217298Y-61270773D01*
X181250001Y-61435185D01*
X181250001Y-61602817D01*
X181217298Y-61767229D01*
X181153148Y-61922101D01*
X181060016Y-62061482D01*
X180941482Y-62180016D01*
X180802101Y-62273148D01*
X180647229Y-62337298D01*
X180482817Y-62370001D01*
X180315185Y-62370001D01*
X180150773Y-62337298D01*
X179995901Y-62273148D01*
X179856520Y-62180016D01*
X179737986Y-62061482D01*
X179644854Y-61922101D01*
X179580704Y-61767229D01*
X179548001Y-61602817D01*
X179548001Y-61435185D01*
X179580704Y-61270773D01*
X179644854Y-61115901D01*
X179737986Y-60976520D01*
X179856520Y-60857986D01*
X179995901Y-60764854D01*
X180150773Y-60700704D01*
X180315185Y-60668001D01*
X180482817Y-60668001D01*
X180647229Y-60700704D01*
G37*
G36*
X165407229Y-60700704D02*
G01*
X165562101Y-60764854D01*
X165701482Y-60857986D01*
X165820016Y-60976520D01*
X165913148Y-61115901D01*
X165977298Y-61270773D01*
X166010001Y-61435185D01*
X166010001Y-61602817D01*
X165977298Y-61767229D01*
X165913148Y-61922101D01*
X165820016Y-62061482D01*
X165701482Y-62180016D01*
X165562101Y-62273148D01*
X165407229Y-62337298D01*
X165242817Y-62370001D01*
X165075185Y-62370001D01*
X164910773Y-62337298D01*
X164755901Y-62273148D01*
X164616520Y-62180016D01*
X164497986Y-62061482D01*
X164404854Y-61922101D01*
X164340704Y-61767229D01*
X164308001Y-61602817D01*
X164308001Y-61435185D01*
X164340704Y-61270773D01*
X164404854Y-61115901D01*
X164497986Y-60976520D01*
X164616520Y-60857986D01*
X164755901Y-60764854D01*
X164910773Y-60700704D01*
X165075185Y-60668001D01*
X165242817Y-60668001D01*
X165407229Y-60700704D01*
G37*
G36*
X180647229Y-58160704D02*
G01*
X180802101Y-58224854D01*
X180941482Y-58317986D01*
X181060016Y-58436520D01*
X181153148Y-58575901D01*
X181217298Y-58730773D01*
X181250001Y-58895185D01*
X181250001Y-59062817D01*
X181217298Y-59227229D01*
X181153148Y-59382101D01*
X181060016Y-59521482D01*
X180941482Y-59640016D01*
X180802101Y-59733148D01*
X180647229Y-59797298D01*
X180482817Y-59830001D01*
X180315185Y-59830001D01*
X180150773Y-59797298D01*
X179995901Y-59733148D01*
X179856520Y-59640016D01*
X179737986Y-59521482D01*
X179644854Y-59382101D01*
X179580704Y-59227229D01*
X179548001Y-59062817D01*
X179548001Y-58895185D01*
X179580704Y-58730773D01*
X179644854Y-58575901D01*
X179737986Y-58436520D01*
X179856520Y-58317986D01*
X179995901Y-58224854D01*
X180150773Y-58160704D01*
X180315185Y-58128001D01*
X180482817Y-58128001D01*
X180647229Y-58160704D01*
G37*
G36*
X165407229Y-58160704D02*
G01*
X165562101Y-58224854D01*
X165701482Y-58317986D01*
X165820016Y-58436520D01*
X165913148Y-58575901D01*
X165977298Y-58730773D01*
X166010001Y-58895185D01*
X166010001Y-59062817D01*
X165977298Y-59227229D01*
X165913148Y-59382101D01*
X165820016Y-59521482D01*
X165701482Y-59640016D01*
X165562101Y-59733148D01*
X165407229Y-59797298D01*
X165242817Y-59830001D01*
X165075185Y-59830001D01*
X164910773Y-59797298D01*
X164755901Y-59733148D01*
X164616520Y-59640016D01*
X164497986Y-59521482D01*
X164404854Y-59382101D01*
X164340704Y-59227229D01*
X164308001Y-59062817D01*
X164308001Y-58895185D01*
X164340704Y-58730773D01*
X164404854Y-58575901D01*
X164497986Y-58436520D01*
X164616520Y-58317986D01*
X164755901Y-58224854D01*
X164910773Y-58160704D01*
X165075185Y-58128001D01*
X165242817Y-58128001D01*
X165407229Y-58160704D01*
G37*
G36*
X180647229Y-55620704D02*
G01*
X180802101Y-55684854D01*
X180941482Y-55777986D01*
X181060016Y-55896520D01*
X181153148Y-56035901D01*
X181217298Y-56190773D01*
X181250001Y-56355185D01*
X181250001Y-56522817D01*
X181217298Y-56687229D01*
X181153148Y-56842101D01*
X181060016Y-56981482D01*
X180941482Y-57100016D01*
X180802101Y-57193148D01*
X180647229Y-57257298D01*
X180482817Y-57290001D01*
X180315185Y-57290001D01*
X180150773Y-57257298D01*
X179995901Y-57193148D01*
X179856520Y-57100016D01*
X179737986Y-56981482D01*
X179644854Y-56842101D01*
X179580704Y-56687229D01*
X179548001Y-56522817D01*
X179548001Y-56355185D01*
X179580704Y-56190773D01*
X179644854Y-56035901D01*
X179737986Y-55896520D01*
X179856520Y-55777986D01*
X179995901Y-55684854D01*
X180150773Y-55620704D01*
X180315185Y-55588001D01*
X180482817Y-55588001D01*
X180647229Y-55620704D01*
G37*
G36*
X165407229Y-55620704D02*
G01*
X165562101Y-55684854D01*
X165701482Y-55777986D01*
X165820016Y-55896520D01*
X165913148Y-56035901D01*
X165977298Y-56190773D01*
X166010001Y-56355185D01*
X166010001Y-56522817D01*
X165977298Y-56687229D01*
X165913148Y-56842101D01*
X165820016Y-56981482D01*
X165701482Y-57100016D01*
X165562101Y-57193148D01*
X165407229Y-57257298D01*
X165242817Y-57290001D01*
X165075185Y-57290001D01*
X164910773Y-57257298D01*
X164755901Y-57193148D01*
X164616520Y-57100016D01*
X164497986Y-56981482D01*
X164404854Y-56842101D01*
X164340704Y-56687229D01*
X164308001Y-56522817D01*
X164308001Y-56355185D01*
X164340704Y-56190773D01*
X164404854Y-56035901D01*
X164497986Y-55896520D01*
X164616520Y-55777986D01*
X164755901Y-55684854D01*
X164910773Y-55620704D01*
X165075185Y-55588001D01*
X165242817Y-55588001D01*
X165407229Y-55620704D01*
G37*
G36*
X180647229Y-53080704D02*
G01*
X180802101Y-53144854D01*
X180941482Y-53237986D01*
X181060016Y-53356520D01*
X181153148Y-53495901D01*
X181217298Y-53650773D01*
X181250001Y-53815185D01*
X181250001Y-53982817D01*
X181217298Y-54147229D01*
X181153148Y-54302101D01*
X181060016Y-54441482D01*
X180941482Y-54560016D01*
X180802101Y-54653148D01*
X180647229Y-54717298D01*
X180482817Y-54750001D01*
X180315185Y-54750001D01*
X180150773Y-54717298D01*
X179995901Y-54653148D01*
X179856520Y-54560016D01*
X179737986Y-54441482D01*
X179644854Y-54302101D01*
X179580704Y-54147229D01*
X179548001Y-53982817D01*
X179548001Y-53815185D01*
X179580704Y-53650773D01*
X179644854Y-53495901D01*
X179737986Y-53356520D01*
X179856520Y-53237986D01*
X179995901Y-53144854D01*
X180150773Y-53080704D01*
X180315185Y-53048001D01*
X180482817Y-53048001D01*
X180647229Y-53080704D01*
G37*
G36*
X166010001Y-54750001D02*
G01*
X164308001Y-54750001D01*
X164308001Y-53048001D01*
X166010001Y-53048001D01*
X166010001Y-54750001D01*
G37*
M02*
